<?xml version="1.0" encoding="UTF-8"?>
<svg width="84px" height="24px" viewBox="0 0 84 24" version="1.1" xmlns="http://www.w3.org/2000/svg" xmlns:xlink="http://www.w3.org/1999/xlink">
    <title>ctrl+a</title>
    <g id="页面-1" stroke="none" stroke-width="1" fill="none" fill-rule="evenodd">
        <g id="ctrl+a" fill="#FFFFFF">
            <path d="M49.5,8 C49.7761424,8 50,8.22385763 50,8.5 L50,12 L53.5,12 C53.7761424,12 54,12.2238576 54,12.5 C54,12.7761424 53.7761424,13 53.5,13 L50,13 L50,16.5 C50,16.7761424 49.7761424,17 49.5,17 C49.2238576,17 49,16.7761424 49,16.5 L49,13 L45.5,13 C45.2238576,13 45,12.7761424 45,12.5 C45,12.2238576 45.2238576,12 45.5,12 L49,12 L49,8.5 C49,8.22385763 49.2238576,8 49.5,8 Z" id="形状结合"></path>
            <g id="编组-29" fill-opacity="0.85" fill-rule="nonzero">
                <path d="M35,0 C37.209139,0 39,1.790861 39,4 L39,20 C39,22.209139 37.209139,24 35,24 L4,24 C1.790861,24 0,22.209139 0,20 L0,4 C0,1.790861 1.790861,0 4,0 L35,0 Z M35,1 L4,1 C2.40231912,1 1.09633912,2.24891996 1.00509269,3.82372721 L1,4 L1,20 C1,21.5976809 2.24891996,22.9036609 3.82372721,22.9949073 L4,23 L35,23 C36.5976809,23 37.9036609,21.75108 37.9949073,20.1762728 L38,20 L38,4 C38,2.40231912 36.75108,1.09633912 35.1762728,1.00509269 L35,1 Z" id="矩形备份-14"></path>
                <g id="Ctrl" transform="translate(8.000000, 6.000000)">
                    <path d="M4.71529563,12 C6.11953728,12 7.18380463,11.4363412 8.04113111,10.4425216 L7.28727506,9.58220025 C6.59254499,10.3386897 5.80912596,10.7985167 4.77442159,10.7985167 C2.70501285,10.7985167 1.40424165,9.07787392 1.40424165,6.33374536 C1.40424165,3.61928307 2.76413882,1.92830655 4.81876607,1.92830655 C5.75,1.92830655 6.47429306,2.35846724 7.03598972,2.96662546 L7.77506427,2.07663782 C7.15424165,1.37948084 6.11953728,0.726823239 4.80398458,0.726823239 C2.05462725,0.726823239 0,2.86279357 0,6.37824475 C0,9.90852905 2.02506427,12 4.71529563,12 Z" id="路径"></path>
                    <path d="M12.0173522,12 C12.5051414,12 13.0372751,11.8516687 13.4955013,11.7033375 L13.2294344,10.6946848 C12.9633676,10.7985167 12.5938303,10.9023486 12.312982,10.9023486 C11.3817481,10.9023486 11.0713368,10.3386897 11.0713368,9.34487021 L11.0713368,4.85043263 L13.2442159,4.85043263 L13.2442159,3.75278121 L11.0713368,3.75278121 L11.0713368,1.49814586 L9.94794344,1.49814586 L9.78534704,3.75278121 L8.52892031,3.82694685 L8.52892031,4.85043263 L9.72622108,4.85043263 L9.72622108,9.31520396 C9.72622108,10.9320148 10.3026992,12 12.0173522,12 Z" id="路径"></path>
                    <path d="M15.0623393,11.8071693 L16.407455,11.8071693 L16.407455,6.63040791 C16.9395887,5.25092707 17.7673522,4.776267 18.4325193,4.776267 C18.7577121,4.776267 18.9498715,4.80593325 19.2159383,4.90976514 L19.4672237,3.72311496 C19.2159383,3.58961681 18.964653,3.54511743 18.6098972,3.54511743 C17.7082262,3.54511743 16.8952442,4.19777503 16.3335476,5.22126082 L16.2892031,5.22126082 L16.1709512,3.75278121 L15.0623393,3.75278121 L15.0623393,11.8071693 Z" id="路径"></path>
                    <path d="M22.216581,12 C22.5713368,12 22.8078406,11.9555006 23,11.881335 L22.8078406,10.8430161 C22.6600257,10.8726823 22.6008997,10.8726823 22.5269923,10.8726823 C22.3200514,10.8726823 22.1426735,10.7095179 22.1426735,10.2941904 L22.1426735,0 L20.7975578,0 L20.7975578,10.2051916 C20.7975578,11.3473424 21.2114396,12 22.216581,12 Z" id="路径"></path>
                </g>
            </g>
            <path d="M80,0 C82.209139,0 84,1.790861 84,4 L84,20 C84,22.209139 82.209139,24 80,24 L64,24 C61.790861,24 60,22.209139 60,20 L60,4 C60,1.790861 61.790861,0 64,0 L80,0 Z M80,1 L64,1 C62.4023191,1 61.0963391,2.24891996 61.0050927,3.82372721 L61,4 L61,20 C61,21.5976809 62.24892,22.9036609 63.8237272,22.9949073 L64,23 L80,23 C81.5976809,23 82.9036609,21.75108 82.9949073,20.1762728 L83,20 L83,4 C83,2.40231912 81.75108,1.09633912 80.1762728,1.00509269 L80,1 Z" id="矩形备份-15" fill-opacity="0.85" fill-rule="nonzero"></path>
            <path d="M70.1281198,13.1214188 L70.7271215,11.2878581 C71.1597338,9.92905866 71.5590682,8.63574352 71.9417637,7.22783083 L72.0083195,7.22783083 C72.4076539,8.61937244 72.7903494,9.92905866 73.2396007,11.2878581 L73.8219634,13.1214188 L70.1281198,13.1214188 Z M75.3693844,18 L77,18 L72.8569052,6 L71.1430948,6 L67,18 L68.5640599,18 L69.7454243,14.3328786 L74.2046589,14.3328786 L75.3693844,18 Z" id="形状" fill-opacity="0.85" fill-rule="nonzero"></path>
        </g>
    </g>
</svg>