<?xml version="1.0" encoding="UTF-8"?>
<svg width="39px" height="24px" viewBox="0 0 39 24" version="1.1" xmlns="http://www.w3.org/2000/svg" xmlns:xlink="http://www.w3.org/1999/xlink">
    <title>esc</title>
    <g id="页面-1" stroke="none" stroke-width="1" fill="none" fill-rule="evenodd" fill-opacity="0.85">
        <g id="esc" fill="#FFFFFF" fill-rule="nonzero">
            <path d="M35,0 C37.209139,0 39,1.790861 39,4 L39,20 C39,22.209139 37.209139,24 35,24 L4,24 C1.790861,24 0,22.209139 0,20 L0,4 C0,1.790861 1.790861,0 4,0 L35,0 Z M35,1 L4,1 C2.40231912,1 1.09633912,2.24891996 1.00509269,3.82372721 L1,4 L1,20 C1,21.5976809 2.24891996,22.9036609 3.82372721,22.9949073 L4,23 L35,23 C36.5976809,23 37.9036609,21.75108 37.9949073,20.1762728 L38,20 L38,4 C38,2.40231912 36.75108,1.09633912 35.1762728,1.00509269 L35,1 Z" id="矩形备份-14"></path>
            <g id="Esc" transform="translate(8.000000, 6.000000)">
                <polygon id="路径" points="0 11.7908847 6.94641614 11.7908847 6.94641614 10.5201072 1.48851775 10.5201072 1.48851775 6.22520107 5.93806541 6.22520107 5.93806541 4.95442359 1.48851775 4.95442359 1.48851775 1.25469169 6.77035491 1.25469169 6.77035491 0 0 0"></polygon>
                <path d="M11.5560195,12 C13.6047321,12 14.7251218,10.8257373 14.7251218,9.41018767 C14.7251218,7.75335121 13.3326374,7.2386059 12.0681976,6.75603217 C11.091858,6.38605898 10.1475296,6.08042895 10.1475296,5.24396783 C10.1475296,4.56836461 10.6437022,3.98927614 11.7320807,3.98927614 C12.5163535,3.98927614 13.1245651,4.31099196 13.7327766,4.7613941 L14.4370216,3.81233244 C13.7487822,3.28150134 12.8044537,2.8310992 11.7320807,2.8310992 C9.8434238,2.8310992 8.73903967,3.92493298 8.73903967,5.30831099 C8.73903967,6.78820375 10.1155184,7.38337802 11.3319415,7.83378016 C12.2922756,8.20375335 13.3166319,8.60589812 13.3166319,9.49061662 C13.3166319,10.2466488 12.756437,10.8579088 11.6040362,10.8579088 C10.5636743,10.8579088 9.77940153,10.4396783 9.02713987,9.82841823 L8.30688935,10.7935657 C9.13917884,11.4852547 10.3235908,12 11.5560195,12 Z" id="路径"></path>
                <path d="M20.1990257,12 C21.2393876,12 22.2317328,11.5978552 23,10.8900804 L22.3757829,9.90884718 C21.8315936,10.4075067 21.1273486,10.7774799 20.3270703,10.7774799 C18.7265136,10.7774799 17.638135,9.44235925 17.638135,7.43163539 C17.638135,5.42091153 18.7905358,4.0536193 20.3590814,4.0536193 C21.0633264,4.0536193 21.5915101,4.37533512 22.1036882,4.84182306 L22.8559499,3.86058981 C22.2317328,3.31367292 21.44746,2.8310992 20.3110647,2.8310992 C18.0862909,2.8310992 16.1176061,4.52010724 16.1176061,7.43163539 C16.1176061,10.3270777 17.8942241,12 20.1990257,12 Z" id="路径"></path>
            </g>
        </g>
    </g>
</svg>