<svg xmlns="http://www.w3.org/2000/svg" viewBox="0 0 272 144">
  <defs>
    <linearGradient id="矩形区域截图-a" x1="3.6%" x2="100%" y1="14.922%" y2="77.096%">
      <stop offset="0%" stop-color="#C1DCFF"/>
      <stop offset="100%" stop-color="#B5D1FF"/>
    </linearGradient>
  </defs>
  <g fill="none" fill-rule="evenodd">
    <rect width="272" height="144" fill="#FFF" rx="4"/>
    <g transform="translate(32 32)">
      <rect width="80" height="80"/>
      <rect width="75" height="65" x="2.5" y="7.5" fill="url(#矩形区域截图-a)" fill-rule="nonzero" stroke="#82A9FE" rx="3"/>
      <rect width="43" height="35" x="18" y="20" fill="#FFF" fill-rule="nonzero" rx="1"/>
      <path fill="#4F85FF" fill-rule="nonzero" d="M22.5,21 C22.7761424,21 23,21.2238576 23,21.5 C23,21.7761424 22.7761424,22 22.5,22 L19.5,22 C19.2238576,22 19,21.7761424 19,21.5 C19,21.2238576 19.2238576,21 19.5,21 L22.5,21 Z M28.5,21 C28.7761424,21 29,21.2238576 29,21.5 C29,21.7761424 28.7761424,22 28.5,22 L25.5,22 C25.2238576,22 25,21.7761424 25,21.5 C25,21.2238576 25.2238576,21 25.5,21 L28.5,21 Z M34.5,21 C34.7761424,21 35,21.2238576 35,21.5 C35,21.7761424 34.7761424,22 34.5,22 L31.5,22 C31.2238576,22 31,21.7761424 31,21.5 C31,21.2238576 31.2238576,21 31.5,21 L34.5,21 Z M40.5,21 C40.7761424,21 41,21.2238576 41,21.5 C41,21.7761424 40.7761424,22 40.5,22 L37.5,22 C37.2238576,22 37,21.7761424 37,21.5 C37,21.2238576 37.2238576,21 37.5,21 L40.5,21 Z M46.5,21 C46.7761424,21 47,21.2238576 47,21.5 C47,21.7761424 46.7761424,22 46.5,22 L43.5,22 C43.2238576,22 43,21.7761424 43,21.5 C43,21.2238576 43.2238576,21 43.5,21 L46.5,21 Z M52.5,21 C52.7761424,21 53,21.2238576 53,21.5 C53,21.7761424 52.7761424,22 52.5,22 L49.5,22 C49.2238576,22 49,21.7761424 49,21.5 C49,21.2238576 49.2238576,21 49.5,21 L52.5,21 Z M58.5,21 C58.7761424,21 59,21.2238576 59,21.5 C59,21.7761424 58.7761424,22 58.5,22 L55.5,22 C55.2238576,22 55,21.7761424 55,21.5 C55,21.2238576 55.2238576,21 55.5,21 L58.5,21 Z M60,26.5 C60,26.7761424 59.7761424,27 59.5,27 C59.2238576,27 59,26.7761424 59,26.5 L59,23.5 C59,23.2238576 59.2238576,23 59.5,23 C59.7761424,23 60,23.2238576 60,23.5 L60,26.5 Z M60,32.5 C60,32.7761424 59.7761424,33 59.5,33 C59.2238576,33 59,32.7761424 59,32.5 L59,29.5 C59,29.2238576 59.2238576,29 59.5,29 C59.7761424,29 60,29.2238576 60,29.5 L60,32.5 Z M60,38.5 C60,38.7761424 59.7761424,39 59.5,39 C59.2238576,39 59,38.7761424 59,38.5 L59,35.5 C59,35.2238576 59.2238576,35 59.5,35 C59.7761424,35 60,35.2238576 60,35.5 L60,38.5 Z M60,44.5 C60,44.7761424 59.7761424,45 59.5,45 C59.2238576,45 59,44.7761424 59,44.5 L59,41.5 C59,41.2238576 59.2238576,41 59.5,41 C59.7761424,41 60,41.2238576 60,41.5 L60,44.5 Z M50.5,54 C50.2238576,54 50,53.7761424 50,53.5 C50,53.2238576 50.2238576,53 50.5,53 L51.5,53 C51.7761424,53 52,53.2238576 52,53.5 C52,53.7761424 51.7761424,54 51.5,54 L50.5,54 Z M44.5,54 C44.2238576,54 44,53.7761424 44,53.5 C44,53.2238576 44.2238576,53 44.5,53 L47.5,53 C47.7761424,53 48,53.2238576 48,53.5 C48,53.7761424 47.7761424,54 47.5,54 L44.5,54 Z M38.5,54 C38.2238576,54 38,53.7761424 38,53.5 C38,53.2238576 38.2238576,53 38.5,53 L41.5,53 C41.7761424,53 42,53.2238576 42,53.5 C42,53.7761424 41.7761424,54 41.5,54 L38.5,54 Z M32.5,54 C32.2238576,54 32,53.7761424 32,53.5 C32,53.2238576 32.2238576,53 32.5,53 L35.5,53 C35.7761424,53 36,53.2238576 36,53.5 C36,53.7761424 35.7761424,54 35.5,54 L32.5,54 Z M26.5,54 C26.2238576,54 26,53.7761424 26,53.5 C26,53.2238576 26.2238576,53 26.5,53 L29.5,53 C29.7761424,53 30,53.2238576 30,53.5 C30,53.7761424 29.7761424,54 29.5,54 L26.5,54 Z M20.5,54 C20.2238576,54 20,53.7761424 20,53.5 C20,53.2238576 20.2238576,53 20.5,53 L23.5,53 C23.7761424,53 24,53.2238576 24,53.5 C24,53.7761424 23.7761424,54 23.5,54 L20.5,54 Z M19,48.5 C19,48.2238576 19.2238576,48 19.5,48 C19.7761424,48 20,48.2238576 20,48.5 L20,51.5 C20,51.7761424 19.7761424,52 19.5,52 C19.2238576,52 19,51.7761424 19,51.5 L19,48.5 Z M19,42.5 C19,42.2238576 19.2238576,42 19.5,42 C19.7761424,42 20,42.2238576 20,42.5 L20,45.5 C20,45.7761424 19.7761424,46 19.5,46 C19.2238576,46 19,45.7761424 19,45.5 L19,42.5 Z M19,36.5 C19,36.2238576 19.2238576,36 19.5,36 C19.7761424,36 20,36.2238576 20,36.5 L20,39.5 C20,39.7761424 19.7761424,40 19.5,40 C19.2238576,40 19,39.7761424 19,39.5 L19,36.5 Z M19,30.5 C19,30.2238576 19.2238576,30 19.5,30 C19.7761424,30 20,30.2238576 20,30.5 L20,33.5 C20,33.7761424 19.7761424,34 19.5,34 C19.2238576,34 19,33.7761424 19,33.5 L19,30.5 Z M19,24.5 C19,24.2238576 19.2238576,24 19.5,24 C19.7761424,24 20,24.2238576 20,24.5 L20,27.5 C20,27.7761424 19.7761424,28 19.5,28 C19.2238576,28 19,27.7761424 19,27.5 L19,24.5 Z"/>
      <path fill="#82A9FE" fill-rule="nonzero" d="M2,65 L78,65 L78,69 C78,71.209139 76.209139,73 74,73 L6,73 C3.790861,73 2,71.209139 2,69 L2,65 Z"/>
      <path fill="#000" fill-rule="nonzero" stroke="#E0EDFF" d="M60.5,52.5 L65.5,52.5 C66.0522847,52.5 66.5,52.9477153 66.5,53.5 C66.5,54.0522847 66.0522847,54.5 65.5,54.5 L60.5,54.5 L60.5,59.5 C60.5,60.0522847 60.0522847,60.5 59.5,60.5 C58.9477153,60.5 58.5,60.0522847 58.5,59.5 L58.5,54.5 L53.5,54.5 C52.9477153,54.5 52.5,54.0522847 52.5,53.5 C52.5,52.9477153 52.9477153,52.5 53.5,52.5 L58.5,52.5 L58.5,47.5 C58.5,46.9477153 58.9477153,46.5 59.5,46.5 C60.0522847,46.5 60.5,46.9477153 60.5,47.5 L60.5,52.5 Z"/>
      <rect width="6" height="2" x="5" y="68" fill="#B0CEFF" rx="1"/>
      <rect width="6" height="2" x="13" y="68" fill="#B0CEFF" rx="1"/>
    </g>
  </g>
</svg>
