<svg width="272" height="144" viewBox="0 0 272 144" fill="none" xmlns="http://www.w3.org/2000/svg">
<g clip-path="url(#clip0_235_2736)">
<path d="M268 0H4C1.79086 0 0 1.79086 0 4V140C0 142.209 1.79086 144 4 144H268C270.209 144 272 142.209 272 140V4C272 1.79086 270.209 0 268 0Z" fill="white"/>
<path d="M236 0H256V17.1964C256 17.899 255.631 18.55 255.029 18.9114L247.029 23.7114C246.396 24.0914 245.604 24.0914 244.971 23.7114L236.971 18.9114C236.369 18.55 236 17.899 236 17.1964V0Z" fill="#2C71FA"/>
<path d="M250.896 7.95602H248.796C249.276 7.16402 249.636 6.31202 249.924 5.40002H242.676C242.208 6.32402 241.524 7.06802 240.672 7.59602V9.14402C240.912 9.06002 241.128 8.96402 241.344 8.85602V12.564H243.54C243.132 13.716 242.112 14.436 240.6 14.748V16.296C243 15.888 244.608 14.748 245.112 12.564H246.912V16.2H251.52V14.7H248.448V12.564H250.896V7.95602ZM242.676 7.95602C243.024 7.63202 243.312 7.27202 243.564 6.86402H247.656C247.488 7.23602 247.248 7.60802 246.996 7.95602H242.676ZM242.892 11.1V9.42002H245.232V11.1H242.892ZM246.768 11.1V9.42002H249.348V11.1H246.768Z" fill="white"/>
<path d="M106.5 39.5H37.5C35.8431 39.5 34.5 40.8431 34.5 42.5V101.5C34.5 103.157 35.8431 104.5 37.5 104.5H106.5C108.157 104.5 109.5 103.157 109.5 101.5V42.5C109.5 40.8431 108.157 39.5 106.5 39.5Z" fill="url(#paint0_linear_235_2736)" stroke="#82A9FE"/>
<path d="M72 89C86.3594 89 98 80.0457 98 69C98 57.9543 86.3594 49 72 49C57.6406 49 46 57.9543 46 69C46 80.0457 57.6406 89 72 89Z" fill="white"/>
<path fill-rule="evenodd" clip-rule="evenodd" d="M72 87.5C85.531 87.5 96.5 79.2173 96.5 69C96.5 58.7827 85.531 50.5 72 50.5C58.469 50.5 47.5 58.7827 47.5 69C47.5 79.2173 58.469 87.5 72 87.5Z" stroke="#4F85FF" stroke-linecap="round" stroke-dasharray="3 3"/>
<path d="M34 97H110V101C110 103.209 108.209 105 106 105H38C35.7909 105 34 103.209 34 101V97Z" fill="#82A9FE"/>
<path d="M97.5 86.5H102.5C103.052 86.5 103.5 86.9477 103.5 87.5C103.5 88.0523 103.052 88.5 102.5 88.5H97.5V93.5C97.5 94.0523 97.0523 94.5 96.5 94.5C95.9477 94.5 95.5 94.0523 95.5 93.5V88.5H90.5C89.9477 88.5 89.5 88.0523 89.5 87.5C89.5 86.9477 89.9477 86.5 90.5 86.5H95.5V81.5C95.5 80.9477 95.9477 80.5 96.5 80.5C97.0523 80.5 97.5 80.9477 97.5 81.5V86.5Z" fill="black" stroke="#E0EDFF"/>
<path d="M42 100H38C37.4477 100 37 100.448 37 101C37 101.552 37.4477 102 38 102H42C42.5523 102 43 101.552 43 101C43 100.448 42.5523 100 42 100Z" fill="#B0CEFF"/>
<path d="M50 100H46C45.4477 100 45 100.448 45 101C45 101.552 45.4477 102 46 102H50C50.5523 102 51 101.552 51 101C51 100.448 50.5523 100 50 100Z" fill="#B0CEFF"/>
</g>
<defs>
<linearGradient id="paint0_linear_235_2736" x1="37.2" y1="49.1993" x2="103.086" y2="98.2308" gradientUnits="userSpaceOnUse">
<stop stop-color="#C1DCFF"/>
<stop offset="1" stop-color="#B5D1FF"/>
</linearGradient>
<clipPath id="clip0_235_2736">
<rect width="272" height="144" fill="white"/>
</clipPath>
</defs>
</svg>
