<svg width="272" height="144" viewBox="0 0 272 144" fill="none" xmlns="http://www.w3.org/2000/svg">
<g clip-path="url(#clip0_235_2730)">
<path fill-rule="evenodd" clip-rule="evenodd" d="M268 0H4C1.8 0 0 1.8 0 4V140C0 142.2 1.8 144 4 144H268C270.2 144 272 142.2 272 140V4C272 1.8 270.2 0 268 0Z" fill="white"/>
<g clip-path="url(#clip1_235_2730)">
<path fill-rule="evenodd" clip-rule="evenodd" d="M236 0H256V17.1964C256 17.899 255.631 18.55 255.029 18.9114L247.029 23.7114C246.396 24.0914 245.604 24.0914 244.971 23.7114L236.971 18.9114C236.369 18.55 236 17.899 236 17.1964V0Z" fill="url(#paint0_linear_235_2730)"/>
<path fill-rule="evenodd" clip-rule="evenodd" d="M251.83 11.0483L246.435 15.7031C246.19 15.9137 245.81 15.9137 245.565 15.7031L240.17 11.0483C239.981 10.8856 239.928 10.6449 240.009 10.4393L242.009 5.35411C242.093 5.14076 242.32 4.9722 242.604 4.9722H249.396C249.68 4.9722 249.907 5.14076 249.991 5.35411L251.991 10.4393C252.072 10.6449 252.019 10.8856 251.83 11.0483ZM247.07 16.4393C246.461 16.9647 245.539 16.9647 244.93 16.4393L239.535 11.7845C239.04 11.3579 238.869 10.6817 239.104 10.0835L241.104 4.99827C241.341 4.39737 241.938 3.99998 242.604 3.99998H249.396C250.062 3.99998 250.659 4.39737 250.896 4.99827L252.896 10.0835C253.131 10.6817 252.96 11.3579 252.465 11.7845L247.07 16.4393Z" fill="#F3B752"/>
<path d="M248.391 9.69075C248.391 9.54802 248.295 9.42288 248.157 9.38582L243.828 8.22192V9.91662C243.828 10.0594 243.924 10.1843 244.062 10.2214L248.391 11.3853C248.391 10.7135 248.391 10.3039 248.391 9.69075Z" fill="#F3B752"/>
<path d="M246.502 6.09042C246.6 6.03374 246.721 6.03374 246.819 6.09042L248.344 6.97378C248.424 7.02053 248.424 7.13707 248.344 7.18382L243.997 9.7016C243.904 9.75558 243.843 9.85003 243.83 9.95543C243.829 9.94321 243.828 9.9308 243.828 9.91825V7.82164C243.828 7.70907 243.888 7.60502 243.985 7.54859L246.502 6.09042Z" fill="#F3B752"/>
<path d="M245.717 13.5045C245.619 13.5617 245.497 13.5617 245.398 13.5045L243.877 12.6234C243.796 12.5761 243.796 12.4576 243.877 12.4103L248.219 9.89535C248.312 9.84114 248.374 9.74646 248.388 9.64056C248.39 9.65439 248.391 9.66845 248.391 9.68269V11.7712C248.391 11.8855 248.33 11.9911 248.231 12.0483L245.717 13.5045Z" fill="#F3B752"/>
</g>
<path d="M37.5 39.5H106.5C108.2 39.5 109.5 40.8 109.5 42.5V101.5C109.5 103.2 108.2 104.5 106.5 104.5H37.5C35.8 104.5 34.5 103.2 34.5 101.5V42.5C34.5 40.8 35.8 39.5 37.5 39.5Z" fill="url(#paint1_linear_235_2730)" stroke="#82A9FE"/>
<path d="M60 52H83C88.5 52 93 56.5 93 62V77C93 82.5 88.5 87 83 87H60C54.5 87 50 82.5 50 77V62C50 56.5 54.5 52 60 52Z" fill="white"/>
<path d="M34 97H110V101C110 103.2 108.2 105 106 105H38C35.8 105 34 103.2 34 101V97Z" fill="#82A9FE"/>
<path d="M92.5 84.5H97.5C98.1 84.5 98.5 84.9 98.5 85.5C98.5 86.1 98.1 86.5 97.5 86.5H92.5V91.5C92.5 92.1 92.1 92.5 91.5 92.5C90.9 92.5 90.5 92.1 90.5 91.5V86.5H85.5C84.9 86.5 84.5 86.1 84.5 85.5C84.5 84.9 84.9 84.5 85.5 84.5H90.5V79.5C90.5 78.9 90.9 78.5 91.5 78.5C92.1 78.5 92.5 78.9 92.5 79.5V84.5Z" fill="black" stroke="#E0EDFF"/>
<path fill-rule="evenodd" clip-rule="evenodd" d="M38 100H42C42.6 100 43 100.4 43 101C43 101.6 42.6 102 42 102H38C37.4 102 37 101.6 37 101C37 100.4 37.4 100 38 100Z" fill="#B0CEFF"/>
<path fill-rule="evenodd" clip-rule="evenodd" d="M46 100H50C50.6 100 51 100.4 51 101C51 101.6 50.6 102 50 102H46C45.4 102 45 101.6 45 101C45 100.4 45.4 100 46 100Z" fill="#B0CEFF"/>
<path d="M91.5 77.5V61.5C91.5 57.1 87.9 53.5 83.5 53.5H59.5C55.1 53.5 51.5 57.1 51.5 61.5V77.5C51.5 81.9 55.1 85.5 59.5 85.5H83.5" stroke="#4F85FF" stroke-linecap="round" stroke-linejoin="round" stroke-dasharray="3 3"/>
<path d="M89.2 82.4C89 82.6 88.8 82.9 88.5 83.1C88.3 83.3 88.3 83.6 88.5 83.8C88.7 84 89 84 89.2 83.8C89.5 83.6 89.7 83.3 89.9 83C90.1 82.8 90.1 82.5 89.9 82.3C89.7 82.2 89.3 82.2 89.2 82.4Z" fill="#4F85FF"/>
</g>
<defs>
<linearGradient id="paint0_linear_235_2730" x1="236" y1="0" x2="258.795" y2="3.03983" gradientUnits="userSpaceOnUse">
<stop stop-color="#464343"/>
<stop offset="1" stop-color="#382928"/>
</linearGradient>
<linearGradient id="paint1_linear_235_2730" x1="35.4375" y1="51.565" x2="101.324" y2="100.594" gradientUnits="userSpaceOnUse">
<stop stop-color="#C1DCFF"/>
<stop offset="1" stop-color="#B5D1FF"/>
</linearGradient>
<clipPath id="clip0_235_2730">
<rect width="272" height="144" fill="white"/>
</clipPath>
<clipPath id="clip1_235_2730">
<rect width="20" height="24" fill="white" transform="translate(236)"/>
</clipPath>
</defs>
</svg>
