<svg id="图层_1" data-name="图层 1" xmlns="http://www.w3.org/2000/svg" viewBox="0 0 60 18"><defs><style>.cls-1{fill:#f2733d;}.cls-2{isolation:isolate;}.cls-3{fill:#fff;}</style></defs><title>limitedexemption1</title><path class="cls-1" d="M0,0H51a9,9,0,0,1,9,9h0a9,9,0,0,1-9,9H9A9,9,0,0,1,0,9Z"/><g class="cls-2"><g class="cls-2"><path class="cls-3" d="M10.266,9.994q.34,2.238-1.113,2.508a3.7,3.7,0,0,1-1.184.023,8.344,8.344,0,0,0-.258-.984,2.992,2.992,0,0,0,1.078.094q.8-.152.539-1.676A5.055,5.055,0,0,0,8.262,7.85q.422-1.277,1.1-3.41H7.629V14.67H6.75V3.619H10.3v.82Q9.727,6.092,9.2,7.7A5.146,5.146,0,0,1,10.266,9.994Zm.75-6.34H16.57V9.49H15.7V9.174h-1.98a6.867,6.867,0,0,0,1,1.9A20.832,20.832,0,0,0,16.945,9.42l.621.738q-1.289.9-2.3,1.547a7.46,7.46,0,0,0,2.566,1.652,6.758,6.758,0,0,0-.75.855,7.978,7.978,0,0,1-4.2-5.039H11.883v3.984q.785-.352,2.051-1.031.012.539.059.926-1.043.5-2.027,1.09a3.713,3.713,0,0,0-.633.492l-.668-.879a.979.979,0,0,0,.352-.773Zm4.688.8h-3.82V6.01H15.7Zm0,3.926V6.795h-3.82V8.377Z"/><path class="cls-3" d="M18.645,4.135h4.043v9.551h-.926v-.973H19.57v1.113h-.926ZM21.762,5H19.57V7.967h2.191ZM19.57,11.846h2.191V8.811H19.57Zm3.5-6.234h4.16V3.021h.938v2.59h1.664v.867H28.172v6.3q0,1.57-1.5,1.57-.68,0-1.992-.035-.059-.422-.187-.984,1.23.094,1.922.094a.73.73,0,0,0,.82-.832V6.479h-4.16ZM24.387,7.6q.938,1.711,1.418,2.73-.3.141-.937.469-.457-1.113-1.312-2.777Z"/><path class="cls-3" d="M30.246,13.838a7.033,7.033,0,0,0,4.547-3.6h-2.32v.445h-.9V7.17q-.4.34-.809.645-.141-.2-.633-.773a14.949,14.949,0,0,0,3.879-4.02l.891.328q-.316.469-.633.9h4.582v.832L37.535,6.4h2.813v4.289h-.9V10.24H35.777q-1.09,2.988-4.922,4.465A4.053,4.053,0,0,0,30.246,13.838Zm7.371-8.766h-4q-.586.7-1.207,1.324h3.9ZM32.473,9.42h2.613a9.323,9.323,0,0,0,.34-2.2H32.473Zm3.445,1.418h.9v1.734a.947.947,0,0,0,.176.68,1.063,1.063,0,0,0,.738.188H39.75q.844,0,.961-.7a13.017,13.017,0,0,0,.188-1.711q.457.188.9.34-.082.914-.211,1.664Q41.4,14.307,39.8,14.307H37.465a1.61,1.61,0,0,1-1.219-.363,1.653,1.653,0,0,1-.328-1.207Zm3.527-3.621H36.34a13.2,13.2,0,0,1-.316,2.2h3.422Z"/><path class="cls-3" d="M42.984,4.088h3.363q.023-.527.023-.984h.844q0,.457-.023.984H49.23V3.1h.844v.984H52.9V6.76h-.844V6.467h-1.98V7.521h3.352A10.05,10.05,0,0,1,53.3,8.963a.926.926,0,0,1-1.055.82h-.352v2.859h-.844V10.252H45.164v2.531H44.32V10.252a13.414,13.414,0,0,1-1.629.586,4.454,4.454,0,0,0-.5-.809A5.526,5.526,0,0,0,45.715,8.2H43.137l.375-2.414H46.3q.035-.457.035-1.02H42.984Zm4.7,6.82h.832a4.834,4.834,0,0,1-.164,1.324q2.672.785,4.852,1.559l-.434.844q-2.367-.879-4.711-1.652-.727,1.184-4.8,1.664a5.491,5.491,0,0,0-.4-.844,12.762,12.762,0,0,0,4.066-.9Q47.707,12.514,47.684,10.908Zm-3.6-3.387h1.957a5.652,5.652,0,0,0,.2-1.055H44.227Zm6.809,1.441a10.573,10.573,0,0,0,1.09.07q.469,0,.539-.352a3.821,3.821,0,0,0,.059-.48H50.074V9.35H49.23V8.2h-2.52a3.338,3.338,0,0,1-1.1,1.3h5.449Q51,9.279,50.895,8.963ZM46.934,7.521h2.3V6.467H47.1A7.538,7.538,0,0,1,46.934,7.521Zm.211-1.734H49.23V4.768H47.18Q47.18,5.318,47.145,5.787Zm4.91-1.02h-1.98v1.02h1.98Z"/></g></g></svg>