<svg xmlns="http://www.w3.org/2000/svg" viewBox="0 0 32 32">
  <g fill="none" fill-rule="evenodd">
    <circle cx="16" cy="16" r="16" fill="#588BFF" fill-rule="nonzero"/>
    <g fill="#FFF" transform="translate(8 8)">
      <path fill-rule="nonzero" d="M12.2630497,11.3181818 L13.4133647,12.782219 C13.778985,12.3065674 14.3536911,12 15,12 C16.1045695,12 17,12.8954305 17,14 C17,15.1045695 16.1045695,16 15,16 C13.9672593,16 13.1173419,15.2172404 13.0111709,14.2126445 L11.5,12.289336 L9.9888291,14.2126445 C9.88265813,15.2172404 9.03274071,16 8,16 C6.8954305,16 6,15.1045695 6,14 C6,12.8954305 6.8954305,12 8,12 C8.64630885,12 9.22101505,12.3065674 9.58663533,12.782219 L10.7369503,11.3181818 L8.028209,7.87069293 C7.82348094,7.61012995 7.86874409,7.23293705 8.12930707,7.028209 C8.38987005,6.82348094 8.76706295,6.86874409 8.971791,7.12930707 L11.5,10.3470276 L14.028209,7.12930707 C14.232937,6.86874409 14.61013,6.82348094 14.8706929,7.028209 C15.1312559,7.23293705 15.1765191,7.61012995 14.971791,7.87069293 L12.2630497,11.3181818 Z"/>
      <path fill-opacity=".8" d="M3,14.5 C3,14.7761424 2.77614237,15 2.5,15 C2.22385763,15 2,14.7761424 2,14.5 L2,13.5 C2,13.2238576 2.22385763,13 2.5,13 C2.77614237,13 3,13.2238576 3,13.5 L3,14.5 Z M5,14 C5.27614237,14 5.5,14.2238576 5.5,14.5 C5.5,14.7761424 5.27614237,15 5,15 L4.5,15 C4.22385763,15 4,14.7761424 4,14.5 C4,14.2238576 4.22385763,14 4.5,14 L5,14 Z M3,11.5 C3,11.7761424 2.77614237,12 2.5,12 C2.22385763,12 2,11.7761424 2,11.5 L2,10.5 C2,10.2238576 2.22385763,10 2.5,10 C2.77614237,10 3,10.2238576 3,10.5 L3,11.5 Z M3,8.5 C3,8.77614237 2.77614237,9 2.5,9 C2.22385763,9 2,8.77614237 2,8.5 L2,7.5 C2,7.22385763 2.22385763,7 2.5,7 C2.77614237,7 3,7.22385763 3,7.5 L3,8.5 Z M15,5.5 C15,5.77614237 14.7761424,6 14.5,6 C14.2238576,6 14,5.77614237 14,5.5 L14,4.5 C14,4.22385763 14.2238576,4 14.5,4 C14.7761424,4 15,4.22385763 15,4.5 L15,5.5 Z M8.5,2 C8.77614237,2 9,2.22385763 9,2.5 C9,2.77614237 8.77614237,3 8.5,3 L7.5,3 C7.22385763,3 7,2.77614237 7,2.5 C7,2.22385763 7.22385763,2 7.5,2 L8.5,2 Z M11.5,2 C11.7761424,2 12,2.22385763 12,2.5 C12,2.77614237 11.7761424,3 11.5,3 L10.5,3 C10.2238576,3 10,2.77614237 10,2.5 C10,2.22385763 10.2238576,2 10.5,2 L11.5,2 Z M14.5,2 C14.7761424,2 15,2.22385763 15,2.5 C15,2.77614237 14.7761424,3 14.5,3 L13.5,3 C13.2238576,3 13,2.77614237 13,2.5 C13,2.22385763 13.2238576,2 13.5,2 L14.5,2 Z"/>
      <path fill-rule="nonzero" d="M3,3 L3,5.5 C3,5.77614237 2.77614237,6 2.5,6 C2.22385763,6 2,5.77614237 2,5.5 L2,3 L0.5,3 C0.223857625,3 0,2.77614237 0,2.5 C0,2.22385763 0.223857625,2 0.5,2 L2,2 L2,0.5 C2,0.223857625 2.22385763,0 2.5,0 C2.77614237,0 3,0.223857625 3,0.5 L3,2 L5.5,2 C5.77614237,2 6,2.22385763 6,2.5 C6,2.77614237 5.77614237,3 5.5,3 L3,3 Z"/>
    </g>
  </g>
</svg>
