<?xml version="1.0" encoding="UTF-8"?>
<svg width="68px" height="24px" viewBox="0 0 68 24" version="1.1" xmlns="http://www.w3.org/2000/svg" xmlns:xlink="http://www.w3.org/1999/xlink">
    <title>鼠标滚轮</title>
    <g id="页面-1" stroke="none" stroke-width="1" fill="none" fill-rule="evenodd" fill-opacity="0.85">
        <g id="鼠标滚轮" fill="#FFFFFF" fill-rule="nonzero">
            <path d="M64,0 C66.209139,0 68,1.790861 68,4 L68,20 C68,22.209139 66.209139,24 64,24 L4,24 C1.790861,24 0,22.209139 0,20 L0,4 C0,1.790861 1.790861,0 4,0 L64,0 Z M64,1 L4,1 C2.40231912,1 1.09633912,2.24891996 1.00509269,3.82372721 L1,4 L1,20 C1,21.5976809 2.24891996,22.9036609 3.82372721,22.9949073 L4,23 L64,23 C65.5976809,23 66.9036609,21.75108 66.9949073,20.1762728 L67,20 L67,4 C67,2.40231912 65.75108,1.09633912 64.1762728,1.00509269 L64,1 Z" id="矩形备份-13"></path>
            <g transform="translate(9.000000, 6.000000)" id="形状">
                <path d="M9.62991921,0.705882353 L5.51211884,0.705882353 L5.51211884,1.50326797 L8.6786552,1.50326797 L8.6786552,2.5751634 L5.69455304,2.5751634 L5.69455304,3.34640523 L8.6786552,3.34640523 L8.6786552,4.50980392 L1.30310138,4.50980392 L1.30310138,3.30718954 L4.27417253,3.30718954 L4.27417253,2.53594771 L1.30310138,2.53594771 L1.30310138,1.46405229 C2.34558249,1.32026144 3.50534272,1.11111111 4.35235861,0.875816993 L3.85718009,0.130718954 C2.98410216,0.392156863 1.55069064,0.666666667 0.351837373,0.836601307 L0.351837373,5.32026144 L9.62991921,5.32026144 L9.62991921,0.705882353 Z M7.76648423,9.25490196 C7.40161585,8.95424837 6.68491009,8.48366013 6.13760751,8.16993464 L5.64242898,8.70588235 C6.18973156,9.04575163 6.89340631,9.54248366 7.24524368,9.85620915 L7.76648423,9.25490196 Z M7.75345322,7.16339869 C7.38858483,6.88888889 6.71097211,6.44444444 6.20276257,6.15686275 L5.70758405,6.69281046 C6.2288246,7.00653595 6.90643732,7.47712418 7.24524368,7.76470588 L7.75345322,7.16339869 Z M3.94839719,7.1372549 C3.60959083,6.8627451 2.94500912,6.43137255 2.4498306,6.15686275 L1.95465207,6.67973856 C2.4498306,6.98039216 3.10138129,7.45098039 3.44018765,7.7254902 L3.94839719,7.1372549 Z M1.40734949,10.6666667 L1.40734949,5.75163399 L0.482147511,5.75163399 L0.482147511,10.1960784 C0.482147511,10.7058824 0.195465207,10.9411765 0,11.0457516 C0.143341152,11.2418301 0.325775345,11.6339869 0.377899401,11.8562092 C0.625488663,11.7124183 1.00338806,11.6078431 3.62262184,11.0326797 C3.60959083,10.8235294 3.59655981,10.4836601 3.62262184,10.2222222 L1.40734949,10.6666667 Z M1.83737295,8.67973856 C2.34558249,8.99346405 2.99713318,9.45098039 3.33593954,9.73856209 L3.85718009,9.1372549 C3.50534272,8.8496732 2.84076101,8.43137255 2.33255147,8.14379085 L1.83737295,8.67973856 Z M5.22543654,10.6535948 L5.22543654,5.73856209 L4.3393276,5.73856209 L4.3393276,10.248366 C4.3393276,10.745098 4.09173834,10.9411765 3.90930414,11.0326797 C4.03961428,11.2156863 4.20901746,11.5816993 4.27417253,11.8169935 C4.52176179,11.6601307 4.92572322,11.5424837 7.77951525,10.8888889 C7.77951525,10.6928105 7.76648423,10.3529412 7.77951525,10.1045752 L5.22543654,10.6535948 Z M8.06619755,5.68627451 C8.11832161,9.77777778 8.52228303,11.9215686 9.87750847,11.9215686 C10.5290592,11.9215686 10.8418035,11.5947712 10.9460516,10.2745098 C10.7245244,10.1960784 10.4508731,10.0392157 10.2684389,9.86928105 C10.2163148,10.7581699 10.1381287,11.0065359 9.94266354,11.0065359 C9.33020589,11.0065359 8.99139953,9.39869281 9.01746156,5.68627451 L8.06619755,5.68627451 Z"></path>
                <path d="M23.1691426,1.05882353 L17.5267136,1.05882353 L17.5267136,1.97385621 L23.1691426,1.97385621 L23.1691426,1.05882353 Z M16.8360698,6.2875817 C16.5884806,5.94771242 15.4808444,4.53594771 15.089914,4.06535948 L15.089914,3.7254902 L16.7709148,3.7254902 L16.7709148,2.81045752 L15.089914,2.81045752 L15.089914,0.0653594771 L14.125619,0.0653594771 L14.125619,2.81045752 L12.1579359,2.81045752 L12.1579359,3.7254902 L13.9171228,3.7254902 C13.5001303,5.34640523 12.6531144,7.20261438 11.8321605,8.18300654 C12.0015637,8.41830065 12.262184,8.81045752 12.3794631,9.08496732 C13.0310138,8.26143791 13.6565025,6.90196078 14.125619,5.50326797 L14.125619,11.9869281 L15.089914,11.9869281 L15.089914,5.18954248 C15.5199375,5.83006536 16.054209,6.64052288 16.2627052,7.05882353 L16.8360698,6.2875817 Z M17.8655199,6.52287582 C17.5267136,7.90849673 16.940318,9.30718954 16.2236122,10.2222222 C16.4451394,10.3267974 16.8230388,10.6013072 16.992442,10.7320261 C17.6961168,9.73856209 18.3476674,8.22222222 18.7516289,6.71895425 L17.8655199,6.52287582 Z M23.8597863,5.07189542 L23.8597863,4.15686275 L16.96638,4.15686275 L16.96638,5.07189542 L19.7419859,5.07189542 L19.7419859,10.745098 C19.7419859,10.9150327 19.6898619,10.9542484 19.4943967,10.9673203 C19.3249935,10.9803922 18.7255668,10.9803922 18.0479541,10.9542484 C18.1652333,11.2418301 18.3085744,11.6601307 18.3476674,11.9477124 C19.2598384,11.9477124 19.8592651,11.9346405 20.2241334,11.751634 C20.6020328,11.5947712 20.7062809,11.3071895 20.7062809,10.7581699 L20.7062809,5.07189542 L23.8597863,5.07189542 Z M21.5923899,6.74509804 C22.2048475,8.02614379 22.8042742,9.7254902 22.9867084,10.745098 L23.8858483,10.4313725 C23.6643211,9.39869281 23.0258014,7.75163399 22.4003127,6.49673203 L21.5923899,6.74509804 Z"></path>
                <path d="M33.4506125,2.78431373 C34.4279385,3.49019608 35.6658848,4.50980392 36.2522804,5.17647059 L36.8517071,4.44444444 C36.2262184,3.79084967 34.9752411,2.82352941 33.997915,2.14379085 L33.4506125,2.78431373 Z M36.7083659,1.26797386 L33.1248371,1.26797386 C32.994527,0.888888889 32.7339067,0.379084967 32.5123795,0 L31.5741465,0.248366013 C31.7435496,0.549019608 31.8999218,0.941176471 32.043263,1.26797386 L28.5248892,1.26797386 L28.5248892,2.11764706 L36.7083659,2.11764706 L36.7083659,1.26797386 Z M28.5379203,5.11111111 C29.6064634,4.49673203 30.6619755,3.47712418 31.4177743,2.54901961 L30.6489445,2.23529412 C29.9583008,3.04575163 28.9418817,3.86928105 27.9775867,4.35294118 L28.5379203,5.11111111 Z M28.290331,1.97385621 C27.8472765,1.49019608 26.9611676,0.784313725 26.2444618,0.31372549 L25.6320042,0.875816993 C26.3617409,1.37254902 27.2348189,2.10457516 27.6518113,2.61437908 L28.290331,1.97385621 Z M27.7039354,5.37254902 C27.2739119,4.90196078 26.387803,4.22222222 25.6450352,3.77777778 L25.0456085,4.35294118 C25.7753453,4.82352941 26.6484232,5.54248366 27.0654157,6.02614379 L27.7039354,5.37254902 Z M27.313005,7.09803922 C26.7396403,8.5620915 25.9447485,10.2614379 25.3713839,11.2810458 L26.2183998,11.7908497 C26.8178264,10.5882353 27.5345322,8.98039216 28.0688038,7.62091503 L27.313005,7.09803922 Z M35.835288,7.29411765 C35.4182955,7.69934641 34.7146208,8.2745098 34.1151942,8.69281046 C33.6330467,8.03921569 33.2290852,7.28104575 32.9554339,6.47058824 L34.3106594,6.31372549 C34.5843107,6.62745098 34.8188689,6.91503268 34.9752411,7.16339869 L35.6919468,6.66666667 C35.2488924,6.05228758 34.3106594,5.04575163 33.6069846,4.35294118 L32.9293719,4.78431373 C33.1769612,5.03267974 33.4506125,5.33333333 33.7112327,5.63398693 L30.4795413,5.96078431 C31.2353401,5.33333333 32.0172009,4.54901961 32.7078447,3.73856209 L31.8087047,3.32026144 C31.0529059,4.36601307 29.9322387,5.41176471 29.5934324,5.67320261 C29.254626,5.94771242 28.9940057,6.14379085 28.7594475,6.16993464 C28.8767266,6.40522876 28.9940057,6.87581699 29.0461298,7.05882353 C29.280688,6.95424837 29.6064634,6.88888889 31.3526192,6.66666667 C30.5186343,7.7124183 29.1503779,8.61437908 27.5866562,9.21568627 C27.7821214,9.37254902 28.0818348,9.7124183 28.2121449,9.92156863 C28.8246026,9.66013072 29.3979672,9.37254902 29.9322387,9.03267974 L29.9322387,10.3137255 C29.9322387,10.8627451 29.6064634,11.1503268 29.3979672,11.2679739 C29.5413083,11.4379085 29.7498045,11.7908497 29.8149596,12 C30.0625489,11.8300654 30.4404483,11.6862745 33.1248371,10.9673203 C33.0987751,10.7581699 33.0727131,10.4183007 33.0727131,10.1568627 L30.8053167,10.7189542 L30.8053167,8.41830065 C31.3526192,7.97385621 31.8217357,7.49019608 32.2256972,6.94117647 C33.03362,9.16339869 34.4279385,10.875817 36.4086526,11.7385621 C36.5519937,11.4771242 36.838676,11.1372549 37.0341413,10.9411765 C36.0959083,10.5882353 35.2749544,10.0130719 34.5973417,9.28104575 C35.2358614,8.88888889 36.0046912,8.33986928 36.6041178,7.83006536 L35.835288,7.29411765 Z"></path>
                <path d="M42.9502215,7.96078431 L41.4386239,8.22222222 L41.4386239,6.47058824 L42.7417253,6.47058824 L42.7417253,5.58169935 L41.4386239,5.58169935 L41.4386239,3.58169935 L40.578577,3.58169935 L40.578577,5.58169935 L39.4318478,5.58169935 C39.7836852,4.69281046 40.1485536,3.63398693 40.4352359,2.53594771 L42.7677873,2.53594771 L42.7677873,1.60784314 L40.6828251,1.60784314 C40.7870732,1.16339869 40.8913213,0.692810458 40.9695074,0.248366013 L40.0573365,0.0653594771 C39.9921814,0.588235294 39.9009643,1.09803922 39.7836852,1.60784314 L38.1939015,1.60784314 L38.1939015,2.53594771 L39.58822,2.53594771 C39.3145687,3.58169935 39.0409174,4.44444444 38.9106072,4.77124183 C38.702111,5.34640523 38.5196768,5.76470588 38.3111806,5.83006536 C38.4284597,6.03921569 38.5457389,6.47058824 38.5978629,6.65359477 C38.702111,6.54901961 39.0930414,6.47058824 39.5230649,6.47058824 L40.578577,6.47058824 L40.578577,8.37908497 C39.627313,8.53594771 38.7672661,8.67973856 38.0896534,8.78431373 L38.3111806,9.73856209 C38.9757623,9.60784314 39.7445921,9.45098039 40.578577,9.28104575 L40.578577,11.9346405 L41.4386239,11.9346405 L41.4386239,9.11111111 L43.0153766,8.78431373 L42.9502215,7.96078431 Z M45.8691686,10.7712418 C45.256711,10.7712418 45.1394318,10.6797386 45.1394318,10.2091503 L45.1394318,8.39215686 C46.2861611,7.81699346 47.7456346,6.96732026 48.8141777,6.22222222 L48.149596,5.41176471 C47.3677352,6.03921569 46.181913,6.81045752 45.1394318,7.38562092 L45.1394318,4.83660131 L44.1881678,4.83660131 L44.1881678,10.2091503 C44.1881678,11.3333333 44.5139432,11.6470588 45.7779515,11.6470588 L48.0192859,11.6470588 C49.1269221,11.6470588 49.4136044,11.1503268 49.5178525,9.34640523 C49.2572322,9.29411765 48.8663018,9.1372549 48.6447746,8.98039216 C48.5926505,10.4836601 48.4884024,10.7712418 47.9541308,10.7712418 L45.8691686,10.7712418 Z M45.9082617,0.0392156863 C45.3479281,1.58169935 44.2011989,3.49019608 42.41595,4.83660131 C42.6374772,4.98039216 42.9371905,5.32026144 43.0935627,5.54248366 C44.4878812,4.40522876 45.5173312,3.03267974 46.247068,1.64705882 C47.0810529,3.12418301 48.2538441,4.5751634 49.3093563,5.4379085 C49.4787594,5.20261438 49.7784728,4.8627451 50,4.69281046 C48.8141777,3.84313725 47.4719833,2.20915033 46.7292155,0.666666667 C46.7943706,0.522875817 46.8595257,0.366013072 46.9116497,0.209150327 L45.9082617,0.0392156863 Z"></path>
            </g>
        </g>
    </g>
</svg>