<?xml version="1.0" encoding="UTF-8"?>
<svg width="68px" height="24px" viewBox="0 0 68 24" version="1.1" xmlns="http://www.w3.org/2000/svg" xmlns:xlink="http://www.w3.org/1999/xlink">
    <title>双击左键</title>
    <g id="页面-1" stroke="none" stroke-width="1" fill="none" fill-rule="evenodd" fill-opacity="0.85">
        <g id="双击左键" fill="#FFFFFF" fill-rule="nonzero">
            <path d="M64,0 C66.209139,0 68,1.790861 68,4 L68,20 C68,22.209139 66.209139,24 64,24 L4,24 C1.790861,24 0,22.209139 0,20 L0,4 C0,1.790861 1.790861,0 4,0 L64,0 Z M64,1 L4,1 C2.40231912,1 1.09633912,2.24891996 1.00509269,3.82372721 L1,4 L1,20 C1,21.5976809 2.24891996,22.9036609 3.82372721,22.9949073 L4,23 L64,23 C65.5976809,23 66.9036609,21.75108 66.9949073,20.1762728 L67,20 L67,4 C67,2.40231912 65.75108,1.09633912 64.1762728,1.00509269 L64,1 Z" id="矩形"></path>
            <g transform="translate(8.000000, 6.000000)">
                <path d="M5.57426752,9.61311475 C5.23643312,8.89180328 4.69070064,8 4.05401274,7.0557377 C4.69070064,5.41639344 5.13248408,3.44918033 5.3533758,1.14098361 L4.74267516,0.970491803 L4.58675159,1.00983607 L0.376815287,1.00983607 L0.376815287,1.94098361 L4.33987261,1.94098361 C4.13197452,3.47540984 3.80713376,4.85245902 3.37834395,6.09836066 C2.6766879,5.12786885 1.92305732,4.1704918 1.20840764,3.31803279 L0.493757962,3.8557377 C1.32535032,4.83934426 2.19592357,6.03278689 2.94955414,7.17377049 C2.19592357,8.95737705 1.16942675,10.3344262 5.63184319e-14,11.2 C0.246878981,11.357377 0.545732484,11.7377049 0.701656051,11.9606557 C1.83210191,11.0557377 2.81961783,9.78360656 3.58624204,8.1442623 C4.08,8.93114754 4.49579618,9.66557377 4.75566879,10.2688525 L5.57426752,9.61311475 Z M10.3429299,1.94098361 C10.0050955,4.05245902 9.3943949,5.83606557 8.57579618,7.29180328 C7.88713376,5.7704918 7.43235669,3.94754098 7.15949045,1.94098361 L10.3429299,1.94098361 Z M10.7717197,0.970491803 L10.6028025,1.00983607 L5.91210191,1.00983607 L5.91210191,1.94098361 L6.22394904,1.94098361 C6.60076433,4.36721311 7.13350318,6.50491803 7.96509554,8.24918033 C7.06853503,9.54754098 5.96407643,10.5180328 4.7166879,11.1344262 C4.95057325,11.3180328 5.23643312,11.7114754 5.36636943,11.9606557 C6.56178344,11.2918033 7.61426752,10.4 8.49783439,9.23278689 C9.21248408,10.3868852 10.1220382,11.3180328 11.2524841,12 C11.4084076,11.7508197 11.7072611,11.3704918 11.9411465,11.1868852 C10.7587261,10.5442623 9.82318471,9.56065574 9.10853503,8.34098361 C10.2389809,6.53114754 11.0315924,4.1704918 11.395414,1.15409836 L10.7717197,0.970491803 Z" id="形状"></path>
                <polygon id="路径" points="19.5164331 6.00655738 24.6229299 6.00655738 24.6229299 5.03606557 19.5164331 5.03606557 19.5164331 2.97704918 23.7263694 2.97704918 23.7263694 2.01967213 19.5164331 2.01967213 19.5164331 0 18.5289172 0 18.5289172 2.01967213 14.3319745 2.01967213 14.3319745 2.97704918 18.5289172 2.97704918 18.5289172 5.03606557 13.3834395 5.03606557 13.3834395 6.00655738 18.5289172 6.00655738 18.5289172 10.2819672 15.4494268 10.2819672 15.4494268 7.00327869 14.4489172 7.00327869 14.4489172 11.2262295 22.543949 11.2262295 22.543949 11.9737705 23.5184713 11.9737705 23.5184713 7.00327869 22.543949 7.00327869 22.543949 10.2819672 19.5164331 10.2819672"></polygon>
                <path d="M33.7184713,10.6491803 L33.7184713,6.72786885 L37.1877707,6.72786885 L37.1877707,5.78360656 L29.8853503,5.78360656 C30.1712102,4.9704918 30.4310828,4.1442623 30.6389809,3.29180328 L37.5256051,3.29180328 L37.5256051,2.34754098 L30.8728662,2.34754098 C31.0417834,1.6 31.1717197,0.852459016 31.3016561,0.118032787 L30.3011465,0 C30.1842038,0.760655738 30.0412739,1.56065574 29.8723567,2.34754098 L26.4030573,2.34754098 L26.4030573,3.29180328 L29.651465,3.29180328 C28.9498089,6.03278689 27.8193631,8.66885246 25.9092994,10.4262295 C26.0912102,10.6098361 26.4030573,10.9770492 26.5459873,11.1868852 C28.0532484,9.7704918 29.1057325,7.90819672 29.8593631,5.84918033 L29.8593631,6.72786885 L32.7569427,6.72786885 L32.7569427,10.6491803 L28.5340127,10.6491803 L28.5340127,11.5934426 L37.7594904,11.5934426 L37.7594904,10.6491803 L33.7184713,10.6491803 Z" id="路径"></path>
                <path d="M49.5707006,1.82295082 L49.5707006,2.83278689 L48.5182166,2.83278689 L48.5182166,1.82295082 L49.5707006,1.82295082 Z M49.5707006,4.60327869 L48.5182166,4.60327869 L48.5182166,3.59344262 L49.5707006,3.59344262 L49.5707006,4.60327869 Z M47.7126115,2.83278689 L45.7115924,2.83278689 L45.7115924,3.59344262 L47.7126115,3.59344262 L47.7126115,4.60327869 L46.2183439,4.60327869 L46.2183439,5.35081967 L47.7126115,5.35081967 L47.7126115,6.32131148 L46.0884076,6.32131148 L46.0884076,7.12131148 L47.7126115,7.12131148 L47.7126115,8.1442623 L45.7375796,8.1442623 L45.7375796,8.9442623 L47.7126115,8.9442623 L47.7126115,10.5180328 L48.5182166,10.5180328 L48.5182166,8.9442623 L50.5842038,8.9442623 L50.5842038,8.1442623 L48.5182166,8.1442623 L48.5182166,7.12131148 L50.3373248,7.12131148 L50.3373248,6.32131148 L48.5182166,6.32131148 L48.5182166,5.35081967 L50.3243312,5.35081967 L50.3243312,3.59344262 L50.9090446,3.59344262 L50.9090446,2.83278689 L50.3243312,2.83278689 L50.3243312,1.07540984 L48.5182166,1.07540984 L48.5182166,0 L47.7126115,0 L47.7126115,1.07540984 L46.2183439,1.07540984 L46.2183439,1.82295082 L47.7126115,1.82295082 L47.7126115,2.83278689 Z M42.84,2.34754098 L42.84,1.49508197 L40.696051,1.49508197 C40.8519745,1.08852459 40.9819108,0.655737705 41.0728662,0.236065574 L40.306242,0.0262295082 C40.0333758,1.21967213 39.5656051,2.4 38.9678981,3.18688525 C39.110828,3.38360656 39.357707,3.80327869 39.4356688,3.98688525 C39.7735032,3.54098361 40.0983439,2.96393443 40.3582166,2.34754098 L42.84,2.34754098 Z M41.4626752,10.0459016 L41.4626752,7.30491803 L42.8659873,7.30491803 L42.8659873,6.45245902 L41.4626752,6.45245902 L41.4626752,4.64262295 L42.5281529,4.64262295 L42.5281529,3.80327869 L39.7215287,3.80327869 L39.7215287,4.64262295 L40.6440764,4.64262295 L40.6440764,6.45245902 L39.1757962,6.45245902 L39.1757962,7.30491803 L40.6440764,7.30491803 L40.6440764,9.96721311 C40.6440764,10.5967213 40.2672611,11.0163934 40.0463694,11.1868852 C40.202293,11.3311475 40.4231847,11.6327869 40.5141401,11.8163934 L40.5141401,11.7770492 L40.5271338,11.8163934 C40.7090446,11.5672131 41.0338854,11.3442623 43.0349045,9.92786885 C42.943949,9.75737705 42.8140127,9.4295082 42.7490446,9.19344262 L41.4626752,10.0459016 Z M45.3217834,4.73442623 L45.1788535,4.76065574 L44.2952866,4.76065574 C44.7500637,3.63278689 45.3087898,2.15081967 45.724586,0.944262295 L43.1388535,0.944262295 L43.1388535,1.7704918 L44.5941401,1.7704918 C44.1393631,3.06885246 43.5546497,4.55081967 43.1258599,5.53442623 L44.9579618,5.53442623 C44.8280255,6.64918033 44.6461146,7.60655738 44.3732484,8.41967213 C44.1263694,7.96065574 43.9444586,7.40983607 43.7755414,6.76721311 L43.0478981,7.0295082 C43.3077707,7.98688525 43.6196178,8.76065574 43.9964331,9.39016393 C43.5806369,10.242623 43.0608917,10.8983607 42.4242038,11.3836066 C42.6191083,11.4885246 42.9179618,11.7770492 43.0478981,11.947541 C43.6196178,11.5016393 44.1133758,10.8983607 44.529172,10.1114754 C45.6856051,11.4885246 47.2448408,11.8163934 49.0119745,11.8163934 L50.6881529,11.8163934 C50.7271338,11.5672131 50.8700637,11.1737705 51,10.9639344 C50.5712102,10.9770492 49.3757962,10.9770492 49.063949,10.9770492 C47.4657325,10.9770492 45.971465,10.6754098 44.8929936,9.2852459 C45.3607643,8.13114754 45.6596178,6.66229508 45.8155414,4.85245902 L45.3217834,4.73442623 Z" id="形状"></path>
            </g>
        </g>
    </g>
</svg>