<?xml version="1.0" encoding="UTF-8"?>
<svg width="68px" height="24px" viewBox="0 0 68 24" version="1.1" xmlns="http://www.w3.org/2000/svg" xmlns:xlink="http://www.w3.org/1999/xlink">
    <title>单击右键</title>
    <g id="页面-1" stroke="none" stroke-width="1" fill="none" fill-rule="evenodd" fill-opacity="0.85">
        <g id="单击右键" fill="#FFFFFF" fill-rule="nonzero">
            <path d="M64,0 C66.209139,0 68,1.790861 68,4 L68,20 C68,22.209139 66.209139,24 64,24 L4,24 C1.790861,24 0,22.209139 0,20 L0,4 C0,1.790861 1.790861,0 4,0 L64,0 Z M64,1 L4,1 C2.40231912,1 1.09633912,2.24891996 1.00509269,3.82372721 L1,4 L1,20 C1,21.5976809 2.24891996,22.9036609 3.82372721,22.9949073 L4,23 L64,23 C65.5976809,23 66.9036609,21.75108 66.9949073,20.1762728 L67,20 L67,4 C67,2.40231912 65.75108,1.09633912 64.1762728,1.00509269 L64,1 Z" id="矩形备份-13"></path>
            <g transform="translate(8.000000, 6.000000)">
                <path d="M2.17993345,6.66229508 L2.17993345,5.25901639 L5.26055797,5.25901639 L5.26055797,6.66229508 L2.17993345,6.66229508 Z M2.17993345,3.09508197 L5.26055797,3.09508197 L5.26055797,4.47213115 L2.17993345,4.47213115 L2.17993345,3.09508197 Z M9.47683645,4.47213115 L6.23957,4.47213115 L6.23957,3.09508197 L9.47683645,3.09508197 L9.47683645,4.47213115 Z M9.47683645,6.66229508 L6.23957,6.66229508 L6.23957,5.25901639 L9.47683645,5.25901639 L9.47683645,6.66229508 Z M11.5784489,8.73442623 L6.23957,8.73442623 L6.23957,7.48852459 L10.4558485,7.48852459 L10.4558485,2.26885246 L8.27591502,2.26885246 C8.68057333,1.71803279 9.1504991,1.03606557 9.52905042,0.419672131 L8.49782442,0.0655737705 C8.18454057,0.721311475 7.64934733,1.63934426 7.19247504,2.26885246 L4.04658306,2.26885246 L4.5817763,1.99344262 C4.32070642,1.4557377 3.72024571,0.655737705 3.17199898,0.0655737705 L2.36268236,0.459016393 C2.83260814,0.996721311 3.34169439,1.7442623 3.62887126,2.26885246 L1.22702841,2.26885246 L1.22702841,7.48852459 L5.26055797,7.48852459 L5.26055797,8.73442623 L0,8.73442623 L0,9.63934426 L5.26055797,9.63934426 L5.26055797,11.9737705 L6.23957,11.9737705 L6.23957,9.63934426 L11.5784489,9.63934426 L11.5784489,8.73442623 Z" id="形状"></path>
                <polygon id="路径" points="19.3713847 6.01967213 24.5014077 6.01967213 24.5014077 5.04918033 19.3713847 5.04918033 19.3713847 2.99016393 23.6007167 2.99016393 23.6007167 2.03278689 19.3713847 2.03278689 19.3713847 0.0131147541 18.3793192 0.0131147541 18.3793192 2.03278689 14.1630407 2.03278689 14.1630407 2.99016393 18.3793192 2.99016393 18.3793192 5.04918033 13.2101357 5.04918033 13.2101357 6.01967213 18.3793192 6.01967213 18.3793192 10.295082 15.2856412 10.295082 15.2856412 7.01639344 14.2805221 7.01639344 14.2805221 11.2393443 22.4128487 11.2393443 22.4128487 11.9868852 23.3918608 11.9868852 23.3918608 7.01639344 22.4128487 7.01639344 22.4128487 10.295082 19.3713847 10.295082"></polygon>
                <path d="M35.6229844,6.85901639 L35.6229844,10.3213115 L29.8402867,10.3213115 L29.8402867,6.85901639 L35.6229844,6.85901639 Z M37.567955,3.38360656 L37.567955,2.43934426 L31.1325825,2.43934426 C31.3805989,1.69180328 31.5764013,0.944262295 31.7591502,0.183606557 L30.7540312,0 C30.5843358,0.813114754 30.3624264,1.62622951 30.1013565,2.43934426 L26.2505759,2.43934426 L26.2505759,3.38360656 L29.7489122,3.38360656 C28.9265421,5.48196721 27.6734067,7.38360656 25.8328641,8.64262295 C26.0286665,8.83934426 26.3288969,9.19344262 26.4724853,9.41639344 C27.4123368,8.73442623 28.2085999,7.90819672 28.8873816,7.00327869 L28.8873816,12 L29.8402867,12 L29.8402867,11.252459 L35.6229844,11.252459 L35.6229844,11.9344262 L36.6150499,11.9344262 L36.6150499,5.92786885 L29.5922703,5.92786885 C30.0621961,5.12786885 30.4538009,4.27540984 30.7931917,3.38360656 L37.567955,3.38360656 Z" id="形状"></path>
                <path d="M49.5641157,1.83606557 L49.5641157,2.84590164 L48.5067827,2.84590164 L48.5067827,1.83606557 L49.5641157,1.83606557 Z M49.5641157,4.61639344 L48.5067827,4.61639344 L48.5067827,3.60655738 L49.5641157,3.60655738 L49.5641157,4.61639344 Z M47.6974661,2.84590164 L45.6872281,2.84590164 L45.6872281,3.60655738 L47.6974661,3.60655738 L47.6974661,4.61639344 L46.1963143,4.61639344 L46.1963143,5.36393443 L47.6974661,5.36393443 L47.6974661,6.33442623 L46.0657794,6.33442623 L46.0657794,7.13442623 L47.6974661,7.13442623 L47.6974661,8.15737705 L45.713335,8.15737705 L45.713335,8.95737705 L47.6974661,8.95737705 L47.6974661,10.5311475 L48.5067827,10.5311475 L48.5067827,8.95737705 L50.5822882,8.95737705 L50.5822882,8.15737705 L48.5067827,8.15737705 L48.5067827,7.13442623 L50.3342718,7.13442623 L50.3342718,6.33442623 L48.5067827,6.33442623 L48.5067827,5.36393443 L50.3212183,5.36393443 L50.3212183,3.60655738 L50.9086255,3.60655738 L50.9086255,2.84590164 L50.3212183,2.84590164 L50.3212183,1.08852459 L48.5067827,1.08852459 L48.5067827,0.0131147541 L47.6974661,0.0131147541 L47.6974661,1.08852459 L46.1963143,1.08852459 L46.1963143,1.83606557 L47.6974661,1.83606557 L47.6974661,2.84590164 Z M42.8024059,2.36065574 L42.8024059,1.50819672 L40.6485795,1.50819672 C40.8052214,1.10163934 40.9357563,0.668852459 41.0271308,0.249180328 L40.2569747,0.0393442623 C39.9828513,1.23278689 39.5129255,2.41311475 38.9124648,3.2 C39.0560532,3.39672131 39.3040696,3.81639344 39.3823906,4 C39.7217814,3.55409836 40.0481188,2.97704918 40.3091886,2.36065574 L42.8024059,2.36065574 Z M41.4187356,10.0590164 L41.4187356,7.31803279 L42.8285129,7.31803279 L42.8285129,6.46557377 L41.4187356,6.46557377 L41.4187356,4.6557377 L42.4891221,4.6557377 L42.4891221,3.81639344 L39.6695674,3.81639344 L39.6695674,4.6557377 L40.5963655,4.6557377 L40.5963655,6.46557377 L39.1213207,6.46557377 L39.1213207,7.31803279 L40.5963655,7.31803279 L40.5963655,9.98032787 C40.5963655,10.6098361 40.2178142,11.0295082 39.9959048,11.2 C40.1525467,11.3442623 40.3744561,11.6459016 40.4658306,11.8295082 L40.4658306,11.7901639 L40.4788841,11.8295082 C40.661633,11.5803279 40.9879703,11.357377 42.9982083,9.94098361 C42.9068339,9.7704918 42.776299,9.44262295 42.7110315,9.20655738 L41.4187356,10.0590164 Z M45.2956232,4.74754098 L45.1520348,4.77377049 L44.2643972,4.77377049 C44.7212695,3.64590164 45.2825697,2.16393443 45.7002815,0.957377049 L43.1026363,0.957377049 L43.1026363,1.78360656 L44.5646276,1.78360656 C44.1077553,3.08196721 43.5203481,4.56393443 43.0895828,5.54754098 L44.9301254,5.54754098 C44.7995905,6.66229508 44.6168416,7.61967213 44.3427182,8.43278689 C44.0947018,7.97377049 43.9119529,7.42295082 43.7422575,6.78032787 L43.0112618,7.04262295 C43.2723317,8 43.5856156,8.77377049 43.9641669,9.40327869 C43.5464551,10.2557377 43.0243153,10.9114754 42.3846941,11.3967213 C42.5804965,11.5016393 42.8807269,11.7901639 43.0112618,11.9606557 C43.5856156,11.5147541 44.0816483,10.9114754 44.4993601,10.1245902 C45.6611211,11.5016393 47.2275403,11.8295082 49.0028155,11.8295082 L50.6867162,11.8295082 C50.7258766,11.5803279 50.8694651,11.1868852 51,10.9770492 C50.5692347,10.9901639 49.3683133,10.9901639 49.0550294,10.9901639 C47.4494497,10.9901639 45.9482979,10.6885246 44.8648579,9.29836066 C45.3347837,8.1442623 45.6350141,6.67540984 45.791656,4.86557377 L45.2956232,4.74754098 Z" id="形状"></path>
            </g>
        </g>
    </g>
</svg>