<svg xmlns="http://www.w3.org/2000/svg" xmlns:xlink="http://www.w3.org/1999/xlink" viewBox="0 0 200 120">
  <defs>
    <rect id="提取第一步-b" width="200" height="120" rx="4"/>
    <filter id="提取第一步-a" height="133.3%" y="-13.3%" filterUnits="objectBoundingBox">
      <feOffset dy="4" in="SourceAlpha" result="shadowOffsetOuter1"/>
      <feGaussianBlur in="shadowOffsetOuter1" result="shadowBlurOuter1" stdDeviation="6"/>
      <feColorMatrix in="shadowBlurOuter1" values="0 0 0 0 0   0 0 0 0 0   0 0 0 0 0  0 0 0 0.16 0"/>
    </filter>
    <rect id="提取第一步-d" width="52" height="24" x="24" y="76" rx="2"/>
    <filter id="提取第一步-c" width="119.2%" height="141.7%" x="-9.6%" y="-16.7%" filterUnits="objectBoundingBox">
      <feOffset dy="1" in="SourceAlpha" result="shadowOffsetOuter1"/>
      <feGaussianBlur in="shadowOffsetOuter1" result="shadowBlurOuter1" stdDeviation="1.5"/>
      <feColorMatrix in="shadowBlurOuter1" values="0 0 0 0 0.0666666667   0 0 0 0 0.541176471   0 0 0 0 0.780392157  0 0 0 0.2 0"/>
    </filter>
    <rect id="提取第一步-f" width="52" height="24" x="124" y="76" rx="2"/>
    <filter id="提取第一步-e" width="119.2%" height="141.7%" x="-9.6%" y="-16.7%" filterUnits="objectBoundingBox">
      <feOffset dy="1" in="SourceAlpha" result="shadowOffsetOuter1"/>
      <feGaussianBlur in="shadowOffsetOuter1" result="shadowBlurOuter1" stdDeviation="1.5"/>
      <feColorMatrix in="shadowBlurOuter1" values="0 0 0 0 0.0666666667   0 0 0 0 0.541176471   0 0 0 0 0.780392157  0 0 0 0.2 0"/>
    </filter>
    <rect id="提取第一步-h" width="32" height="24" x="132" y="20" rx="2"/>
    <filter id="提取第一步-g" width="131.2%" height="141.7%" x="-15.6%" y="-16.7%" filterUnits="objectBoundingBox">
      <feOffset dy="1" in="SourceAlpha" result="shadowOffsetOuter1"/>
      <feGaussianBlur in="shadowOffsetOuter1" result="shadowBlurOuter1" stdDeviation="1.5"/>
      <feColorMatrix in="shadowBlurOuter1" values="0 0 0 0 0.0666666667   0 0 0 0 0.541176471   0 0 0 0 0.780392157  0 0 0 0.2 0"/>
    </filter>
  </defs>
  <g fill="none" fill-rule="evenodd">
    <g fill-rule="nonzero">
      <use fill="#000" filter="url(#提取第一步-a)" xlink:href="#提取第一步-b"/>
      <use fill="#FFF" xlink:href="#提取第一步-b"/>
    </g>
    <g fill-rule="nonzero">
      <use fill="#000" filter="url(#提取第一步-c)" xlink:href="#提取第一步-d"/>
      <use fill="#238DE1" xlink:href="#提取第一步-d"/>
    </g>
    <g fill-rule="nonzero">
      <use fill="#000" filter="url(#提取第一步-e)" xlink:href="#提取第一步-f"/>
      <use fill="#238DE1" xlink:href="#提取第一步-f"/>
    </g>
    <rect width="40" height="24" x="80" y="76" fill="#000" fill-opacity=".06" fill-rule="nonzero" rx="2"/>
    <rect width="80" height="24" x="24" y="48" fill="#000" fill-opacity=".06" fill-rule="nonzero" rx="2"/>
    <rect width="68" height="24" x="24" y="20" fill="#000" fill-opacity=".06" fill-rule="nonzero" rx="2"/>
    <rect width="32" height="24" x="108" y="48" fill="#000" fill-opacity=".06" fill-rule="nonzero" rx="2"/>
    <rect width="32" height="24" x="96" y="20" fill="#000" fill-opacity=".06" fill-rule="nonzero" rx="2"/>
    <rect width="8" height="24" x="168" y="20" fill="#000" fill-opacity=".06" fill-rule="nonzero" rx="2"/>
    <rect width="32" height="24" x="144" y="48" fill="#000" fill-opacity=".06" fill-rule="nonzero" rx="2"/>
    <g fill-rule="nonzero">
      <use fill="#000" filter="url(#提取第一步-g)" xlink:href="#提取第一步-h"/>
      <use fill="#238DE1" xlink:href="#提取第一步-h"/>
    </g>
    <path fill="#FFF" d="M46.808 86.156C46.7439997 85.9079988 46.6560006 85.680001 46.544 85.472 46.4319994 85.263999 46.2880009 85.0840008 46.112 84.932 45.9359991 84.7799992 45.7300012 84.6620004 45.494 84.578 45.2579988 84.4939996 44.9840016 84.452 44.672 84.452 44.2159977 84.452 43.8220017 84.5439991 43.49 84.728 43.1579983 84.9120009 42.888001 85.1579985 42.68 85.466 42.471999 85.7740015 42.3180005 86.123998 42.218 86.516 42.1179995 86.908002 42.068 87.307998 42.068 87.716 42.068 88.124002 42.1179995 88.523998 42.218 88.916 42.3180005 89.308002 42.471999 89.6579985 42.68 89.966 42.888001 90.2740015 43.1579983 90.5199991 43.49 90.704 43.8220017 90.8880009 44.2159977 90.98 44.672 90.98 45.0080017 90.98 45.3039987 90.9220006 45.56 90.806 45.8160013 90.6899994 46.0359991 90.530001 46.22 90.326 46.4040009 90.121999 46.5479995 89.8840014 46.652 89.612 46.7560005 89.3399986 46.8239998 89.0480016 46.856 88.736L48.32 88.736C48.2879998 89.2480026 48.1780009 89.7159979 47.99 90.14 47.8019991 90.5640021 47.5480016 90.9299985 47.228 91.238 46.9079984 91.5460015 46.5320022 91.7839992 46.1 91.952 45.6679978 92.1200008 45.1920026 92.204 44.672 92.204 44.0319968 92.204 43.4580025 92.0860012 42.95 91.85 42.4419975 91.6139988 42.0120018 91.292002 41.66 90.884 41.3079982 90.475998 41.0380009 90.0000027 40.85 89.456 40.6619991 88.9119973 40.568 88.3320031 40.568 87.716 40.568 87.107997 40.6619991 86.5320027 40.85 85.988 41.0380009 85.4439973 41.3079982 84.968002 41.66 84.56 42.0120018 84.151998 42.4419975 83.8280012 42.95 83.588 43.4580025 83.3479988 44.0319968 83.228 44.672 83.228 45.1520024 83.228 45.6039979 83.2939993 46.028 83.426 46.4520021 83.5580007 46.8259984 83.7499987 47.15 84.002 47.4740016 84.2540013 47.735999 84.5599982 47.936 84.92 48.136001 85.2800018 48.2599998 85.6919977 48.308 86.156L46.808 86.156zM48.872 85.796L49.904 85.796 49.904 83.936 51.272 83.936 51.272 85.796 52.508 85.796 52.508 86.816 51.272 86.816 51.272 90.128C51.272 90.2720007 51.2779999 90.3959995 51.29 90.5 51.3020001 90.6040005 51.3299998 90.6919996 51.374 90.764 51.4180002 90.8360004 51.4839996 90.8899998 51.572 90.926 51.6600004 90.9620002 51.7799992 90.98 51.932 90.98 52.0280005 90.98 52.1239995 90.978 52.22 90.974 52.3160005 90.97 52.4119995 90.9560001 52.508 90.932L52.508 91.988C52.3559992 92.0040001 52.2080007 92.0199999 52.064 92.036 51.9199993 92.0520001 51.7720008 92.06 51.62 92.06 51.2599982 92.06 50.9700011 92.0260003 50.75 91.958 50.5299989 91.8899997 50.3580006 91.7900007 50.234 91.658 50.1099994 91.5259993 50.0260002 91.360001 49.982 91.16 49.9379998 90.959999 49.912 90.7320013 49.904 90.476L49.904 86.816 48.872 86.816 48.872 85.796zM53.492 85.796L54.776 85.796 54.776 86.996 54.8 86.996C54.8400002 86.8279992 54.9179994 86.6640008 55.034 86.504 55.1500006 86.3439992 55.2899992 86.1980007 55.454 86.066 55.6180008 85.9339993 55.799999 85.8280004 56 85.748 56.200001 85.6679996 56.403999 85.628 56.612 85.628 56.7720008 85.628 56.8819997 85.632 56.942 85.64 57.0020003 85.648 57.0639997 85.656 57.128 85.664L57.128 86.984C57.0319995 86.9679999 56.9340005 86.9540001 56.834 86.942 56.7339995 86.9299999 56.6360005 86.924 56.54 86.924 56.3079988 86.924 56.090001 86.9699995 55.886 87.062 55.681999 87.1540005 55.5040008 87.2899991 55.352 87.47 55.1999992 87.6500009 55.0800004 87.8719987 54.992 88.136 54.9039996 88.4000013 54.86 88.7039983 54.86 89.048L54.86 92 53.492 92 53.492 85.796zM57.752 83.432L59.12 83.432 59.12 92 57.752 92 57.752 83.432zM145.758 83.432L147.354 83.432 150.654 92 149.046 92 148.242 89.732 144.822 89.732 144.018 92 142.47 92 145.758 83.432zM145.23 88.592L147.846 88.592 146.562 84.908 146.526 84.908 145.23 88.592zM151.314 83.432L152.682 83.432 152.682 92 151.314 92 151.314 83.432zM153.546 85.796L154.578 85.796 154.578 83.936 155.946 83.936 155.946 85.796 157.182 85.796 157.182 86.816 155.946 86.816 155.946 90.128C155.946 90.2720007 155.952 90.3959995 155.964 90.5 155.976 90.6040005 156.004 90.6919996 156.048 90.764 156.092 90.8360004 156.158 90.8899998 156.246 90.926 156.334 90.9620002 156.453999 90.98 156.606 90.98 156.702 90.98 156.798 90.978 156.894 90.974 156.99 90.97 157.086 90.9560001 157.182 90.932L157.182 91.988C157.029999 92.0040001 156.882001 92.0199999 156.738 92.036 156.593999 92.0520001 156.446001 92.06 156.294 92.06 155.933998 92.06 155.644001 92.0260003 155.424 91.958 155.203999 91.8899997 155.032001 91.7900007 154.908 91.658 154.783999 91.5259993 154.7 91.360001 154.656 91.16 154.612 90.959999 154.586 90.7320013 154.578 90.476L154.578 86.816 153.546 86.816 153.546 85.796zM146.008 33.144C146.008 33.4720016 146.063999 33.7519988 146.176 33.984 146.288001 34.2160012 146.443999 34.4059993 146.644 34.554 146.844001 34.7020007 147.073999 34.8099997 147.334 34.878 147.594001 34.9460003 147.875998 34.98 148.18 34.98 148.508002 34.98 148.787999 34.9420004 149.02 34.866 149.252001 34.7899996 149.439999 34.6920006 149.584 34.572 149.728001 34.4519994 149.832 34.3140008 149.896 34.158 149.96 34.0019992 149.992 33.8440008 149.992 33.684 149.992 33.3559984 149.918001 33.1140008 149.77 32.958 149.621999 32.8019992 149.460001 32.6920003 149.284 32.628 148.979998 32.5159994 148.626002 32.4100005 148.222 32.31 147.817998 32.2099995 147.320003 32.0800008 146.728 31.92 146.359998 31.8239995 146.054001 31.6980008 145.81 31.542 145.565999 31.3859992 145.372001 31.212001 145.228 31.02 145.083999 30.827999 144.982 30.6240011 144.922 30.408 144.862 30.1919989 144.832 29.9720011 144.832 29.748 144.832 29.3159978 144.921999 28.9420016 145.102 28.626 145.282001 28.3099984 145.519999 28.048001 145.816 27.84 146.112001 27.631999 146.447998 27.4780005 146.824 27.378 147.200002 27.2779995 147.579998 27.228 147.964 27.228 148.412002 27.228 148.833998 27.2859994 149.23 27.402 149.626002 27.5180006 149.973998 27.6919988 150.274 27.924 150.574002 28.1560012 150.811999 28.4419983 150.988 28.782 151.164001 29.1220017 151.252 29.5159978 151.252 29.964L149.752 29.964C149.712 29.4119972 149.524002 29.0220011 149.188 28.794 148.851998 28.5659989 148.424003 28.452 147.904 28.452 147.727999 28.452 147.548001 28.4699998 147.364 28.506 147.179999 28.5420002 147.012001 28.6019996 146.86 28.686 146.707999 28.7700004 146.582 28.8839993 146.482 29.028 146.382 29.1720007 146.332 29.3519989 146.332 29.568 146.332 29.8720015 146.425999 30.1099991 146.614 30.282 146.802001 30.4540009 147.047998 30.5839996 147.352 30.672 147.384 30.68 147.509999 30.7139997 147.73 30.774 147.950001 30.8340003 148.195999 30.8999996 148.468 30.972 148.740001 31.0440004 149.005999 31.1139997 149.266 31.182 149.526001 31.2500003 149.711999 31.2999998 149.824 31.332 150.104001 31.4200004 150.347999 31.5399992 150.556 31.692 150.764001 31.8440008 150.937999 32.017999 151.078 32.214 151.218001 32.410001 151.322 32.6199989 151.39 32.844 151.458 33.0680011 151.492 33.2919989 151.492 33.516 151.492 33.9960024 151.394001 34.4059983 151.198 34.746 151.001999 35.0860017 150.744002 35.3639989 150.424 35.58 150.103998 35.7960011 149.740002 35.9539995 149.332 36.054 148.923998 36.1540005 148.508002 36.204 148.084 36.204 147.595998 36.204 147.136002 36.1440006 146.704 36.024 146.271998 35.9039994 145.896002 35.7200012 145.576 35.472 145.255998 35.2239988 145.000001 34.9060019 144.808 34.518 144.615999 34.1299981 144.516 33.6720026 144.508 33.144L146.008 33.144z"/>
  </g>
</svg>
