<svg xmlns="http://www.w3.org/2000/svg" xmlns:xlink="http://www.w3.org/1999/xlink" viewBox="0 0 200 120">
  <defs>
    <rect id="提取第三步-b" width="200" height="120" rx="4"/>
    <filter id="提取第三步-a" height="133.3%" y="-13.3%" filterUnits="objectBoundingBox">
      <feOffset dy="4" in="SourceAlpha" result="shadowOffsetOuter1"/>
      <feGaussianBlur in="shadowOffsetOuter1" result="shadowBlurOuter1" stdDeviation="6"/>
      <feColorMatrix in="shadowBlurOuter1" values="0 0 0 0 0   0 0 0 0 0   0 0 0 0 0  0 0 0 0.16 0"/>
    </filter>
    <rect id="提取第三步-d" width="58" height="21" x="118" y="79" rx="2"/>
    <filter id="提取第三步-c" width="117.2%" height="147.6%" x="-8.6%" y="-19%" filterUnits="objectBoundingBox">
      <feOffset dy="1" in="SourceAlpha" result="shadowOffsetOuter1"/>
      <feGaussianBlur in="shadowOffsetOuter1" result="shadowBlurOuter1" stdDeviation="1.5"/>
      <feColorMatrix in="shadowBlurOuter1" values="0 0 0 0 0.0666666667   0 0 0 0 0.541176471   0 0 0 0 0.780392157  0 0 0 0.2 0"/>
    </filter>
  </defs>
  <g fill="none" fill-rule="evenodd">
    <g fill-rule="nonzero">
      <use fill="#000" filter="url(#提取第三步-a)" xlink:href="#提取第三步-b"/>
      <use fill="#FFF" xlink:href="#提取第三步-b"/>
    </g>
    <rect width="152" height="40" x="24" y="33" fill="#F2F2F2" fill-rule="nonzero" stroke="#E5E5E5" rx="4"/>
    <rect width="121" height="4" x="47" y="41" fill="#000" fill-opacity=".1" fill-rule="nonzero" rx="2"/>
    <rect width="136" height="4" x="32" y="50" fill="#000" fill-opacity=".1" fill-rule="nonzero" rx="2"/>
    <rect width="102" height="4" x="32" y="59" fill="#000" fill-opacity=".1" fill-rule="nonzero" rx="2"/>
    <g fill-rule="nonzero">
      <use fill="#000" filter="url(#提取第三步-c)" xlink:href="#提取第三步-d"/>
      <use fill="#238DE1" xlink:href="#提取第三步-d"/>
    </g>
    <path fill="#FFF" d="M125.139648,86.8823242 C126.163742,86.0802369 127.012366,85.0561586 127.685547,83.8100586 L128.630859,83.8100586 C128.458984,84.1108413 128.281739,84.4008775 128.099121,84.6801758 L135.65625,84.6801758 L135.65625,85.3676758 L127.621094,85.3676758 C127.427733,85.6326511 127.227215,85.8868803 127.019531,86.1303711 L134.582031,86.1303711 L134.582031,90.0834961 L133.830078,90.0834961 L133.830078,89.8041992 L127.513672,89.8041992 L127.513672,90.190918 L126.772461,90.190918 L126.772461,86.4204102 C126.410805,86.8250346 126.031252,87.2045881 125.633789,87.559082 C125.512044,87.3513987 125.347332,87.125815 125.139648,86.8823242 Z M125.139648,92.5004883 C126.457363,91.8559538 127.517249,91.0431364 128.319336,90.0620117 L129.275391,90.0620117 C129.117838,90.2625336 128.956707,90.455891 128.791992,90.6420898 L134.603516,90.6420898 L134.603516,91.222168 C133.908851,91.8416372 133.020839,92.3948543 131.939453,92.8818359 C133.060227,93.1754572 134.36718,93.3777664 135.860352,93.4887695 C135.666991,93.8110368 135.498699,94.1046536 135.355469,94.3696289 C133.611645,94.1261381 132.116705,93.7698591 130.870605,93.3007812 C129.59586,93.7447939 128.054371,94.1440412 126.246094,94.4985352 C126.110025,94.2622058 125.945313,94.0187187 125.751953,93.7680664 C127.528004,93.4744451 128.913732,93.184409 129.90918,92.8979492 C129.103512,92.5112285 128.428551,92.0654322 127.884277,91.5605469 C127.203935,92.1728546 126.464522,92.6831034 125.666016,93.0913086 C125.508463,92.8836253 125.333009,92.6866871 125.139648,92.5004883 Z M127.513672,89.1381836 L133.830078,89.1381836 L133.830078,88.2788086 L127.513672,88.2788086 L127.513672,89.1381836 Z M133.830078,86.7963867 L127.513672,86.7963867 L127.513672,87.6450195 L133.830078,87.6450195 L133.830078,86.7963867 Z M133.368164,91.2651367 L128.480469,91.2651367 C129.107099,91.7879258 129.910965,92.2211897 130.89209,92.5649414 C131.887538,92.1782207 132.712887,91.7449568 133.368164,91.2651367 Z M139.276367,83.949707 L140.114258,83.949707 L140.114258,85.5932617 L142.445312,85.5932617 L142.445312,86.3452148 L140.114258,86.3452148 L140.114258,87.784668 L142.917969,87.784668 L142.917969,88.5366211 L140.114258,88.5366211 L140.114258,89.7397461 L142.466797,89.7397461 L142.466797,92.2963867 C142.466797,93.0698281 142.115889,93.4601237 141.414062,93.4672852 C141.192056,93.4744467 140.894859,93.4744467 140.522461,93.4672852 C140.486653,93.2381173 140.432943,92.9803074 140.361328,92.6938477 C140.712241,92.7153321 140.998697,92.7260742 141.220703,92.7260742 C141.521486,92.7260742 141.671875,92.5470396 141.671875,92.1889648 L141.671875,90.4702148 L140.114258,90.4702148 L140.114258,94.4555664 L139.276367,94.4555664 L139.276367,90.4702148 L137.793945,90.4702148 L137.793945,93.6499023 L136.999023,93.6499023 L136.999023,89.7397461 L139.276367,89.7397461 L139.276367,88.5366211 L136.193359,88.5366211 L136.193359,87.784668 L139.276367,87.784668 L139.276367,86.3452148 L137.686523,86.3452148 C137.503905,86.7570008 137.296225,87.1472963 137.063477,87.5161133 C136.827147,87.3800449 136.58366,87.2439785 136.333008,87.1079102 C136.898766,86.2556924 137.292642,85.3318735 137.514648,84.3364258 L138.30957,84.5405273 C138.216471,84.9057635 138.11084,85.2566715 137.992676,85.5932617 L139.276367,85.5932617 L139.276367,83.949707 Z M145.399414,83.9389648 L146.258789,83.9389648 L146.258789,92.7905273 C146.258789,93.7573291 145.832687,94.2407227 144.980469,94.2407227 C144.70117,94.2407227 144.221358,94.237142 143.541016,94.2299805 C143.498047,93.9506822 143.440756,93.6391619 143.369141,93.2954102 C143.970706,93.3527021 144.421873,93.3813477 144.722656,93.3813477 C145.17383,93.3813477 145.399414,93.1271184 145.399414,92.6186523 L145.399414,83.9389648 Z M144.164062,91.5874023 L143.336914,91.5874023 L143.336914,84.9702148 L144.164062,84.9702148 L144.164062,91.5874023 Z M147.333008,85.7114258 L152.489258,85.7114258 C152.127602,85.0239223 151.844728,84.5226253 151.640625,84.2075195 L152.467773,83.8208008 C152.668295,84.128745 152.969074,84.6300421 153.370117,85.324707 L152.59668,85.7114258 L157.645508,85.7114258 L157.645508,86.5063477 L155.663574,86.5063477 C155.280434,88.5509542 154.456875,90.1944925 153.192871,91.4370117 C154.14535,92.1316767 155.658193,92.7547173 157.731445,93.3061523 C157.402017,93.67855 157.151368,93.9900704 156.979492,94.2407227 C154.959951,93.542477 153.468592,92.8120155 152.505371,92.0493164 C151.538569,92.8012733 149.9935,93.5603803 147.870117,94.3266602 C147.683918,94.0760079 147.469077,93.7967138 147.225586,93.4887695 C149.273773,92.872881 150.815262,92.1871783 151.850098,91.4316406 C150.543125,90.0351493 149.712404,88.3934014 149.35791,86.5063477 L147.333008,86.5063477 L147.333008,85.7114258 Z M154.745117,86.5063477 L150.217285,86.5063477 C150.539552,88.2680752 151.309401,89.7236271 152.526855,90.8730469 C153.690598,89.7916613 154.430011,88.3361094 154.745117,86.5063477 Z M158.214844,90.2016602 L163.25293,90.2016602 L163.25293,89.5249023 L165.369141,88.1928711 L160.169922,88.1928711 L160.169922,87.4086914 L166.679688,87.4086914 L166.679688,88.2788086 L164.133789,89.9116211 L164.133789,90.2016602 L168.828125,90.2016602 L168.828125,90.996582 L164.133789,90.996582 L164.133789,92.9731445 C164.133789,93.8826543 163.679041,94.3374023 162.769531,94.3374023 C162.404295,94.3374023 161.870772,94.330241 161.168945,94.315918 C161.140299,94.0437812 161.097331,93.7250995 161.040039,93.3598633 C161.605797,93.4386397 162.107094,93.4780273 162.543945,93.4780273 C163.016604,93.4780273 163.25293,93.2237981 163.25293,92.715332 L163.25293,90.996582 L158.214844,90.996582 L158.214844,90.2016602 Z M158.623047,85.4643555 L163.564453,85.4643555 C163.299478,85.088377 162.980796,84.6765973 162.608398,84.2290039 L163.328125,83.7456055 C163.779299,84.2397486 164.151691,84.6980773 164.445312,85.1206055 L163.935059,85.4643555 L168.462891,85.4643555 L168.462891,87.6450195 L167.592773,87.6450195 L167.592773,86.2485352 L159.482422,86.2485352 L159.482422,87.6450195 L158.623047,87.6450195 L158.623047,85.4643555 Z"/>
    <rect width="28" height="8" x="34" y="20" fill="#000" fill-opacity=".06" fill-rule="nonzero" rx="2"/>
    <rect width="8" height="8" x="24" y="20" fill="#238DE1" fill-rule="nonzero" opacity=".3" rx="2"/>
  </g>
</svg>
