<svg xmlns="http://www.w3.org/2000/svg" xmlns:xlink="http://www.w3.org/1999/xlink" viewBox="0 0 200 120">
  <defs>
    <rect id="提取第二步-b" width="200" height="120" rx="4"/>
    <filter id="提取第二步-a" height="133.3%" y="-13.3%" filterUnits="objectBoundingBox">
      <feOffset dy="4" in="SourceAlpha" result="shadowOffsetOuter1"/>
      <feGaussianBlur in="shadowOffsetOuter1" result="shadowBlurOuter1" stdDeviation="6"/>
      <feColorMatrix in="shadowBlurOuter1" values="0 0 0 0 0   0 0 0 0 0   0 0 0 0 0  0 0 0 0.16 0"/>
    </filter>
    <rect id="提取第二步-d" width="58" height="21" x="118" y="79" rx="2"/>
    <filter id="提取第二步-c" width="117.2%" height="147.6%" x="-8.6%" y="-19%" filterUnits="objectBoundingBox">
      <feOffset dy="1" in="SourceAlpha" result="shadowOffsetOuter1"/>
      <feGaussianBlur in="shadowOffsetOuter1" result="shadowBlurOuter1" stdDeviation="1.5"/>
      <feColorMatrix in="shadowBlurOuter1" values="0 0 0 0 0.0666666667   0 0 0 0 0.541176471   0 0 0 0 0.780392157  0 0 0 0.2 0"/>
    </filter>
  </defs>
  <g fill="none" fill-rule="evenodd">
    <g fill-rule="nonzero">
      <use fill="#000" filter="url(#提取第二步-a)" xlink:href="#提取第二步-b"/>
      <use fill="#FFF" xlink:href="#提取第二步-b"/>
    </g>
    <rect width="117" height="6" x="49" y="32" fill="#000" fill-opacity=".1" fill-rule="nonzero" rx="2"/>
    <rect width="117" height="6" x="49" y="74" fill="#000" fill-opacity=".06" fill-rule="nonzero" rx="2"/>
    <rect width="132" height="6" x="34" y="46" fill="#000" fill-opacity=".1" fill-rule="nonzero" rx="2"/>
    <rect width="72" height="6" x="34" y="88" fill="#000" fill-opacity=".06" fill-rule="nonzero" rx="2"/>
    <rect width="72" height="6" x="34" y="60" fill="#000" fill-opacity=".1" fill-rule="nonzero" rx="2"/>
    <path fill="#FFF" fill-rule="nonzero" d="M4,0 L196,0 C198.209139,-4.05812251e-16 200,1.790861 200,4 L200,116 C200,118.209139 198.209139,120 196,120 L4,120 C1.790861,120 2.705415e-16,118.209139 0,116 L0,4 C-2.705415e-16,1.790861 1.790861,4.05812251e-16 4,0 Z M27,24 L27,72 L173,72 L173,24 L27,24 Z" opacity=".3"/>
    <g fill="#238DE1" fill-rule="nonzero" transform="translate(24 21)">
      <path d="M4,4 L4,50 L148,50 L148,4 L4,4 Z M2,2 L150,2 L150,52 L2,52 L2,2 Z"/>
      <rect width="6" height="6" rx="1"/>
      <rect width="6" height="6" x="73" rx="1"/>
      <rect width="6" height="6" y="24" rx="1"/>
      <rect width="6" height="6" y="48" rx="1"/>
      <rect width="6" height="6" x="73" y="48" rx="1"/>
      <rect width="6" height="6" x="146" rx="1"/>
      <rect width="6" height="6" x="146" y="24" rx="1"/>
      <rect width="6" height="6" x="146" y="48" rx="1"/>
    </g>
    <g fill-rule="nonzero">
      <use fill="#000" filter="url(#提取第二步-c)" xlink:href="#提取第二步-d"/>
      <use fill="#238DE1" xlink:href="#提取第二步-d"/>
    </g>
    <path fill="#FFF" d="M129.415039,84.3364258 L134.775391,84.3364258 L134.775391,88.5795898 L134.001953,88.5795898 L134.001953,88.2680664 L130.188477,88.2680664 L130.188477,88.5795898 L129.415039,88.5795898 L129.415039,84.3364258 Z M127.739258,93.9614258 C128.749028,93.1163695 129.314778,91.9060951 129.436523,90.3305664 L130.242188,90.3305664 C130.20638,90.831871 130.132976,91.3009418 130.021973,91.737793 C130.476728,92.4324579 131.069332,92.9015287 131.799805,93.1450195 L131.799805,89.9116211 L128.480469,89.9116211 L128.480469,89.2026367 L135.720703,89.2026367 L135.720703,89.9116211 L132.605469,89.9116211 L132.605469,91.1147461 L135.301758,91.1147461 L135.301758,91.8022461 L132.605469,91.8022461 L132.605469,93.3168945 C133.09245,93.3741865 134.17382,93.3706058 135.849609,93.3061523 C135.835286,93.3419598 135.75293,93.6069311 135.602539,94.1010742 C134.750321,94.1225587 133.86589,94.1118166 132.949219,94.0688477 C131.502597,94.0509439 130.439131,93.5424855 129.758789,92.543457 C129.458006,93.2918332 129.021162,93.9327773 128.448242,94.4663086 C128.233397,94.2872712 127.997072,94.1189787 127.739258,93.9614258 Z M125.139648,89.5571289 C125.597984,89.3601878 126.059894,89.1525076 126.525391,88.934082 L126.525391,86.6459961 L125.225586,86.6459961 L125.225586,85.9155273 L126.525391,85.9155273 L126.525391,83.9174805 L127.341797,83.9174805 L127.341797,85.9155273 L128.716797,85.9155273 L128.716797,86.6459961 L127.341797,86.6459961 L127.341797,88.5366211 C127.753583,88.3325185 128.165363,88.1176769 128.577148,87.8920898 C128.598633,88.1713881 128.627278,88.4578436 128.663086,88.7514648 C128.222654,88.9698904 127.782229,89.1901031 127.341797,89.4121094 L127.341797,93.1557617 C127.341797,93.8504267 127.076826,94.2263995 126.546875,94.2836914 C126.174477,94.3194989 125.755536,94.330241 125.290039,94.315918 C125.24707,94.0151352 125.200521,93.7179377 125.150391,93.4243164 C125.544273,93.4672854 125.880858,93.4887695 126.160156,93.4887695 C126.403647,93.4887695 126.525391,93.3562839 126.525391,93.0913086 L126.525391,89.8310547 C126.095701,90.053061 125.669598,90.2768543 125.24707,90.5024414 L125.139648,89.5571289 Z M130.188477,87.5805664 L134.001953,87.5805664 L134.001953,86.6352539 L130.188477,86.6352539 L130.188477,87.5805664 Z M134.001953,85.0239258 L130.188477,85.0239258 L130.188477,85.9584961 L134.001953,85.9584961 L134.001953,85.0239258 Z M136.150391,91.8989258 C136.465496,91.8595376 136.787759,91.8183596 137.117188,91.7753906 L137.117188,85.1313477 L136.311523,85.1313477 L136.311523,84.3793945 L141.575195,84.3793945 L141.575195,84.7553711 L146.269531,84.7553711 L146.269531,85.4321289 C145.854165,88.0747202 145.241866,90.0208271 144.432617,91.2705078 C145.109378,92.2265673 145.922196,92.9695612 146.871094,93.4995117 C146.670572,93.707195 146.45215,93.9721664 146.21582,94.2944336 C145.44954,93.7358371 144.694014,92.9552459 143.949219,91.9526367 C143.225908,92.9015347 142.366541,93.7250942 141.371094,94.4233398 C141.166991,94.1547838 140.984376,93.9292001 140.823242,93.746582 L140.823242,94.4125977 L140.017578,94.4125977 L140.017578,92.0869141 C138.710605,92.2910166 137.460943,92.4933258 136.268555,92.6938477 L136.150391,91.8989258 Z M141.489258,85.4858398 L141.489258,85.1313477 L140.823242,85.1313477 L140.823242,91.2382812 C141.224286,91.1738278 141.632485,91.107585 142.047852,91.0395508 C142.026367,91.333172 142.015625,91.5802399 142.015625,91.7807617 C141.611001,91.8416344 141.213544,91.9025062 140.823242,91.9633789 L140.823242,93.6928711 C141.825851,93.1056286 142.710283,92.2981822 143.476562,91.2705078 C142.64941,89.9527929 142.117677,88.0245895 141.881348,85.4858398 L141.489258,85.4858398 Z M145.463867,85.4858398 L142.660156,85.4858398 C142.828451,87.5805769 143.265296,89.2670835 143.970703,90.5454102 C144.593753,89.4962513 145.091469,87.8097447 145.463867,85.4858398 Z M140.017578,91.3618164 L140.017578,89.793457 L137.922852,89.793457 L137.922852,91.6679688 C138.592451,91.5712886 139.290686,91.4692388 140.017578,91.3618164 Z M137.922852,89.105957 L140.017578,89.105957 L140.017578,87.4624023 L137.922852,87.4624023 L137.922852,89.105957 Z M137.922852,86.7749023 L140.017578,86.7749023 L140.017578,85.1313477 L137.922852,85.1313477 L137.922852,86.7749023 Z M147.333008,85.7114258 L152.489258,85.7114258 C152.127602,85.0239223 151.844728,84.5226253 151.640625,84.2075195 L152.467773,83.8208008 C152.668295,84.128745 152.969074,84.6300421 153.370117,85.324707 L152.59668,85.7114258 L157.645508,85.7114258 L157.645508,86.5063477 L155.663574,86.5063477 C155.280434,88.5509542 154.456875,90.1944925 153.192871,91.4370117 C154.14535,92.1316767 155.658193,92.7547173 157.731445,93.3061523 C157.402017,93.67855 157.151368,93.9900704 156.979492,94.2407227 C154.959951,93.542477 153.468592,92.8120155 152.505371,92.0493164 C151.538569,92.8012733 149.9935,93.5603803 147.870117,94.3266602 C147.683918,94.0760079 147.469077,93.7967138 147.225586,93.4887695 C149.273773,92.872881 150.815262,92.1871783 151.850098,91.4316406 C150.543125,90.0351493 149.712404,88.3934014 149.35791,86.5063477 L147.333008,86.5063477 L147.333008,85.7114258 Z M154.745117,86.5063477 L150.217285,86.5063477 C150.539552,88.2680752 151.309401,89.7236271 152.526855,90.8730469 C153.690598,89.7916613 154.430011,88.3361094 154.745117,86.5063477 Z M158.214844,90.2016602 L163.25293,90.2016602 L163.25293,89.5249023 L165.369141,88.1928711 L160.169922,88.1928711 L160.169922,87.4086914 L166.679688,87.4086914 L166.679688,88.2788086 L164.133789,89.9116211 L164.133789,90.2016602 L168.828125,90.2016602 L168.828125,90.996582 L164.133789,90.996582 L164.133789,92.9731445 C164.133789,93.8826543 163.679041,94.3374023 162.769531,94.3374023 C162.404295,94.3374023 161.870772,94.330241 161.168945,94.315918 C161.140299,94.0437812 161.097331,93.7250995 161.040039,93.3598633 C161.605797,93.4386397 162.107094,93.4780273 162.543945,93.4780273 C163.016604,93.4780273 163.25293,93.2237981 163.25293,92.715332 L163.25293,90.996582 L158.214844,90.996582 L158.214844,90.2016602 Z M158.623047,85.4643555 L163.564453,85.4643555 C163.299478,85.088377 162.980796,84.6765973 162.608398,84.2290039 L163.328125,83.7456055 C163.779299,84.2397486 164.151691,84.6980773 164.445312,85.1206055 L163.935059,85.4643555 L168.462891,85.4643555 L168.462891,87.6450195 L167.592773,87.6450195 L167.592773,86.2485352 L159.482422,86.2485352 L159.482422,87.6450195 L158.623047,87.6450195 L158.623047,85.4643555 Z"/>
  </g>
</svg>
