<svg xmlns="http://www.w3.org/2000/svg" viewBox="0 0 40 40">
  <g fill="none" fill-rule="evenodd">
    <rect width="40" height="40"/>
    <path fill="#4F85FF" fill-rule="nonzero" d="M6.30000019,4 C6.85228494,4 7.30000019,4.44771525 7.30000019,5 C7.30000019,5.55228475 6.85228494,6 6.30000019,6 L2,6 C1.44771525,6 1,5.55228475 1,5 C1,4.44771525 1.44771525,4 2,4 L6.30000019,4 Z M14.6000004,4 C15.1522851,4 15.6000004,4.44771525 15.6000004,5 C15.6000004,5.55228475 15.1522851,6 14.6000004,6 L10.3000002,6 C9.74771544,6 9.30000019,5.55228475 9.30000019,5 C9.30000019,4.44771525 9.74771544,4 10.3000002,4 L14.6000004,4 Z M21,7.90000057 C21,8.45228532 20.5522847,8.90000057 20,8.90000057 C19.4477153,8.90000057 19,8.45228532 19,7.90000057 L19,5 L20,6 L18.6000004,6 C18.0477156,6 17.6000004,5.55228475 17.6000004,5 C17.6000004,4.44771525 18.0477156,4 18.6000004,4 L20,4 C20.5522847,4 21,4.44771525 21,5 L21,7.90000057 Z M21.2000008,14 C21.7522855,14 22.2000008,14.4477153 22.2000008,15 C22.2000008,15.5522847 21.7522855,16 21.2000008,16 L20,16 C19.4477153,16 19,15.5522847 19,15 L19,11.9000006 C19,11.3477158 19.4477153,10.9000006 20,10.9000006 C20.5522847,10.9000006 21,11.3477158 21,11.9000006 L21,15 L20,14 L21.2000008,14 Z M29.500001,14 C30.0522857,14 30.500001,14.4477153 30.500001,15 C30.500001,15.5522847 30.0522857,16 29.500001,16 L25.2000008,16 C24.647716,16 24.2000008,15.5522847 24.2000008,15 C24.2000008,14.4477153 24.647716,14 25.2000008,14 L29.500001,14 Z M37.8000011,14 C38.3522859,14 38.8000011,14.4477153 38.8000011,15 C38.8000011,15.5522847 38.3522859,16 37.8000011,16 L33.500001,16 C32.9477162,16 32.500001,15.5522847 32.500001,15 C32.500001,14.4477153 32.9477162,14 33.500001,14 L37.8000011,14 Z M39,23.1000013 C39,23.6522861 38.5522847,24.1000013 38,24.1000013 C37.4477153,24.1000013 37,23.6522861 37,23.1000013 L37,18.8000011 C37,18.2477164 37.4477153,17.8000011 38,17.8000011 C38.5522847,17.8000011 39,18.2477164 39,18.8000011 L39,23.1000013 Z M16.6999979,36 C16.1477132,36 15.6999979,35.5522847 15.6999979,35 C15.6999979,34.4477153 16.1477132,34 16.6999979,34 L20.9999981,34 C21.5522828,34 21.9999981,34.4477153 21.9999981,35 C21.9999981,35.5522847 21.5522828,36 20.9999981,36 L16.6999979,36 Z M8.39999771,36 C7.84771296,36 7.39999771,35.5522847 7.39999771,35 C7.39999771,34.4477153 7.84771296,34 8.39999771,34 L12.6999979,34 C13.2522827,34 13.6999979,34.4477153 13.6999979,35 C13.6999979,35.5522847 13.2522827,36 12.6999979,36 L8.39999771,36 Z M1,33.0999975 C1,32.5477128 1.44771525,32.0999975 2,32.0999975 C2.55228475,32.0999975 3,32.5477128 3,33.0999975 L3,35 L2,34 L4.39999771,34 C4.95228246,34 5.39999771,34.4477153 5.39999771,35 C5.39999771,35.5522847 4.95228246,36 4.39999771,36 L2,36 C1.44771525,36 1,35.5522847 1,35 L1,33.0999975 Z M1,24.7999973 C1,24.2477126 1.44771525,23.7999973 2,23.7999973 C2.55228475,23.7999973 3,24.2477126 3,24.7999973 L3,29.0999975 C3,29.6522823 2.55228475,30.0999975 2,30.0999975 C1.44771525,30.0999975 1,29.6522823 1,29.0999975 L1,24.7999973 Z M1,16.4999971 C1,15.9477124 1.44771525,15.4999971 2,15.4999971 C2.55228475,15.4999971 3,15.9477124 3,16.4999971 L3,20.7999973 C3,21.3522821 2.55228475,21.7999973 2,21.7999973 C1.44771525,21.7999973 1,21.3522821 1,20.7999973 L1,16.4999971 Z M1,8.19999695 C1,7.6477122 1.44771525,7.19999695 2,7.19999695 C2.55228475,7.19999695 3,7.6477122 3,8.19999695 L3,12.4999971 C3,13.0522819 2.55228475,13.4999971 2,13.4999971 C1.44771525,13.4999971 1,13.0522819 1,12.4999971 L1,8.19999695 Z"/>
    <g transform="translate(24 23)">
      <path fill="#FE9C11" fill-rule="nonzero" d="M15,11.6132251 C15,12.5844652 14.6274935,13.1656168 14.0153583,13.5063763 C10.8542002,15.3371632 9.05247207,16.3936706 8.61017409,16.6758986 C7.94672713,17.0992405 7.16618647,17.1167386 6.38178583,16.6758986 C5.59738518,16.2350585 2.3334455,14.3094885 1.17685315,13.6236352 C0.0202607934,12.9377818 0.00643206312,12.2846829 0.00643206312,11.4899624 C0.00643206312,10.695242 -0.0080400789,5.94331725 0.00643206312,5.17971442 C0.0209042051,4.41611159 0.32434286,3.89413672 1.03663417,3.45606317 C1.74892549,3.01798962 5.7471643,0.70760132 6.38757468,0.321450887 C7.02798506,-0.0646995462 7.77029002,-0.147601301 8.60449244,0.321450887 C9.43869486,0.790503075 13.5696142,3.18766054 14.2102498,3.60566188 C14.8508855,4.02366322 15,4.50351913 15,5.17971442 L15,11.6132251 Z"/>
      <path fill="#FFF" d="M10.0131005,10.86876 L5.04410046,10.86876 L3.97410046,7.66476 L5.73510046,8.14076 C5.96610046,8.20376 6.20010046,8.11676 6.34010046,7.93876 C6.39610046,7.89476 6.44610046,7.84076 6.48410046,7.77476 L7.60110046,5.86476 L8.67010046,7.87076 C8.67310046,7.87576 8.67610046,7.87876 8.67810046,7.88376 C8.68110046,7.88876 8.68510046,7.89276 8.68810046,7.89776 C8.69610046,7.90876 8.70210046,7.91976 8.71010046,7.93076 C8.71410046,7.93576 8.71910046,7.94076 8.72410046,7.94676 C8.73110046,7.95576 8.73810046,7.96476 8.74510046,7.97276 C8.75210046,7.97976 8.75910046,7.98676 8.76610046,7.99376 C8.77210046,7.99976 8.77810046,8.00576 8.78410046,8.01076 C8.79410046,8.01976 8.80610046,8.02976 8.81810046,8.03876 C8.82010046,8.04076 8.82210046,8.04276 8.82510046,8.04476 C8.96210046,8.14776 9.14410046,8.18976 9.32310046,8.14076 L11.0821005,7.66476 L10.0131005,10.86876 Z M12.5571005,6.78176 C12.5571005,6.77776 12.5561005,6.77276 12.5561005,6.76876 C12.5401005,6.52676 12.3741005,6.31176 12.1281005,6.24476 C12.1051005,6.23876 12.0811005,6.23476 12.0581005,6.23176 C12.0561005,6.23076 12.0551005,6.23076 12.0541005,6.23076 C12.0361005,6.22876 12.0191005,6.22676 12.0011005,6.22576 L11.9941005,6.22576 C11.9781005,6.22576 11.9611005,6.22576 11.9451005,6.22676 C11.9421005,6.22676 11.9381005,6.22676 11.9351005,6.22776 C11.9191005,6.22876 11.9041005,6.23076 11.8881005,6.23276 C11.8841005,6.23376 11.8791005,6.23476 11.8741005,6.23576 C11.8611005,6.23776 11.8461005,6.24076 11.8321005,6.24476 L9.45910046,6.88776 L8.14910046,4.42776 C8.14410046,4.41776 8.13910046,4.40776 8.13310046,4.39776 L8.12810046,4.38876 C8.11710046,4.37076 8.10810046,4.35676 8.09810046,4.34176 C8.08510046,4.32476 8.07510046,4.31076 8.06310046,4.29776 C8.06110046,4.29576 8.06010046,4.29376 8.05810046,4.29276 C8.04810046,4.28176 8.03710046,4.27076 8.02710046,4.26076 C8.02410046,4.25776 8.02010046,4.25376 8.01710046,4.25076 C8.00810046,4.24276 7.99810046,4.23476 7.98910046,4.22776 C7.98310046,4.22276 7.97710046,4.21776 7.97110046,4.21376 C7.96310046,4.20776 7.95410046,4.20176 7.94710046,4.19676 C7.93910046,4.19176 7.93110046,4.18576 7.92210046,4.18176 C7.90910046,4.17376 7.90410046,4.17076 7.89710046,4.16776 C7.88910046,4.16276 7.88010046,4.15876 7.87210046,4.15476 C7.86310046,4.14976 7.85310046,4.14576 7.84310046,4.14176 C7.83510046,4.13976 7.82810046,4.13676 7.82110046,4.13376 L7.78810046,4.12276 C7.78110046,4.12076 7.77410046,4.11876 7.76710046,4.11776 C7.75610046,4.11476 7.74410046,4.11276 7.73310046,4.10976 C7.72610046,4.10876 7.71910046,4.10776 7.71110046,4.10676 C7.70010046,4.10476 7.69010046,4.10376 7.67910046,4.10276 C7.67110046,4.10176 7.66210046,4.10076 7.65510046,4.10076 C7.64510046,4.09976 7.63510046,4.09976 7.62510046,4.09976 C7.61610046,4.09976 7.60610046,4.09976 7.59710046,4.10076 C7.58810046,4.10076 7.57910046,4.10176 7.57110046,4.10276 C7.56110046,4.10376 7.55010046,4.10476 7.54010046,4.10576 C7.53210046,4.10776 7.52410046,4.10876 7.51610046,4.11076 C7.50610046,4.11276 7.49510046,4.11476 7.48510046,4.11776 C7.47710046,4.11876 7.46810046,4.12176 7.46010046,4.12376 C7.45010046,4.12676 7.44210046,4.12976 7.43210046,4.13276 C7.42210046,4.13676 7.41210046,4.13976 7.40310046,4.14476 C7.39510046,4.14776 7.38810046,4.14976 7.38210046,4.15376 C7.36910046,4.15976 7.35710046,4.16576 7.34510046,4.17176 C7.34210046,4.17376 7.33810046,4.17576 7.33510046,4.17676 C7.33410046,4.17776 7.33310046,4.17876 7.33210046,4.17976 C7.31810046,4.18676 7.30510046,4.19576 7.29210046,4.20476 C7.28910046,4.20676 7.28610046,4.20876 7.28410046,4.21076 C7.27010046,4.21976 7.25810046,4.22976 7.24610046,4.24076 C7.24310046,4.24276 7.24110046,4.24476 7.23910046,4.24676 C7.22710046,4.25676 7.21710046,4.26676 7.20610046,4.27776 C7.20310046,4.28176 7.20010046,4.28476 7.19710046,4.28676 C7.18810046,4.29676 7.18010046,4.30776 7.17210046,4.31776 C7.16810046,4.32276 7.16410046,4.32676 7.16010046,4.33176 C7.15310046,4.34176 7.14610046,4.35176 7.14010046,4.36176 C7.13610046,4.36776 7.13210046,4.37376 7.12810046,4.37976 C7.12610046,4.38276 7.12410046,4.38576 7.12310046,4.38776 L5.65210046,6.90276 L3.23110046,6.24576 C3.22910046,6.24476 3.22610046,6.24476 3.22410046,6.24476 C3.21110046,6.24076 3.19710046,6.23776 3.18310046,6.23576 C3.17810046,6.23476 3.17410046,6.23376 3.16910046,6.23276 C3.15410046,6.23076 3.13810046,6.22876 3.12210046,6.22776 C3.11910046,6.22676 3.11610046,6.22676 3.11210046,6.22676 C3.09610046,6.22576 3.07910046,6.22576 3.06210046,6.22576 C3.03810046,6.22676 3.02110046,6.22876 3.00310046,6.23076 C2.97610046,6.23476 2.95210046,6.23876 2.92910046,6.24476 C2.68310046,6.31176 2.51710046,6.52776 2.50110046,6.76876 C2.50110046,6.77276 2.50110046,6.77776 2.50010046,6.78176 L2.50010046,6.79276 C2.49710046,6.88776 2.51610046,6.97976 2.55510046,7.06276 L4.06810046,11.59876 C4.14210046,11.87576 4.40210046,12.05176 4.67710046,12.02776 C4.69210046,12.02876 4.70810046,12.02976 4.72310046,12.02976 L10.3331005,12.02976 C10.3501005,12.02976 10.3661005,12.02876 10.3811005,12.02776 C10.6561005,12.05176 10.9151005,11.87576 10.9891005,11.59876 L12.5021005,7.06276 C12.5411005,6.97976 12.5601005,6.88776 12.5571005,6.79376 L12.5571005,6.78176 Z"/>
    </g>
  </g>
</svg>
