<svg xmlns="http://www.w3.org/2000/svg" viewBox="0 0 40 40">
  <g fill="none" fill-rule="evenodd">
    <rect width="40" height="40"/>
    <g transform="translate(24 23)">
      <path fill="#FE9C11" fill-rule="nonzero" d="M15,11.6132251 C15,12.5844652 14.6274935,13.1656168 14.0153583,13.5063763 C10.8542002,15.3371632 9.05247207,16.3936706 8.61017409,16.6758986 C7.94672713,17.0992405 7.16618647,17.1167386 6.38178583,16.6758986 C5.59738518,16.2350585 2.3334455,14.3094885 1.17685315,13.6236352 C0.0202607934,12.9377818 0.00643206312,12.2846829 0.00643206312,11.4899624 C0.00643206312,10.695242 -0.0080400789,5.94331725 0.00643206312,5.17971442 C0.0209042051,4.41611159 0.32434286,3.89413672 1.03663417,3.45606317 C1.74892549,3.01798962 5.7471643,0.70760132 6.38757468,0.321450887 C7.02798506,-0.0646995462 7.77029002,-0.147601301 8.60449244,0.321450887 C9.43869486,0.790503075 13.5696142,3.18766054 14.2102498,3.60566188 C14.8508855,4.02366322 15,4.50351913 15,5.17971442 L15,11.6132251 Z"/>
      <path fill="#FFF" d="M10.0131005,10.86876 L5.04410046,10.86876 L3.97410046,7.66476 L5.73510046,8.14076 C5.96610046,8.20376 6.20010046,8.11676 6.34010046,7.93876 C6.39610046,7.89476 6.44610046,7.84076 6.48410046,7.77476 L7.60110046,5.86476 L8.67010046,7.87076 C8.67310046,7.87576 8.67610046,7.87876 8.67810046,7.88376 C8.68110046,7.88876 8.68510046,7.89276 8.68810046,7.89776 C8.69610046,7.90876 8.70210046,7.91976 8.71010046,7.93076 C8.71410046,7.93576 8.71910046,7.94076 8.72410046,7.94676 C8.73110046,7.95576 8.73810046,7.96476 8.74510046,7.97276 C8.75210046,7.97976 8.75910046,7.98676 8.76610046,7.99376 C8.77210046,7.99976 8.77810046,8.00576 8.78410046,8.01076 C8.79410046,8.01976 8.80610046,8.02976 8.81810046,8.03876 C8.82010046,8.04076 8.82210046,8.04276 8.82510046,8.04476 C8.96210046,8.14776 9.14410046,8.18976 9.32310046,8.14076 L11.0821005,7.66476 L10.0131005,10.86876 Z M12.5571005,6.78176 C12.5571005,6.77776 12.5561005,6.77276 12.5561005,6.76876 C12.5401005,6.52676 12.3741005,6.31176 12.1281005,6.24476 C12.1051005,6.23876 12.0811005,6.23476 12.0581005,6.23176 C12.0561005,6.23076 12.0551005,6.23076 12.0541005,6.23076 C12.0361005,6.22876 12.0191005,6.22676 12.0011005,6.22576 L11.9941005,6.22576 C11.9781005,6.22576 11.9611005,6.22576 11.9451005,6.22676 C11.9421005,6.22676 11.9381005,6.22676 11.9351005,6.22776 C11.9191005,6.22876 11.9041005,6.23076 11.8881005,6.23276 C11.8841005,6.23376 11.8791005,6.23476 11.8741005,6.23576 C11.8611005,6.23776 11.8461005,6.24076 11.8321005,6.24476 L9.45910046,6.88776 L8.14910046,4.42776 C8.14410046,4.41776 8.13910046,4.40776 8.13310046,4.39776 L8.12810046,4.38876 C8.11710046,4.37076 8.10810046,4.35676 8.09810046,4.34176 C8.08510046,4.32476 8.07510046,4.31076 8.06310046,4.29776 C8.06110046,4.29576 8.06010046,4.29376 8.05810046,4.29276 C8.04810046,4.28176 8.03710046,4.27076 8.02710046,4.26076 C8.02410046,4.25776 8.02010046,4.25376 8.01710046,4.25076 C8.00810046,4.24276 7.99810046,4.23476 7.98910046,4.22776 C7.98310046,4.22276 7.97710046,4.21776 7.97110046,4.21376 C7.96310046,4.20776 7.95410046,4.20176 7.94710046,4.19676 C7.93910046,4.19176 7.93110046,4.18576 7.92210046,4.18176 C7.90910046,4.17376 7.90410046,4.17076 7.89710046,4.16776 C7.88910046,4.16276 7.88010046,4.15876 7.87210046,4.15476 C7.86310046,4.14976 7.85310046,4.14576 7.84310046,4.14176 C7.83510046,4.13976 7.82810046,4.13676 7.82110046,4.13376 L7.78810046,4.12276 C7.78110046,4.12076 7.77410046,4.11876 7.76710046,4.11776 C7.75610046,4.11476 7.74410046,4.11276 7.73310046,4.10976 C7.72610046,4.10876 7.71910046,4.10776 7.71110046,4.10676 C7.70010046,4.10476 7.69010046,4.10376 7.67910046,4.10276 C7.67110046,4.10176 7.66210046,4.10076 7.65510046,4.10076 C7.64510046,4.09976 7.63510046,4.09976 7.62510046,4.09976 C7.61610046,4.09976 7.60610046,4.09976 7.59710046,4.10076 C7.58810046,4.10076 7.57910046,4.10176 7.57110046,4.10276 C7.56110046,4.10376 7.55010046,4.10476 7.54010046,4.10576 C7.53210046,4.10776 7.52410046,4.10876 7.51610046,4.11076 C7.50610046,4.11276 7.49510046,4.11476 7.48510046,4.11776 C7.47710046,4.11876 7.46810046,4.12176 7.46010046,4.12376 C7.45010046,4.12676 7.44210046,4.12976 7.43210046,4.13276 C7.42210046,4.13676 7.41210046,4.13976 7.40310046,4.14476 C7.39510046,4.14776 7.38810046,4.14976 7.38210046,4.15376 C7.36910046,4.15976 7.35710046,4.16576 7.34510046,4.17176 C7.34210046,4.17376 7.33810046,4.17576 7.33510046,4.17676 C7.33410046,4.17776 7.33310046,4.17876 7.33210046,4.17976 C7.31810046,4.18676 7.30510046,4.19576 7.29210046,4.20476 C7.28910046,4.20676 7.28610046,4.20876 7.28410046,4.21076 C7.27010046,4.21976 7.25810046,4.22976 7.24610046,4.24076 C7.24310046,4.24276 7.24110046,4.24476 7.23910046,4.24676 C7.22710046,4.25676 7.21710046,4.26676 7.20610046,4.27776 C7.20310046,4.28176 7.20010046,4.28476 7.19710046,4.28676 C7.18810046,4.29676 7.18010046,4.30776 7.17210046,4.31776 C7.16810046,4.32276 7.16410046,4.32676 7.16010046,4.33176 C7.15310046,4.34176 7.14610046,4.35176 7.14010046,4.36176 C7.13610046,4.36776 7.13210046,4.37376 7.12810046,4.37976 C7.12610046,4.38276 7.12410046,4.38576 7.12310046,4.38776 L5.65210046,6.90276 L3.23110046,6.24576 C3.22910046,6.24476 3.22610046,6.24476 3.22410046,6.24476 C3.21110046,6.24076 3.19710046,6.23776 3.18310046,6.23576 C3.17810046,6.23476 3.17410046,6.23376 3.16910046,6.23276 C3.15410046,6.23076 3.13810046,6.22876 3.12210046,6.22776 C3.11910046,6.22676 3.11610046,6.22676 3.11210046,6.22676 C3.09610046,6.22576 3.07910046,6.22576 3.06210046,6.22576 C3.03810046,6.22676 3.02110046,6.22876 3.00310046,6.23076 C2.97610046,6.23476 2.95210046,6.23876 2.92910046,6.24476 C2.68310046,6.31176 2.51710046,6.52776 2.50110046,6.76876 C2.50110046,6.77276 2.50110046,6.77776 2.50010046,6.78176 L2.50010046,6.79276 C2.49710046,6.88776 2.51610046,6.97976 2.55510046,7.06276 L4.06810046,11.59876 C4.14210046,11.87576 4.40210046,12.05176 4.67710046,12.02776 C4.69210046,12.02876 4.70810046,12.02976 4.72310046,12.02976 L10.3331005,12.02976 C10.3501005,12.02976 10.3661005,12.02876 10.3811005,12.02776 C10.6561005,12.05176 10.9151005,11.87576 10.9891005,11.59876 L12.5021005,7.06276 C12.5411005,6.97976 12.5601005,6.88776 12.5571005,6.79376 L12.5571005,6.78176 Z"/>
    </g>
    <path fill="#4F85FF" fill-rule="nonzero" d="M12.2,4 C12.7522847,4 13.2,4.44771525 13.2,5 C13.2,5.55228475 12.7522847,6 12.2,6 L8.2,6 C7.64771525,6 7.2,5.55228475 7.2,5 C7.2,4.44771525 7.64771525,4 8.2,4 L12.2,4 Z M20.2,4 C20.7522847,4 21.2,4.44771525 21.2,5 C21.2,5.55228475 20.7522847,6 20.2,6 L16.2,6 C15.6477153,6 15.2,5.55228475 15.2,5 C15.2,4.44771525 15.6477153,4 16.2,4 L20.2,4 Z M28.2,4 C28.7522847,4 29.2,4.44771525 29.2,5 C29.2,5.55228475 28.7522847,6 28.2,6 L24.2,6 C23.6477153,6 23.2,5.55228475 23.2,5 C23.2,4.44771525 23.6477153,4 24.2,4 L28.2,4 Z M36.5557302,5.79406315 C36.9702727,6.15899179 37.0104928,6.79087804 36.6455641,7.20542061 C36.2806355,7.61996317 35.6487492,7.6601832 35.2342067,7.29525456 C34.3755333,6.53935022 33.2940085,6.08433053 32.1362155,6.01065964 C31.5850454,5.97558844 31.1666646,5.50034598 31.2017358,4.94917591 C31.236807,4.39800583 31.7120494,3.97962502 32.2632195,4.01469622 C33.8669428,4.11674185 35.3675273,4.74806858 36.5557302,5.79406315 Z M39,13.9223257 C39,14.4746105 38.5522847,14.9223257 38,14.9223257 C37.4477153,14.9223257 37,14.4746105 37,13.9223257 L37,11.2 C37,10.8690428 36.9692094,10.5425596 36.9085897,10.2232169 C36.8055908,9.68062154 37.1619541,9.15726403 37.7045494,9.05426512 C38.2471447,8.95126622 38.7705022,9.30762952 38.8735011,9.85022483 C38.9574324,10.2923726 39,10.7437306 39,11.2 L39,13.9223257 Z M39,21.9223257 C39,22.4746105 38.5522847,22.9223257 38,22.9223257 C37.4477153,22.9223257 37,22.4746105 37,21.9223257 L37,17.9223257 C37,17.370041 37.4477153,16.9223257 38,16.9223257 C38.5522847,16.9223257 39,17.370041 39,17.9223257 L39,21.9223257 Z M16.3553486,36 C15.8030638,36 15.3553486,35.5522847 15.3553486,35 C15.3553486,34.4477153 15.8030638,34 16.3553486,34 L20.3553486,34 C20.9076333,34 21.3553486,34.4477153 21.3553486,35 C21.3553486,35.5522847 20.9076333,36 20.3553486,36 L16.3553486,36 Z M8.35534859,36 C7.80306384,36 7.35534859,35.5522847 7.35534859,35 C7.35534859,34.4477153 7.80306384,34 8.35534859,34 L12.3553486,34 C12.9076333,34 13.3553486,34.4477153 13.3553486,35 C13.3553486,35.5522847 12.9076333,36 12.3553486,36 L8.35534859,36 Z M1.2857358,30.8139885 C1.13149374,30.2836793 1.43635638,29.7287409 1.96666556,29.5744988 C2.49697475,29.4202567 3.05191318,29.7251194 3.20615524,30.2554286 C3.52685462,31.3580449 4.20855768,32.3238617 5.13472555,33.0010159 C5.58055756,33.3269794 5.67773012,33.9526434 5.35176652,34.3984754 C5.02580293,34.8443074 4.40013898,34.94148 3.95430697,34.6155164 C2.67355449,33.6791128 1.73043139,32.3429239 1.2857358,30.8139885 Z M1,22.6330229 C1,22.0807381 1.44771525,21.6330229 2,21.6330229 C2.55228475,21.6330229 3,22.0807381 3,22.6330229 L3,26.6330229 C3,27.1853076 2.55228475,27.6330229 2,27.6330229 C1.44771525,27.6330229 1,27.1853076 1,26.6330229 L1,22.6330229 Z M1,14.6330229 C1,14.0807381 1.44771525,13.6330229 2,13.6330229 C2.55228475,13.6330229 3,14.0807381 3,14.6330229 L3,18.6330229 C3,19.1853076 2.55228475,19.6330229 2,19.6330229 C1.44771525,19.6330229 1,19.1853076 1,18.6330229 L1,14.6330229 Z M2.92381887,6.30078647 C3.29969747,5.89614623 3.93243301,5.87283032 4.33707324,6.24870893 C4.74171348,6.62458753 4.76502938,7.25732307 4.38915078,7.6619633 C3.61004239,8.50068782 3.12585844,9.57077439 3.02144398,10.7238498 C2.97163672,11.2738841 2.48536909,11.6793982 1.93533484,11.6295909 C1.38530058,11.5797836 0.979786483,11.093516 1.02959374,10.5434818 C1.17429825,8.94547305 1.84589268,7.46119384 2.92381887,6.30078647 Z M8.2,4 C8.75228475,4 9.2,4.44771525 9.2,5 C9.2,5.55228475 8.75228475,6 8.2,6 C7.91973193,6 7.64264675,6.02208095 7.37033905,6.06567612 C6.82499875,6.15298253 6.31213727,5.7816727 6.22483086,5.23633241 C6.13752445,4.69099212 6.50883428,4.17813063 7.05417457,4.09082422 C7.43094102,4.03050569 7.81374509,4 8.2,4 Z"/>
  </g>
</svg>
