<?xml version="1.0" encoding="UTF-8"?>
<svg width="16px" height="16px" viewBox="0 0 16 16" version="1.1" xmlns="http://www.w3.org/2000/svg" xmlns:xlink="http://www.w3.org/1999/xlink">
    <title>arrow_dark</title>
    <g id="arrow_dark" stroke="none" stroke-width="1" fill="none" fill-rule="evenodd">
        <g id="arrow">
            <rect id="矩形" x="0" y="0" width="16" height="16"></rect>
            <path d="M9.13947623,6.15341699 L5.25211237,3.93422543 C4.85512725,3.70759729 4.94530142,3.11106944 5.39153477,3.01190647 L13.6245307,1.18235183 C13.7674083,1.15060124 13.9155139,1.15060124 14.0583916,1.18235183 C14.5975248,1.30215921 14.9374556,1.83633612 14.8176482,2.37546935 L12.9880935,10.6084652 C12.8889304,11.0546992 12.2924014,11.1448728 12.0657739,10.7478865 L9.84659147,6.86051531 L1.85355339,14.8535534 C1.65829124,15.0488155 1.34170876,15.0488155 1.14644661,14.8535534 C0.951184464,14.6582912 0.951184464,14.3417088 1.14644661,14.1464466 L9.13947623,6.15341699 Z M10.2040308,5.60966695 C10.2816888,5.6539998 10.3460366,5.71834777 10.3903692,5.79600587 L12.2926392,9.12823736 L13.8414611,2.15853889 L6.8717578,3.70736185 L10.2040308,5.60966695 Z" id="形状" fill-opacity="0.85" fill="#FFFFFF" fill-rule="nonzero"></path>
        </g>
    </g>
</svg>