<svg xmlns="http://www.w3.org/2000/svg" xmlns:xlink="http://www.w3.org/1999/xlink" viewBox="0 0 16 16">
  <defs>
    <rect id="关闭-a" width="16" height="16"/>
  </defs>
  <g fill="none" fill-rule="evenodd">
    <mask id="关闭-b" fill="#fff">
      <use xlink:href="#关闭-a"/>
    </mask>
    <path fill="#CC4747" fill-rule="nonzero" d="M8,7.29289322 L13.1464466,2.14644661 C13.3417088,1.95118446 13.6582912,1.95118446 13.8535534,2.14644661 C14.0488155,2.34170876 14.0488155,2.65829124 13.8535534,2.85355339 L8.70710678,8 L13.8535534,13.1464466 C14.0488155,13.3417088 14.0488155,13.6582912 13.8535534,13.8535534 C13.6582912,14.0488155 13.3417088,14.0488155 13.1464466,13.8535534 L8,8.70710678 L2.85355339,13.8535534 C2.65829124,14.0488155 2.34170876,14.0488155 2.14644661,13.8535534 C1.95118446,13.6582912 1.95118446,13.3417088 2.14644661,13.1464466 L7.29289322,8 L2.14644661,2.85355339 C1.95118446,2.65829124 1.95118446,2.34170876 2.14644661,2.14644661 C2.34170876,1.95118446 2.65829124,1.95118446 2.85355339,2.14644661 L8,7.29289322 Z" mask="url(#关闭-b)"/>
  </g>
</svg>
