<?xml version="1.0" encoding="UTF-8"?>
<svg width="16px" height="16px" viewBox="0 0 16 16" version="1.1" xmlns="http://www.w3.org/2000/svg" xmlns:xlink="http://www.w3.org/1999/xlink">
    <title>扣除背景备份 </title>
    <g id="扣除背景备份-" stroke="none" stroke-width="1" fill="none" fill-rule="evenodd">
        <g id="扣除背景">
            <rect id="16" x="0" y="0" width="16" height="16"></rect>
            <path d="M1.5,11 C1.74545989,11 1.94960837,11.1768752 1.99194433,11.4101244 L2,11.5 L2,14 L4.5,14 C4.74545989,14 4.94960837,14.1768752 4.99194433,14.4101244 L5,14.5 C5,14.7454599 4.82312484,14.9496084 4.58987563,14.9919443 L4.5,15 L1.5,15 C1.25454011,15 1.05039163,14.8231248 1.00805567,14.5898756 L1,14.5 L1,11.5 C1,11.2238576 1.22385763,11 1.5,11 Z M2.5,6 C2.77614237,6 3,6.22385763 3,6.5 C3,6.74545989 2.82312484,6.94960837 2.58987563,6.99194433 L2.5,7 L1.5,7 C1.22385763,7 1,6.77614237 1,6.5 C1,6.25454011 1.17687516,6.05039163 1.41012437,6.00805567 L1.5,6 L2.5,6 Z M14.5,1 C14.7454599,1 14.9496084,1.17687516 14.9919443,1.41012437 L15,1.5 L15,4.5 C15,4.77614237 14.7761424,5 14.5,5 C14.2545401,5 14.0503916,4.82312484 14.0080557,4.58987563 L14,4.5 L14,2 L11.5,2 C11.2545401,2 11.0503916,1.82312484 11.0080557,1.58987563 L11,1.5 C11,1.25454011 11.1768752,1.05039163 11.4101244,1.00805567 L11.5,1 L14.5,1 Z M2.7843055,2.08859116 L2.85355339,2.14644661 L4.35355339,3.64644661 C4.54881554,3.84170876 4.54881554,4.15829124 4.35355339,4.35355339 C4.17998704,4.52711974 3.91056264,4.54640489 3.7156945,4.41140884 L3.64644661,4.35355339 L2.14644661,2.85355339 C1.95118446,2.65829124 1.95118446,2.34170876 2.14644661,2.14644661 C2.32001296,1.97288026 2.58943736,1.95359511 2.7843055,2.08859116 Z M6.5,1 C6.74545989,1 6.94960837,1.17687516 6.99194433,1.41012437 L7,1.5 L7,2.5 C7,2.77614237 6.77614237,3 6.5,3 C6.25454011,3 6.05039163,2.82312484 6.00805567,2.58987563 L6,2.5 L6,1.5 C6,1.22385763 6.22385763,1 6.5,1 Z" id="形状结合" fill-opacity="0.85" fill="#FFFFFF"></path>
        </g>
        <path d="M8.58578644,4.34314575 L14.9497475,10.7071068 C15.3402718,11.0976311 15.3402718,11.7307961 14.9497475,12.1213203 L12.1213203,14.9497475 C11.7307961,15.3402718 11.0976311,15.3402718 10.7071068,14.9497475 L4.34314575,8.58578644 C3.95262146,8.19526215 3.95262146,7.56209717 4.34314575,7.17157288 L7.17157288,4.34314575 C7.56209717,3.95262146 8.19526215,3.95262146 8.58578644,4.34314575 Z M9.70725253,6.87825253 L6.87825253,9.70725253 L11.4142136,14.2426407 L14.2426407,11.4142136 L9.70725253,6.87825253 Z M7.87867966,5.05025253 L5.05025253,7.87867966 L6.17125253,9.00025253 L9.00025253,6.17125253 L7.87867966,5.05025253 Z" id="形状结合" fill-opacity="0.85" fill="#FFFFFF"></path>
    </g>
</svg>