<?xml version="1.0" encoding="utf-8"?>
<!-- Generator: Adobe Illustrator 23.0.0, SVG Export Plug-In . SVG Version: 6.00 Build 0)  -->
<svg version="1.1" id="图层_1" xmlns="http://www.w3.org/2000/svg" xmlns:xlink="http://www.w3.org/1999/xlink" x="0px" y="0px"
	 viewBox="0 0 22 88" style="enable-background:new 0 0 22 88;" xml:space="preserve">
<style type="text/css">
	.st0{fill-rule:evenodd;clip-rule:evenodd;fill:#3C3C3D;}
	.st1{fill-rule:evenodd;clip-rule:evenodd;fill:#FFFFFF;fill-opacity:0.2;}
</style>
<g id="页面-1">
	<g id="截屏工具" transform="translate(-751.000000, -2189.000000)">
		<g id="拖动控件备份" transform="translate(751.000000, 2189.000000)">
			<path id="矩形" class="st0" d="M0,0h18c2.2,0,4,1.8,4,4v80c0,2.2-1.8,4-4,4H0l0,0V0z"/>
			<path class="st1" d="M13.5,32L13.5,32c0.3,0,0.5,0.2,0.5,0.5v23c0,0.3-0.2,0.5-0.5,0.5l0,0c-0.3,0-0.5-0.2-0.5-0.5v-23
				C13,32.2,13.2,32,13.5,32z"/>
			<path id="矩形备份-7" class="st1" d="M8.5,32L8.5,32C8.8,32,9,32.2,9,32.5v23C9,55.8,8.8,56,8.5,56l0,0C8.2,56,8,55.8,8,55.5
				v-23C8,32.2,8.2,32,8.5,32z"/>
		</g>
	</g>
</g>
</svg>
