<?xml version="1.0" encoding="UTF-8"?>
<svg width="16px" height="16px" viewBox="0 0 16 16" version="1.1" xmlns="http://www.w3.org/2000/svg" xmlns:xlink="http://www.w3.org/1999/xlink">
    <title>pen_dark</title>
    <g id="pen_dark" stroke="none" stroke-width="1" fill="none" fill-rule="evenodd">
        <g id="pen">
            <rect id="矩形" x="0" y="0" width="16" height="16"></rect>
            <path d="M10.2071068,2.5 L13.5,5.79289322 L14.0857864,5.20710678 C14.4763107,4.81658249 14.4763107,4.18341751 14.0857864,3.79289322 L12.2071068,1.91421356 C11.8165825,1.52368927 11.1834175,1.52368927 10.7928932,1.91421356 L10.2071068,2.5 Z M9.5,3.20710678 L2.14644661,10.5606602 C2.05267842,10.6544284 2,10.7816053 2,10.9142136 L2,13.5 C2,13.7761424 2.22385763,14 2.5,14 L5.08578644,14 C5.21839468,14 5.34557164,13.9473216 5.43933983,13.8535534 L12.7928932,6.5 L9.5,3.20710678 Z M14.7928932,3.08578644 C15.5739418,3.86683502 15.5739418,5.13316498 14.7928932,5.91421356 L6.14644661,14.5606602 C5.86514204,14.8419647 5.48361117,15 5.08578644,15 L2.5,15 C1.67157288,15 1,14.3284271 1,13.5 L1,10.9142136 C1,10.5163888 1.15803526,10.134858 1.43933983,9.85355339 L10.0857864,1.20710678 C10.866835,0.426058198 12.133165,0.426058198 12.9142136,1.20710678 L14.7928932,3.08578644 Z" id="形状" fill-opacity="0.85" fill="#FFFFFF" fill-rule="nonzero"></path>
        </g>
    </g>
</svg>