<?xml version="1.0" encoding="UTF-8"?>
<svg width="16px" height="16px" viewBox="0 0 16 16" version="1.1" xmlns="http://www.w3.org/2000/svg" xmlns:xlink="http://www.w3.org/1999/xlink">
    <title>pin_dark</title>
    <g id="pin_dark" stroke="none" stroke-width="1" fill="none" fill-rule="evenodd">
        <g id="pin" fill-rule="nonzero">
            <g id="编组" fill="#FFFFFF" fill-opacity="0.85">
                <g id="Clipped">
                    <path d="M9.45859568,1.66064789 C9.78492907,0.899203195 10.6667476,0.546475805 11.4281922,0.872809266 C11.6035918,0.94798056 11.7630369,1.05593009 11.8979734,1.19086663 L11.8979734,1.19086663 L14.8091334,4.10202658 C15.3949198,4.68781302 15.3949198,5.6375605 14.8091334,6.22334689 C14.6741969,6.35828347 14.5147518,6.466233 14.3393521,6.54140431 L14.3393521,6.54140431 L13.1087983,7.0687845 C12.6779261,7.25344403 12.3581582,7.62891995 12.2444636,8.0836986 L12.2444636,8.0836986 L10.9134354,13.4078115 C10.7125123,14.2115039 9.89811047,14.7001449 9.09441818,14.4992218 C8.83066952,14.4332846 8.58979969,14.2969064 8.39756142,14.1046682 L8.39756142,14.1046682 L6.42938541,12.1371422 L1.26843775,15.4218307 C0.842328785,15.692991 0.349294067,15.2386935 0.537695829,14.8073004 L0.578169256,14.7315623 L3.86238541,9.56914217 L1.8953318,7.60243858 C1.34615702,7.0532638 1.31183359,6.18420139 1.79236154,5.59504064 L1.89533181,5.48111823 C2.08757005,5.28888001 2.32843985,5.15250184 2.59218854,5.08656466 L2.59218854,5.08656466 L7.9163014,3.75553645 C8.37108001,3.6418418 8.74655596,3.32207392 8.9312155,2.89120165 L8.9312155,2.89120165 Z M10.9484908,1.76395486 C10.7174241,1.7109864 10.4744321,1.82895393 10.3777407,2.05456716 L10.3777407,2.05456716 L9.85036053,3.28512095 C9.54259462,4.00324141 8.91680138,4.53618786 8.15883702,4.72567895 L8.15883702,4.72567895 L2.83472418,6.05670716 C2.74680794,6.07868622 2.66651799,6.12414562 2.60243858,6.18822502 C2.40717644,6.38348716 2.40717644,6.70006966 2.60243858,6.8953318 L2.60243858,6.8953318 L9.10466817,13.3975614 C9.16874761,13.4616408 9.24903756,13.5071002 9.33695383,13.5290793 C9.60485126,13.5960537 9.8763185,13.4331733 9.94329285,13.1652759 L9.94329285,13.1652759 L11.2743211,7.84116296 C11.4638122,7.08319857 11.9967586,6.45740536 12.7148791,6.14963946 L12.7148791,6.14963946 L13.9454328,5.62225928 C14.0038994,5.59720217 14.0570478,5.56121899 14.1020266,5.51624014 C14.2972888,5.320978 14.2972888,5.00439552 14.1020266,4.80913337 L14.1020266,4.80913337 L11.1908666,1.89797337 C11.1458878,1.85299457 11.0927394,1.81701139 11.0342728,1.79195428 L11.0342728,1.79195428 Z M4.58638541,10.2941422 L2.629,13.371 L5.70538541,11.4131422 L4.58638541,10.2941422 Z" id="形状结合"></path>
                </g>
            </g>
            <g id="编组" transform="translate(9.000000, 8.000000)">
                <path d="M7,5.46504712 C7,5.92210126 6.82616365,6.1955844 6.54050056,6.3559418 C5.0652934,7.21748856 4.22448697,7.71466852 4.01808124,7.84748167 C3.70847266,8.0467014 3.34422035,8.05493581 2.97816672,7.84748167 C2.61211308,7.64002753 1.08894124,6.73387696 0.549198136,6.41112243 C0.00945503693,6.0883679 0.00300162946,5.78102723 0.00300162946,5.40704115 C0.00300162946,5.03305507 -0.00375203682,2.79685518 0.00300162946,2.43751267 C0.00975529573,2.07817016 0.151360001,1.83253493 0.483762614,1.62638267 C0.816165226,1.42023041 2.68201001,0.332988857 2.98086819,0.151271006 C3.27972636,-0.0304468453 3.62613534,-0.0694594357 4.0154298,0.151271006 C4.40472427,0.372001447 6.33248663,1.50007555 6.63144993,1.69678206 C6.93041323,1.89348857 7,2.11930312 7,2.43751267 L7,5.46504712 Z" id="路径" fill="#FE9C11"></path>
                <path d="M2.42874646,2.74275212 C2.28667238,2.50596199 1.97954226,2.42917946 1.74275212,2.57125354 C1.50596199,2.71332762 1.42917946,3.02045774 1.57125354,3.25724788 L3.07125354,5.75724788 C3.26545523,6.08091737 3.73454477,6.08091737 3.92874646,5.75724788 L5.42874646,3.25724788 C5.57082054,3.02045774 5.49403801,2.71332762 5.25724788,2.57125354 C5.02045774,2.42917946 4.71332762,2.50596199 4.57125354,2.74275212 L3.5,4.52817468 L2.42874646,2.74275212 Z" id="路径" fill="#FFFFFF"></path>
            </g>
        </g>
    </g>
</svg>