<?xml version="1.0" encoding="UTF-8"?>
<svg width="16px" height="16px" viewBox="0 0 16 16" version="1.1" xmlns="http://www.w3.org/2000/svg" xmlns:xlink="http://www.w3.org/1999/xlink">
    <title>pinclose_dark</title>
    <g id="pinclose_dark" stroke="none" stroke-width="1" fill="none" fill-rule="evenodd" fill-opacity="0.85">
        <g id="pinclose" transform="translate(2.000000, 2.000000)" fill="#FFFFFF" fill-rule="nonzero">
            <path d="M11.8451075,0.9049329 L6.74772218,6.01513634 L11.8120515,11.0922007 C11.947391,11.2257414 12.0008974,11.4217891 11.9522267,11.6058037 C11.903556,11.7898183 11.7601852,11.933531 11.5766259,11.9823003 C11.3930666,12.0310696 11.1975176,11.9774033 11.0643293,11.8417062 L6,6.76473878 L0.93576732,11.8417062 C0.72931623,12.04873 0.3945496,12.0487734 0.18804513,11.8418031 C-0.01845934,11.6348329 -0.01850262,11.2992244 0.18794847,11.0922007 L5.25227781,6.01513634 L0.1548925,0.9049329 C-0.05161196,0.6979359 -0.0516336,0.36230577 0.15484418,0.15528201 C0.36132196,-0.05174174 0.69611022,-0.05176343 0.90261469,0.15523356 L6,5.26543699 L11.0973853,0.15523356 C11.3038898,-0.05176344 11.638678,-0.05174175 11.8451558,0.15528201 C12.0516336,0.36230577 12.051612,0.6979359 11.8451075,0.9049329 Z" id="路径"></path>
        </g>
    </g>
</svg>