<?xml version="1.0" encoding="UTF-8"?>
<svg width="16px" height="16px" viewBox="0 0 16 16" version="1.1" xmlns="http://www.w3.org/2000/svg" xmlns:xlink="http://www.w3.org/1999/xlink">
    <title>rect_dark</title>
    <g id="rect_dark" stroke="none" stroke-width="1" fill="none" fill-rule="evenodd">
        <g id="rect">
            <rect id="矩形" x="0" y="0" width="16" height="16"></rect>
            <path d="M3,2 C2.44771525,2 2,2.44771525 2,3 L2,13 C2,13.5522847 2.44771525,14 3,14 L13,14 C13.5522847,14 14,13.5522847 14,13 L14,3 C14,2.44771525 13.5522847,2 13,2 L3,2 Z M3,1 L13,1 C14.1045695,1 15,1.8954305 15,3 L15,13 C15,14.1045695 14.1045695,15 13,15 L3,15 C1.8954305,15 1,14.1045695 1,13 L1,3 C1,1.8954305 1.8954305,1 3,1 Z" id="形状" fill-opacity="0.85" fill="#FFFFFF" fill-rule="nonzero"></path>
        </g>
    </g>
</svg>