<?xml version="1.0" encoding="UTF-8"?>
<svg width="16px" height="16px" viewBox="0 0 16 16" version="1.1" xmlns="http://www.w3.org/2000/svg" xmlns:xlink="http://www.w3.org/1999/xlink">
    <title>消除污点备份</title>
    <g id="消除污点备份" stroke="none" stroke-width="1" fill="none" fill-rule="evenodd" fill-opacity="0.85">
        <path d="M8.55549728,4.00307921 C8.79767864,4.00307921 9.00504297,4.17664318 9.0476855,4.41504081 L9.33327145,6.0117089 C9.74252055,6.07484677 10.0774741,6.38737064 10.1607768,6.80388386 L11.7607768,14.8038839 C11.7775624,14.8878118 11.7833114,14.9713859 11.7790258,15.0531032 C10.6534652,15.6572563 9.36675862,16 8,16 C6.63389721,16 5.34776969,15.6575852 4.22276204,15.0539001 L4.2198039,15 L4.2198039,15 C4.2198039,14.934148 4.22630859,14.868457 4.23922323,14.8038839 L5.83922323,6.80388386 C5.92471265,6.37643674 6.27523861,6.05851028 6.69910857,6.0072548 L7.00273962,4.40985575 C7.04752302,4.17387368 7.25377828,4.00307921 7.49397213,4.00307921 L8.55549728,4.00307921 Z M9.7798039,9.99907921 L6.2198039,9.99907921 L5.2198039,15 L10.7801961,15 L9.7798039,9.99907921 Z M9.1808039,7.00307921 L6.8188039,7.00307921 L6.4198039,8.99907921 L9.5798039,8.99907921 L9.1808039,7.00307921 Z" id="形状结合" fill="#FFFFFF"></path>
        <path d="M8,0 C3.58172199,0 0,3.581722 0,8 C0,12.4182779 3.58172199,16 8,16 C12.418278,16 16,12.4182779 16,8 C16,3.581722 12.418278,0 8,0 Z M8,1 C11.8659933,1 15,4.13400675 15,8 C15,11.8659933 11.8659933,15 8,15 C4.13400674,15 1,11.8659933 1,8 C1,4.13400675 4.13400674,1 8,1 Z" id="椭圆形" fill="#FFFFFF"></path>
    </g>
</svg>