<svg xmlns="http://www.w3.org/2000/svg" viewBox="0 0 40 40">
  <g fill="none" fill-rule="evenodd">
    <rect width="40" height="40"/>
    <g transform="translate(18 25.2)">
      <rect width="22" height="12" y=".8" fill="#FE9C11" rx="2"/>
      <path fill="#FFF" fill-rule="nonzero" d="M4.65,2.41 L5.14,2.7 C4.84,3.51 4.48,4.49 4.14,5.28 C4.86,6.11 5.04,6.84 5.04,7.46 C5.04,7.98 4.92,8.42 4.65,8.61 C4.51,8.72 4.32,8.78 4.12,8.8 C3.93,8.83 3.67,8.83 3.46,8.82 C3.45,8.63 3.38,8.35 3.27,8.16 C3.5,8.18 3.69,8.19 3.85,8.17 C3.97,8.16 4.08,8.14 4.16,8.08 C4.31,7.97 4.37,7.69 4.37,7.39 C4.37,6.85 4.19,6.16 3.47,5.36 C3.76,4.64 4.06,3.78 4.26,3.12 L2.81,3.12 L2.81,11.15 L2.15,11.15 L2.15,2.44 L4.54,2.44 L4.65,2.41 Z M6.35,4.95 L6.35,6.19 L9.28,6.19 L9.28,4.95 L6.35,4.95 Z M9.28,3.13 L6.35,3.13 L6.35,4.33 L9.28,4.33 L9.28,3.13 Z M10.11,7.16 L10.6,7.68 C10.09,8.1 9.43,8.54 8.88,8.87 C9.37,9.58 10.01,10.13 10.81,10.46 C10.65,10.6 10.42,10.9 10.3,11.09 C8.74,10.35 7.81,8.82 7.31,6.84 L6.35,6.84 L6.35,10.13 L8.11,9.7 C8.11,9.92 8.12,10.22 8.15,10.38 C6.09,10.94 5.79,11.04 5.59,11.17 C5.54,11.01 5.38,10.7 5.26,10.56 C5.42,10.48 5.63,10.27 5.63,9.86 L5.63,2.47 L10,2.47 L10,6.84 L7.96,6.84 C8.11,7.38 8.3,7.89 8.55,8.34 C9.07,7.99 9.7,7.52 10.11,7.16 Z M19.17,5.21 L16.64,5.21 C16.59,5.82 16.52,6.4 16.41,6.95 L19.17,6.95 L19.17,5.21 Z M13.5,6.95 L15.63,6.95 C15.76,6.4 15.82,5.83 15.87,5.21 L13.5,5.21 L13.5,6.95 Z M16.99,3.43 L14.49,3.43 C14.2,3.81 13.87,4.18 13.51,4.54 L16.16,4.54 C16.45,4.23 16.76,3.81 16.99,3.43 Z M17.97,10.29 L19.5,10.29 C19.93,10.29 20,10.1 20.04,8.9 C20.21,9.03 20.51,9.15 20.73,9.19 C20.63,10.61 20.41,10.96 19.56,10.96 L17.89,10.96 C16.93,10.96 16.68,10.74 16.68,9.95 L16.68,7.62 L16.23,7.62 C15.74,9.18 14.68,10.39 12.17,11.07 C12.1,10.88 11.92,10.6 11.75,10.44 C13.99,9.89 14.97,8.89 15.43,7.62 L12.76,7.62 L12.76,5.23 C12.57,5.39 12.38,5.53 12.17,5.68 C12.06,5.5 11.82,5.26 11.65,5.14 C13,4.24 14,3.01 14.53,2.02 L15.35,2.17 C15.23,2.38 15.09,2.58 14.94,2.8 L17.41,2.8 L17.54,2.76 L18.04,3.1 C17.78,3.57 17.39,4.1 17.02,4.54 L19.94,4.54 L19.94,7.62 L17.44,7.62 L17.44,9.94 C17.44,10.24 17.52,10.29 17.97,10.29 Z"/>
    </g>
    <path fill="#4F85FF" fill-rule="nonzero" d="M39.806855,22.2351181 C39.9324687,21.5143259 39.9972343,20.7839697 39.9999134,20.0476542 C40.000005,19.2165366 39.9296699,18.4332364 39.7873619,17.6557713 C39.6879233,17.1125123 39.1669138,16.7527248 38.6236548,16.8521635 C38.0803957,16.9516021 37.7206082,17.4726116 37.8200469,18.0158706 C37.940486,18.6738603 37.9999926,19.3365679 37.9999199,20.0439131 C37.9976584,20.6637867 37.9428622,21.2817179 37.8365509,21.8917496 C37.7417323,22.435834 38.1059342,22.9537673 38.6500187,23.0485859 C39.1941031,23.1434045 39.7120364,22.7792025 39.806855,22.2351181 Z M38.3114921,13.5475158 C37.6059388,12.2650945 36.6930096,11.0653111 35.5996064,9.97703025 C35.2081663,9.58742395 34.5750031,9.58891055 34.1853967,9.98035068 C33.7957904,10.3717908 33.797277,11.004954 34.1887172,11.3945603 C35.1496746,12.3510159 35.9470106,13.3988852 36.5591882,14.5115857 C36.8254087,14.9954711 37.4334897,15.1719233 37.9173751,14.9057027 C38.4012605,14.6394821 38.5777127,14.0314011 38.3114921,13.5475158 Z M32.2804007,7.36374614 C31.0567725,6.60232256 29.7265596,5.95680071 28.316219,5.44135046 C27.7974932,5.2517669 27.2232949,5.51858946 27.0337114,6.03731532 C26.8441278,6.55604118 27.1109504,7.13023942 27.6296762,7.31982298 C28.9118285,7.78842305 30.1179427,8.37372268 31.223742,9.06182516 C31.6926535,9.35361341 32.3093226,9.21002658 32.6011108,8.74111501 C32.8928991,8.27220343 32.7493122,7.65553439 32.2804007,7.36374614 Z M24.2609762,4.36312589 C22.8883673,4.12537884 21.4801628,4.00300164 20.0528306,4.00005454 C19.9255553,4.00005454 19.9255553,4.00005454 19.8491632,4.00044472 C19.2968881,4.00370223 18.8518213,4.45405042 18.8550611,5.00632557 C18.8583364,5.55860071 19.3086845,6.00366744 19.8609597,6.00040993 C19.9294211,6.00007123 19.9294211,6.00007123 20.0502372,6.00005454 C21.3630718,6.00276414 22.6584702,6.11533814 23.9196423,6.33378343 C24.4638243,6.42804019 24.9813813,6.06330368 25.075638,5.51912163 C25.1698948,4.97493958 24.8051583,4.45738265 24.2609762,4.36312589 Z M15.697679,4.37032393 C14.2323321,4.62674198 12.8137161,5.01374862 11.4645874,5.52275119 C10.9478559,5.71770493 10.6870034,6.29463984 10.8819572,6.81137138 C11.0769109,7.32810292 11.6538458,7.58895537 12.1705773,7.39400163 C13.4022173,6.92932548 14.6998697,6.57531845 16.0424166,6.34038889 C16.586435,6.24519221 16.9502769,5.727006 16.8550803,5.18298758 C16.7598836,4.63896916 16.2416974,4.27512725 15.697679,4.37032393 Z M7.67838302,7.38946276 C6.38734706,8.19716301 5.22315313,9.1296184 4.21425615,10.1651623 C3.82885461,10.560743 3.83710647,11.1938542 4.23268719,11.5792557 C4.6282679,11.9646572 5.26137911,11.9564054 5.64678064,11.5608247 C6.54252993,10.641417 7.58166812,9.80912434 8.73913893,9.08498536 C9.20734457,8.7920657 9.34944193,8.17505174 9.05652228,7.7068461 C8.76360262,7.23864047 8.14658866,7.0965431 7.67838302,7.38946276 Z M1.66539434,13.5896927 C0.924691553,14.9466438 0.421334944,16.3852176 0.175004337,17.8715943 C0.0847082276,18.4164475 0.453199593,18.9313378 0.998052837,19.0216339 C1.54290608,19.11193 2.05779636,18.7434387 2.14809247,18.1985854 C2.35725022,16.9365125 2.78611618,15.71083 3.42088755,14.547943 C3.68550106,14.0631769 3.50703215,13.4556848 3.02226609,13.1910713 C2.53750002,12.9264577 1.93000785,13.1049267 1.66539434,13.5896927 Z M0.202071643,22.28575 C0.466295846,23.7673494 0.9863307,25.1997137 1.74212872,26.5490745 C2.0120193,27.0309225 2.62142385,27.2027479 3.10327187,26.9328573 C3.5851199,26.6629668 3.75694534,26.0535622 3.48705476,25.5717142 C2.83883564,24.4144189 2.39545847,23.1931977 2.17100657,21.9346158 C2.07404353,21.3909094 1.55467836,21.0287524 1.01097199,21.1257154 C0.467265624,21.2226785 0.105108602,21.7420436 0.202071643,22.28575 Z M4.35014359,29.9727491 C5.3702441,30.9964573 6.5433371,31.9163815 7.84099702,32.7112012 C8.31195979,32.999667 8.92759828,32.8517239 9.21606407,32.3807612 C9.50452985,31.9097984 9.35658681,31.2941599 8.88562404,31.0056941 C7.72134403,30.2925699 6.67338641,29.4707752 5.76685126,28.5610341 C5.37701691,28.169821 4.74385292,28.1687034 4.3526399,28.5585378 C3.96142688,28.9483721 3.96030925,29.5815361 4.35014359,29.9727491 Z M11.6089733,34.5311592 C12.9616744,35.0309628 14.3826472,35.40862 15.8492845,35.655711 C16.3938943,35.7474639 16.9097682,35.3803508 17.0015211,34.835741 C17.093274,34.2911312 16.7261609,33.7752573 16.181551,33.6835044 C14.8375256,33.4570704 13.5373954,33.1115299 12.3021423,32.6551216 C11.7840888,32.4637083 11.2089523,32.7285025 11.017539,33.246556 C10.8261257,33.7646094 11.0909199,34.3397459 11.6089733,34.5311592 Z"/>
  </g>
</svg>
