<?xml version="1.0" encoding="utf-8"?>
<!-- Generator: Adobe Illustrator 23.0.0, SVG Export Plug-In . SVG Version: 6.00 Build 0)  -->
<svg version="1.1" id="图层_1" xmlns="http://www.w3.org/2000/svg" xmlns:xlink="http://www.w3.org/1999/xlink" x="0px" y="0px"
	 viewBox="0 0 40 40" style="enable-background:new 0 0 40 40;" xml:space="preserve">
<style type="text/css">
	.st0{fill:none;}
	.st1{fill:#4F85FF;}
	.st2{fill-rule:evenodd;clip-rule:evenodd;fill:#FF980F;}
	.st3{fill-rule:evenodd;clip-rule:evenodd;fill:#FFFFFF;}
</style>
<g>
	<g>
		<rect id="矩形备份-6" class="st0" width="40" height="40"/>
		<path id="矩形" class="st1" d="M6.3,4c0.6,0,1,0.4,1,1s-0.4,1-1,1H2C1.4,6,1,5.6,1,5s0.4-1,1-1H6.3z M14.6,4c0.6,0,1,0.4,1,1
			s-0.4,1-1,1h-4.3c-0.6,0-1-0.4-1-1s0.4-1,1-1H14.6z M21,7.9c0,0.6-0.4,1-1,1s-1-0.4-1-1V5l1,1h-1.4c-0.6,0-1-0.4-1-1s0.4-1,1-1H20
			c0.6,0,1,0.4,1,1V7.9z M21.2,14c0.6,0,1,0.4,1,1s-0.4,1-1,1H20c-0.6,0-1-0.4-1-1v-3.1c0-0.6,0.4-1,1-1s1,0.4,1,1V15l-1-1H21.2z
			 M29.5,14c0.6,0,1,0.4,1,1s-0.4,1-1,1h-4.3c-0.6,0-1-0.4-1-1s0.4-1,1-1H29.5z M37.8,14c0.6,0,1,0.4,1,1s-0.4,1-1,1h-4.3
			c-0.6,0-1-0.4-1-1s0.4-1,1-1H37.8z M39,23.1c0,0.6-0.4,1-1,1s-1-0.4-1-1v-4.3c0-0.6,0.4-1,1-1s1,0.4,1,1V23.1z M16.7,36
			c-0.6,0-1-0.4-1-1s0.4-1,1-1H21c0.6,0,1,0.4,1,1s-0.4,1-1,1H16.7z M8.4,36c-0.6,0-1-0.4-1-1s0.4-1,1-1h4.3c0.6,0,1,0.4,1,1
			s-0.4,1-1,1H8.4z M1,33.1c0-0.6,0.4-1,1-1s1,0.4,1,1V35l-1-1h2.4c0.6,0,1,0.4,1,1s-0.4,1-1,1H2c-0.6,0-1-0.4-1-1V33.1z M1,24.8
			c0-0.6,0.4-1,1-1s1,0.4,1,1v4.3c0,0.6-0.4,1-1,1s-1-0.4-1-1V24.8z M1,16.5c0-0.6,0.4-1,1-1s1,0.4,1,1v4.3c0,0.6-0.4,1-1,1
			s-1-0.4-1-1V16.5z M1,8.2c0-0.6,0.4-1,1-1s1,0.4,1,1v4.3c0,0.6-0.4,1-1,1s-1-0.4-1-1V8.2z"/>
	</g>
	<g id="WPS-MEMBER" transform="translate(23.000000, 24.000000)">
		<path id="多边形" class="st2" d="M8.9,0.3l5.2,3.1c0.6,0.3,0.9,1,0.9,1.6v6.1c0,0.7-0.3,1.3-0.9,1.6l-5.2,3.1
			c-0.6,0.3-1.3,0.3-1.8,0l-5.2-3.1c-0.6-0.3-0.9-1-0.9-1.6V4.9c0-0.7,0.3-1.3,0.9-1.6l5.2-3.1C7.7-0.1,8.3-0.1,8.9,0.3z"/>
		<g id="图形">
			<path class="st3" d="M4.4,10.8L3.3,6.8c0-0.2,0-0.3,0.2-0.4c0.1,0,0.2,0,0.2,0l2,1c0.1,0,0.1,0,0.2,0l1.8-2.6
				C7.8,4.7,8,4.6,8.2,4.7c0,0,0.1,0.1,0.1,0.1L10,7.5c0,0.1,0.1,0.1,0.2,0l2-1c0.2-0.1,0.3,0,0.4,0.1c0,0.1,0,0.2,0,0.2l-1.1,3.9
				c0,0.1-0.2,0.2-0.3,0.2H4.7C4.6,11,4.5,10.9,4.4,10.8z"/>
		</g>
	</g>
</g>
</svg>
