<?xml version="1.0" encoding="utf-8"?>
<!-- Generator: Adobe Illustrator 23.0.0, SVG Export Plug-In . SVG Version: 6.00 Build 0)  -->
<svg version="1.1" id="图层_1" xmlns="http://www.w3.org/2000/svg" xmlns:xlink="http://www.w3.org/1999/xlink" x="0px" y="0px"
	 viewBox="0 0 40 40" style="enable-background:new 0 0 40 40;" xml:space="preserve">
<style type="text/css">
	.st0{fill:none;}
	.st1{fill:#4F85FF;}
	.st2{fill-rule:evenodd;clip-rule:evenodd;fill:#FF980F;}
	.st3{fill-rule:evenodd;clip-rule:evenodd;fill:#FFFFFF;}
</style>
<g>
	<g>
		<rect id="矩形备份-4" class="st0" width="40" height="40"/>
		<path id="矩形" class="st1" d="M12.2,4c0.6,0,1,0.4,1,1s-0.4,1-1,1h-4c-0.6,0-1-0.4-1-1s0.4-1,1-1H12.2z M20.2,4
			c0.6,0,1,0.4,1,1s-0.4,1-1,1h-4c-0.6,0-1-0.4-1-1s0.4-1,1-1H20.2z M28.2,4c0.6,0,1,0.4,1,1s-0.4,1-1,1h-4c-0.6,0-1-0.4-1-1
			s0.4-1,1-1H28.2z M36.6,5.8c0.4,0.4,0.5,1,0.1,1.4s-1,0.5-1.4,0.1c-0.9-0.8-1.9-1.2-3.1-1.3c-0.6,0-1-0.5-0.9-1.1
			c0-0.6,0.5-1,1.1-0.9C33.9,4.1,35.4,4.7,36.6,5.8z M39,13.9c0,0.6-0.4,1-1,1s-1-0.4-1-1v-2.7c0-0.3,0-0.7-0.1-1
			c-0.1-0.5,0.3-1.1,0.8-1.2c0.5-0.1,1.1,0.3,1.2,0.8c0.1,0.4,0.1,0.9,0.1,1.3V13.9z M39,21.9c0,0.6-0.4,1-1,1s-1-0.4-1-1v-4
			c0-0.6,0.4-1,1-1s1,0.4,1,1V21.9z M16.4,36c-0.6,0-1-0.4-1-1s0.4-1,1-1h4c0.6,0,1,0.4,1,1s-0.4,1-1,1H16.4z M8.4,36
			c-0.6,0-1-0.4-1-1s0.4-1,1-1h4c0.6,0,1,0.4,1,1s-0.4,1-1,1H8.4z M1.3,30.8c-0.2-0.5,0.2-1.1,0.7-1.2s1.1,0.2,1.2,0.7
			c0.3,1.1,1,2.1,1.9,2.7c0.4,0.3,0.5,1,0.2,1.4s-1,0.5-1.4,0.2C2.7,33.7,1.7,32.3,1.3,30.8z M1,22.6c0-0.6,0.4-1,1-1s1,0.4,1,1v4
			c0,0.6-0.4,1-1,1s-1-0.4-1-1V22.6z M1,14.6c0-0.6,0.4-1,1-1s1,0.4,1,1v4c0,0.6-0.4,1-1,1s-1-0.4-1-1V14.6z M2.9,6.3
			c0.4-0.4,1-0.4,1.4-0.1c0.4,0.4,0.4,1,0.1,1.4C3.6,8.5,3.1,9.6,3,10.7c0,0.6-0.5,1-1.1,0.9S1,11.1,1,10.5C1.2,8.9,1.8,7.5,2.9,6.3
			z M8.2,4c0.6,0,1,0.4,1,1s-0.4,1-1,1C7.9,6,7.6,6,7.4,6.1C6.8,6.2,6.3,5.8,6.2,5.2C6.1,4.7,6.5,4.2,7.1,4.1C7.4,4,7.8,4,8.2,4z"/>
	</g>
	<g id="WPS-MEMBER" transform="translate(23.000000, 24.000000)">
		<path id="多边形" class="st2" d="M8.9,0.3l5.2,3.1c0.6,0.3,0.9,1,0.9,1.6v6.1c0,0.7-0.3,1.3-0.9,1.6l-5.2,3.1
			c-0.6,0.3-1.3,0.3-1.8,0l-5.2-3.1c-0.6-0.3-0.9-1-0.9-1.6V4.9c0-0.7,0.3-1.3,0.9-1.6l5.2-3.1C7.7-0.1,8.3-0.1,8.9,0.3z"/>
		<g id="图形">
			<path class="st3" d="M4.4,10.8L3.3,6.8c0-0.2,0-0.3,0.2-0.4c0.1,0,0.2,0,0.2,0l2,1c0.1,0,0.1,0,0.2,0l1.8-2.6
				C7.8,4.7,8,4.6,8.2,4.7c0,0,0.1,0.1,0.1,0.1L10,7.5c0,0.1,0.1,0.1,0.2,0l2-1c0.2-0.1,0.3,0,0.4,0.1c0,0.1,0,0.2,0,0.2l-1.1,3.9
				c0,0.1-0.2,0.2-0.3,0.2H4.7C4.6,11,4.5,10.9,4.4,10.8z"/>
		</g>
	</g>
</g>
</svg>
