<?xml version="1.0" encoding="UTF-8"?>
<svg width="16px" height="16px" viewBox="0 0 16 16" version="1.1" xmlns="http://www.w3.org/2000/svg" xmlns:xlink="http://www.w3.org/1999/xlink">
    <title>undo_dark</title>
    <defs>
        <rect id="path-1" x="0" y="0" width="16" height="16"></rect>
    </defs>
    <g id="undo_dark" stroke="none" stroke-width="1" fill="none" fill-rule="evenodd">
        <g id="undo">
            <mask id="mask-2" fill="white">
                <use xlink:href="#path-1"></use>
            </mask>
            <g id="返回-a"></g>
            <path d="M2.70710678,7 L6,7 C6.27614237,7 6.5,7.22385763 6.5,7.5 C6.5,7.77614237 6.27614237,8 6,8 L1.5,8 C1.22385763,8 1,7.77614237 1,7.5 L1,3 C1,2.72385763 1.22385763,2.5 1.5,2.5 C1.77614237,2.5 2,2.72385763 2,3 L2,6.29289322 L5.64644661,2.64644661 C7.77470538,0.518187839 11.2252946,0.518187839 13.3535534,2.64644661 C15.4818122,4.77470538 15.4818122,8.22529462 13.3535534,10.3535534 L8.85355339,14.8535534 C8.65829124,15.0488155 8.34170876,15.0488155 8.14644661,14.8535534 C7.95118446,14.6582912 7.95118446,14.3417088 8.14644661,14.1464466 L12.6464466,9.64644661 C14.3841811,7.90871213 14.3841811,5.09128787 12.6464466,3.35355339 C10.9087121,1.61581891 8.09128787,1.61581891 6.35355339,3.35355339 L2.70710678,7 Z" id="路径" fill-opacity="0.85" fill="#FFFFFF" fill-rule="nonzero" mask="url(#mask-2)"></path>
        </g>
    </g>
</svg>