<svg xmlns="http://www.w3.org/2000/svg" xmlns:xlink="http://www.w3.org/1999/xlink" viewBox="0 0 32 32">
  <defs>
    <circle id="截图取字-a" cx="16" cy="16" r="16"/>
  </defs>
  <g fill="none" fill-rule="evenodd">
    <mask id="截图取字-b" fill="#fff">
      <use xlink:href="#截图取字-a"/>
    </mask>
    <use fill="#238DE1" xlink:href="#截图取字-a"/>
    <g mask="url(#截图取字-b)">
      <g transform="translate(4 4)">
        <path fill="#238DE1" d="M22,24 L2,24 C0.896,24 0,23.104 0,22 L0,2 C0,0.896 0.896,0 2,0 L22,0 C23.104,0 24,0.896 24,2 L24,22 C24,23.104 23.104,24 22,24"/>
        <path fill="#FFF" d="M11.9795,9.0376 C11.9115,9.0376 11.6805,9.0576 11.5765,9.3056 L10.4535,11.9996 L13.5045,11.9996 L12.3815,9.3056 C12.2775,9.0576 12.0475,9.0376 11.9795,9.0376"/>
        <path fill="#FFF" d="M15.6714,15.8989 C15.6084,15.9249 15.5434,15.9379 15.4794,15.9379 C15.2834,15.9379 15.0974,15.8219 15.0174,15.6299 L13.9214,12.9999 L10.0364,12.9999 L8.9404,15.6299 C8.8344,15.8849 8.5414,16.0059 8.2864,15.8989 C8.0314,15.7929 7.9114,15.4999 8.0174,15.2449 L10.6534,8.9209 C10.8814,8.3759 11.3894,8.0379 11.9794,8.0379 C12.5694,8.0379 13.0774,8.3769 13.3044,8.9209 L15.9404,15.2449 C16.0464,15.4999 15.9264,15.7929 15.6714,15.8989 M16.0004,6.9999 L8.0004,6.9999 C7.4474,6.9999 7.0004,7.4479 7.0004,7.9999 L7.0004,15.9999 C7.0004,16.5519 7.4474,16.9999 8.0004,16.9999 L16.0004,16.9999 C16.5524,16.9999 17.0004,16.5519 17.0004,15.9999 L17.0004,7.9999 C17.0004,7.4479 16.5524,6.9999 16.0004,6.9999"/>
        <path fill="#FFF" fill-opacity=".8" d="M15,13.0852124 C15.5828444,13.2909363 16,13.8463544 16,14.5 C16,15.329 15.329,16 14.5,16 C13.8463544,16 13.2909363,15.5828444 13.0852124,15 L2.91478764,15 C2.70906372,15.5828444 2.15364556,16 1.5,16 C0.671,16 0,15.329 0,14.5 C0,13.8463544 0.417155613,13.2909363 1,13.0852124 L1,2.91478764 C0.417155613,2.70906372 0,2.15364556 0,1.5 C0,0.671 0.671,0 1.5,0 C2.15364556,0 2.70906372,0.417155613 2.91478764,1 L13.0852124,1 C13.2909363,0.417155613 13.8463544,0 14.5,0 C15.329,0 16,0.671 16,1.5 C16,2.15364556 15.5828444,2.70906372 15,2.91478764 L15,13.0852124 Z M13.0852124,14 C13.2357464,13.5735161 13.5735161,13.2357464 14,13.0852124 L14,2.91478764 C13.5735161,2.76425357 13.2357464,2.42648388 13.0852124,2 L2.91478764,2 C2.76425357,2.42648388 2.42648388,2.76425357 2,2.91478764 L2,13.0852124 C2.42648388,13.2357464 2.76425357,13.5735161 2.91478764,14 L13.0852124,14 Z" transform="translate(4 4)"/>
      </g>
    </g>
  </g>
</svg>
