<svg xmlns="http://www.w3.org/2000/svg" width="40" height="40" viewBox="0 0 40 40">
  <path fill="#4F85FF" d="M24.1512428,0.344476242 C24.6958484,0.436254331 25.0629376,0.952145217 24.9711595,1.49675079 C24.8793814,2.04135636 24.3634905,2.40844556 23.818885,2.31666747 C22.5736325,2.10681487 21.2956197,2 19.9994159,2 C19.4471312,2 18.9994159,1.55228475 18.9994159,1 C18.9994159,0.44771525 19.4471312,2.84217094e-14 19.9994159,2.84217094e-14 C21.4069255,2.84217094e-14 22.7961113,0.1161066 24.1512428,0.344476242 Z M32.0159786,3.20235727 C32.4892959,3.48694337 32.6422927,4.10134541 32.3577066,4.57466264 C32.0731205,5.04797986 31.4587184,5.20097668 30.9854012,4.91639058 C29.920706,4.2762333 28.767247,3.73006346 27.5458844,3.28961464 C27.0263495,3.10225952 26.7570646,2.52921194 26.9444197,2.00967705 C27.1317749,1.49014216 27.7048224,1.22085725 28.2243573,1.40821237 C29.5673304,1.89251647 30.838774,2.49455275 32.0159786,3.20235727 Z M38.0705144,9.12723862 C38.3525968,9.60205217 38.1963574,10.2156377 37.7215439,10.4977201 C37.2467303,10.7798026 36.6331448,10.6235632 36.3510624,10.1487497 C35.7322546,9.10714545 34.9492318,8.12692516 34.0210248,7.23075035 C33.6237049,6.84714196 33.6125896,6.21407455 33.996198,5.81675473 C34.3798064,5.4194349 35.0128738,5.4083196 35.4101937,5.79192799 C36.4644854,6.80983638 37.3590929,7.92974292 38.0705144,9.12723862 Z M39.914699,17.4841168 C39.8517644,18.032804 39.3559468,18.4265842 38.8072596,18.3636495 C38.2585724,18.3007149 37.8647921,17.8048973 37.9277268,17.2562101 C37.9760862,16.8345958 37.9994053,16.415163 37.9993095,15.9513967 C37.9957666,15.1425125 37.9037831,14.3429582 37.7256604,13.5581511 C37.6034207,13.0195641 37.9409369,12.4838583 38.4795238,12.3616186 C39.0181108,12.2393789 39.5538166,12.5768951 39.6760563,13.115482 C39.8863852,14.0421892 39.9951057,14.9872277 39.9993003,15.9467915 C39.9994223,16.4900756 39.9718666,16.9857097 39.914699,17.4841168 Z M36.3444543,25.2321611 C35.9788234,25.6460844 35.3468698,25.6852331 34.9329465,25.3196023 C34.5190232,24.9539714 34.4798745,24.3220178 34.8455054,23.9080945 C35.6957048,22.9456011 36.3877044,21.9056812 36.9041737,20.811865 C37.1399823,20.3124526 37.7359967,20.0987595 38.2354091,20.334568 C38.7348215,20.5703766 38.9485147,21.166391 38.7127061,21.6658034 C38.1142916,22.9331688 37.3174239,24.130682 36.3444543,25.2321611 Z M29.4404908,30.112743 C28.9328122,30.3301845 28.3449861,30.0949009 28.1275445,29.5872222 C27.910103,29.0795436 28.1453867,28.4917175 28.6530653,28.2742759 C29.8469759,27.7629175 30.9626977,27.1473597 31.9788155,26.4410665 C32.4323084,26.1258482 33.055472,26.2379419 33.3706904,26.6914348 C33.6859087,27.1449278 33.573815,27.7680914 33.1203221,28.0833097 C31.9920599,28.8675533 30.7576203,29.5486092 29.4404908,30.112743 Z M21.3730808,31.9629242 C20.8216043,31.9927911 20.3503322,31.569943 20.3204653,31.0184664 C20.2905983,30.4669898 20.7134465,29.9957178 21.264923,29.9658508 C22.5593601,29.8957465 23.8291863,29.7181934 25.0586702,29.4378832 C25.5971376,29.315118 26.1331726,29.6521112 26.2559378,30.1905786 C26.378703,30.729046 26.0417098,31.265081 25.5032424,31.3878462 C24.1630234,31.6934028 22.7806506,31.8866928 21.3730808,31.9629242 Z M13.0533933,31.0108624 C12.5237701,30.8542809 12.2213602,30.2980021 12.3779417,29.7683789 C12.5345233,29.2387558 13.0908021,28.9363458 13.6204252,29.0929274 C14.8271982,29.4497063 16.0832063,29.7045045 17.371471,29.8514745 C17.9201964,29.9140752 18.3142784,30.4096529 18.2516778,30.9583783 C18.1890772,31.5071037 17.6934995,31.9011857 17.144774,31.8385851 C15.7415235,31.6784971 14.3716346,31.4005966 13.0533933,31.0108624 Z M5.63161032,27.1387336 C5.20564825,26.7872015 5.14531077,26.156918 5.49684279,25.730956 C5.84837481,25.3049939 6.4786583,25.2446564 6.90462037,25.5961884 C7.85426735,26.3798998 8.91701443,27.0775574 10.0711013,27.673541 C10.5618165,27.9269518 10.7541896,28.5301852 10.5007788,29.0209003 C10.2473679,29.5116155 9.64413457,29.7039887 9.1534194,29.4505778 C7.87429077,28.7900213 6.69229719,28.0140824 5.63161032,27.1387336 Z M0.709728671,20.2469405 C0.530866247,19.724421 0.80945539,19.1558385 1.33197494,18.9769761 C1.85449449,18.7981137 2.42307692,19.0767028 2.60193934,19.5992224 C2.9940136,20.7446081 3.57299178,21.8447676 4.32377065,22.8758978 C4.64885411,23.322372 4.55044749,23.9478431 4.10397332,24.2729265 C3.65749914,24.59801 3.0320281,24.4996034 2.70694464,24.0531292 C1.84026913,22.8628249 1.16769186,21.5848108 0.709728671,20.2469405 Z M0.759899399,11.6091494 C0.944645153,11.0886809 1.51633425,10.8165238 2.03680275,11.0012696 C2.55727124,11.1860153 2.82942829,11.7577044 2.64468254,12.2781729 C2.23002223,13.4463601 2.01208965,14.6573841 1.99995262,15.8908714 C1.99451862,16.4431294 1.54241991,16.8864179 0.990161896,16.8810333 C0.43790388,16.8755499 -0.00538457064,16.4234512 4.9429732e-05,15.8711932 C0.0143817052,14.4146025 0.271774872,12.9843011 0.759899399,11.6091494 Z M5.74805147,4.76596624 C6.17686074,4.41791301 6.80663223,4.4833787 7.15468547,4.91218797 C7.5027387,5.34099724 7.43727301,5.97076873 7.00846374,6.31882197 C6.00317969,7.13478467 5.12772747,8.04118872 4.40260007,9.01694044 C4.0731765,9.46022201 3.44677521,9.55252216 3.00349364,9.22309858 C2.56021206,8.89367501 2.46791192,8.26727372 2.79733549,7.82399215 C3.62360393,6.71214223 4.61527131,5.68541419 5.74805147,4.76596624 Z M13.1817402,0.951592892 C13.7122541,0.798056451 14.2667865,1.10365707 14.4203229,1.63417098 C14.5738594,2.16468488 14.2682588,2.71921726 13.7377449,2.8727537 C12.4911647,3.23352744 11.3017308,3.70120054 10.1894554,4.26585878 C9.69699516,4.51586141 9.09511005,4.31931064 8.84510743,3.82685036 C8.5951048,3.33439008 8.79165557,2.73250496 9.28411585,2.48250234 C10.5089292,1.86071297 11.8153586,1.34703845 13.1817402,0.951592892 Z M19.9619025,2.6397456e-05 C20.5141867,-0.000782154308 20.9625578,0.446276264 20.9633686,0.99856042 C20.9641771,1.55084458 20.5171187,1.9992157 19.9648345,2.0000264 C19.1561765,2.00121084 18.3543964,2.04397724 17.5629299,2.12750253 C17.0136951,2.18546454 16.5214648,1.78720927 16.4635028,1.23797449 C16.4055408,0.688739703 16.8037961,0.196509441 17.3530309,0.138547427 C18.2132596,0.0477654977 19.0841215,0.0013143243 19.9619025,2.6397456e-05 Z" transform="translate(0 4)"/>
</svg>
