<?xml version="1.0" encoding="UTF-8"?>
<svg width="40px" height="40px" viewBox="0 0 40 40" version="1.1" xmlns="http://www.w3.org/2000/svg" xmlns:xlink="http://www.w3.org/1999/xlink">
    <!-- Generator: Sketch 55 (78076) - https://sketchapp.com -->
    <title>TopEllipse</title>
    <desc>Created with Sketch.</desc>
    <g id="TopEllipse" stroke="none" stroke-width="1" fill="none" fill-rule="evenodd">
        <g>
            <rect id="矩形" x="0" y="0" width="40" height="40"></rect>
            <path d="M39.806855,22.2351181 C39.9324687,21.5143259 39.9972343,20.7839697 39.9999134,20.0476542 C40.000005,19.2165366 39.9296699,18.4332364 39.7873619,17.6557713 C39.6879233,17.1125123 39.1669138,16.7527248 38.6236548,16.8521635 C38.0803957,16.9516021 37.7206082,17.4726116 37.8200469,18.0158706 C37.940486,18.6738603 37.9999926,19.3365679 37.9999199,20.0439131 C37.9976584,20.6637867 37.9428622,21.2817179 37.8365509,21.8917496 C37.7417323,22.435834 38.1059342,22.9537673 38.6500187,23.0485859 C39.1941031,23.1434045 39.7120364,22.7792025 39.806855,22.2351181 Z M38.3114921,13.5475158 C37.6059388,12.2650945 36.6930096,11.0653111 35.5996064,9.97703025 C35.2081663,9.58742395 34.5750031,9.58891055 34.1853967,9.98035068 C33.7957904,10.3717908 33.797277,11.004954 34.1887172,11.3945603 C35.1496746,12.3510159 35.9470106,13.3988852 36.5591882,14.5115857 C36.8254087,14.9954711 37.4334897,15.1719233 37.9173751,14.9057027 C38.4012605,14.6394821 38.5777127,14.0314011 38.3114921,13.5475158 Z M32.2804007,7.36374614 C31.0567725,6.60232256 29.7265596,5.95680071 28.316219,5.44135046 C27.7974932,5.2517669 27.2232949,5.51858946 27.0337114,6.03731532 C26.8441278,6.55604118 27.1109504,7.13023942 27.6296762,7.31982298 C28.9118285,7.78842305 30.1179427,8.37372268 31.223742,9.06182516 C31.6926535,9.35361341 32.3093226,9.21002658 32.6011108,8.74111501 C32.8928991,8.27220343 32.7493122,7.65553439 32.2804007,7.36374614 Z M34.3077251,32.8491752 C33.0840969,33.6105988 31.753884,34.2561207 30.3435434,34.7715709 C29.8248176,34.9611545 29.2506193,34.6943319 29.0610358,34.1756061 C28.8714522,33.6568802 29.1382748,33.082682 29.6570006,32.8930984 C30.9391529,32.4244983 32.1452671,31.8391987 33.2510664,31.1510962 C33.7199779,30.859308 34.336647,31.0028948 34.6284352,31.4718064 C34.9202235,31.9407179 34.7766366,32.557387 34.3077251,32.8491752 Z M24.2609762,4.36312589 C22.8883673,4.12537884 21.4801628,4.00300164 20.0528306,4.00005454 C19.9255553,4.00005454 19.9255553,4.00005454 19.8491632,4.00044472 C19.2968881,4.00370223 18.8518213,4.45405042 18.8550611,5.00632557 C18.8583364,5.55860071 19.3086845,6.00366744 19.8609597,6.00040993 C19.9294211,6.00007123 19.9294211,6.00007123 20.0502372,6.00005454 C21.3630718,6.00276414 22.6584702,6.11533814 23.9196423,6.33378343 C24.4638243,6.42804019 24.9813813,6.06330368 25.075638,5.51912163 C25.1698948,4.97493958 24.8051583,4.45738265 24.2609762,4.36312589 Z M25.4059327,35.9854924 C24.0333238,36.2232395 22.6251193,36.3456167 21.1977871,36.3485638 C21.0705118,36.3485638 21.0705118,36.3485638 20.9941197,36.3481736 C20.4418446,36.3449161 19.9967778,35.8945679 20.0000176,35.3422927 C20.0032929,34.7900176 20.453641,34.3449509 21.0059162,34.3482084 C21.0743776,34.3485471 21.0743776,34.3485471 21.1951937,34.3485638 C22.5080283,34.3458542 23.8034267,34.2332802 25.0645988,34.0148349 C25.6087808,33.9205781 26.1263378,34.2853146 26.2205945,34.8294967 C26.3148513,35.3736787 25.9501148,35.8912356 25.4059327,35.9854924 Z M15.697679,4.37032393 C14.2323321,4.62674198 12.8137161,5.01374862 11.4645874,5.52275119 C10.9478559,5.71770493 10.6870034,6.29463984 10.8819572,6.81137138 C11.0769109,7.32810292 11.6538458,7.58895537 12.1705773,7.39400163 C13.4022173,6.92932548 14.6998697,6.57531845 16.0424166,6.34038889 C16.586435,6.24519221 16.9502769,5.727006 16.8550803,5.18298758 C16.7598836,4.63896916 16.2416974,4.27512725 15.697679,4.37032393 Z M7.67838302,7.38946276 C6.38734706,8.19716301 5.22315313,9.1296184 4.21425615,10.1651623 C3.82885461,10.560743 3.83710647,11.1938542 4.23268719,11.5792557 C4.6282679,11.9646572 5.26137911,11.9564054 5.64678064,11.5608247 C6.54252993,10.641417 7.58166812,9.80912434 8.73913893,9.08498536 C9.20734457,8.7920657 9.34944193,8.17505174 9.05652228,7.7068461 C8.76360262,7.23864047 8.14658866,7.0965431 7.67838302,7.38946276 Z M39.574424,25.8459374 C39.0031806,27.2576153 38.2870515,28.5660417 37.4424329,29.7394315 C37.1197863,30.1876698 36.4948605,30.289482 36.0466223,29.9668353 C35.598384,29.6441886 35.4965718,29.0192628 35.8192185,28.5710246 C36.5691131,27.5292302 37.2083169,26.3613528 37.7204619,25.0957211 C37.9276284,24.5837636 38.5105936,24.3366817 39.0225511,24.5438482 C39.5345086,24.7510147 39.7815905,25.3339799 39.574424,25.8459374 Z M1.66539434,13.5896927 C0.924691553,14.9466438 0.421334944,16.3852176 0.175004337,17.8715943 C0.0847082276,18.4164475 0.453199593,18.9313378 0.998052837,19.0216339 C1.54290608,19.11193 2.05779636,18.7434387 2.14809247,18.1985854 C2.35725022,16.9365125 2.78611618,15.71083 3.42088755,14.547943 C3.68550106,14.0631769 3.50703215,13.4556848 3.02226609,13.1910713 C2.53750002,12.9264577 1.93000785,13.1049267 1.66539434,13.5896927 Z M0.202071643,22.28575 C0.466295846,23.7673494 0.9863307,25.1997137 1.74212872,26.5490745 C2.0120193,27.0309225 2.62142385,27.2027479 3.10327187,26.9328573 C3.5851199,26.6629668 3.75694534,26.0535622 3.48705476,25.5717142 C2.83883564,24.4144189 2.39545847,23.1931977 2.17100657,21.9346158 C2.07404353,21.3909094 1.55467836,21.0287524 1.01097199,21.1257154 C0.467265624,21.2226785 0.105108602,21.7420436 0.202071643,22.28575 Z M4.35014359,29.9727491 C5.3702441,30.9964573 6.5433371,31.9163815 7.84099702,32.7112012 C8.31195979,32.999667 8.92759828,32.8517239 9.21606407,32.3807612 C9.50452985,31.9097984 9.35658681,31.2941599 8.88562404,31.0056941 C7.72134403,30.2925699 6.67338641,29.4707752 5.76685126,28.5610341 C5.37701691,28.169821 4.74385292,28.1687034 4.3526399,28.5585378 C3.96142688,28.9483721 3.96030925,29.5815361 4.35014359,29.9727491 Z M11.6089733,34.5311592 C12.9616744,35.0309628 14.3826472,35.40862 15.8492845,35.655711 C16.3938943,35.7474639 16.9097682,35.3803508 17.0015211,34.835741 C17.093274,34.2911312 16.7261609,33.7752573 16.181551,33.6835044 C14.8375256,33.4570704 13.5373954,33.1115299 12.3021423,32.6551216 C11.7840888,32.4637083 11.2089523,32.7285025 11.017539,33.246556 C10.8261257,33.7646094 11.0909199,34.3397459 11.6089733,34.5311592 Z" id="形状" fill="#4F85FF" fill-rule="nonzero"></path>
        </g>
    </g>
</svg>