<svg xmlns="http://www.w3.org/2000/svg" width="40" height="40" viewBox="0 0 40 40">
  <g fill="#4F85FF" transform="translate(1 4)">
    <path d="M5 0C5.55228475 0 6 .44771525 6 1 6 1.51283584 5.61395981 1.93550716 5.11662113 1.99327227L5 2 1 2C.44771525 2 0 1.55228475 0 1 0 .487164161.38604019.0644928393.883378875.00672773133L1 0 5 0zM13 0C13.5522847 0 14 .44771525 14 1 14 1.51283584 13.6139598 1.93550716 13.1166211 1.99327227L13 2 9 2C8.44771525 2 8 1.55228475 8 1 8 .487164161 8.38604019.0644928393 8.88337887.00672773133L9 0 13 0zM13.5 30C14.0522847 30 14.5 30.4477153 14.5 31 14.5 31.5128358 14.1139598 31.9355072 13.6166211 31.9932723L13.5 32 9.5 32C8.94771525 32 8.5 31.5522847 8.5 31 8.5 30.4871642 8.88604019 30.0644928 9.38337887 30.0067277L9.5 30 13.5 30zM22 30C22.5522847 30 23 30.4477153 23 31 23 31.5128358 22.6139598 31.9355072 22.1166211 31.9932723L22 32 18 32C17.4477153 32 17 31.5522847 17 31 17 30.4871642 17.3860402 30.0644928 17.8833789 30.0067277L18 30 22 30zM30.5 30C31.0522847 30 31.5 30.4477153 31.5 31 31.5 31.5128358 31.1139598 31.9355072 30.6166211 31.9932723L30.5 32 26.5 32C25.9477153 32 25.5 31.5522847 25.5 31 25.5 30.4871642 25.8860402 30.0644928 26.3833789 30.0067277L26.5 30 30.5 30zM31 10C31.5522847 10 32 10.4477153 32 11 32 11.5128358 31.6139598 11.9355072 31.1166211 11.9932723L31 12 27 12C26.4477153 12 26 11.5522847 26 11 26 10.4871642 26.3860402 10.0644928 26.8833789 10.0067277L27 10 31 10z"/>
    <path d="M3,6 C3.55228475,6 4,6.44771525 4,7 C4,7.51283584 3.61395981,7.93550716 3.11662113,7.99327227 L3,8 L-1,8 C-1.55228475,8 -2,7.55228475 -2,7 C-2,6.48716416 -1.61395981,6.06449284 -1.11662113,6.00672773 L-1,6 L3,6 Z" transform="rotate(90 1 7)"/>
    <path d="M3,14 C3.55228475,14 4,14.4477153 4,15 C4,15.5128358 3.61395981,15.9355072 3.11662113,15.9932723 L3,16 L-1,16 C-1.55228475,16 -2,15.5522847 -2,15 C-2,14.4871642 -1.61395981,14.0644928 -1.11662113,14.0067277 L-1,14 L3,14 Z" transform="rotate(90 1 15)"/>
    <path d="M3,22 C3.55228475,22 4,22.4477153 4,23 C4,23.5128358 3.61395981,23.9355072 3.11662113,23.9932723 L3,24 L-1,24 C-1.55228475,24 -2,23.5522847 -2,23 C-2,22.4871642 -1.61395981,22.0644928 -1.11662113,22.0067277 L-1,22 L3,22 Z" transform="rotate(90 1 23)"/>
    <path d="M39,20 C39.5522847,20 40,20.4477153 40,21 C40,21.5128358 39.6139598,21.9355072 39.1166211,21.9932723 L39,22 L35,22 C34.4477153,22 34,21.5522847 34,21 C34,20.4871642 34.3860402,20.0644928 34.8833789,20.0067277 L35,20 L39,20 Z" transform="rotate(90 37 21)"/>
    <path d="M19,0 C19.5128358,0 19.9355072,0.38604019 19.9932723,0.883378875 L20,1 L20,4 C20,4.55228475 19.5522847,5 19,5 C18.4871642,5 18.0644928,4.61395981 18.0067277,4.11662113 L18,4 L18,2 L17,2 C16.4871642,2 16.0644928,1.61395981 16.0067277,1.11662113 L16,1 C16,0.487164161 16.3860402,0.0644928393 16.8833789,0.00672773133 L17,0 L19,0 Z"/>
    <path d="M23,7 C23.5128358,7 23.9355072,7.38604019 23.9932723,7.88337887 L24,8 L24,11 C24,11.5522847 23.5522847,12 23,12 C22.4871642,12 22.0644928,11.6139598 22.0067277,11.1166211 L22,11 L22,9 L19,9 C18.4871642,9 18.0644928,8.61395981 18.0067277,8.11662113 L18,8 C18,7.48716416 18.3860402,7.06449284 18.8833789,7.00672773 L19,7 L23,7 Z" transform="rotate(180 21 9.5)"/>
    <path d="M1 28C1.51283584 28 1.93550716 28.3860402 1.99327227 28.8833789L2 29 2 30 5 30C5.51283584 30 5.93550716 30.3860402 5.99327227 30.8833789L6 31C6 31.5128358 5.61395981 31.9355072 5.11662113 31.9932723L5 32 1 32C.487164161 32 .0644928393 31.6139598.00672773133 31.1166211L0 31 0 29C0 28.4477153.44771525 28 1 28zM37 26C37.5128358 26 37.9355072 26.3860402 37.9932723 26.8833789L38 27 38 31C38 31.5128358 37.6139598 31.9355072 37.1166211 31.9932723L37 32 35 32C34.4477153 32 34 31.5522847 34 31 34 30.4871642 34.3860402 30.0644928 34.8833789 30.0067277L35 30 36 30 36 27C36 26.4871642 36.3860402 26.0644928 36.8833789 26.0067277L37 26z"/>
    <path d="M37,10 C37.5128358,10 37.9355072,10.3860402 37.9932723,10.8833789 L38,11 L38,15 C38,15.5128358 37.6139598,15.9355072 37.1166211,15.9932723 L37,16 L35,16 C34.4477153,16 34,15.5522847 34,15 C34,14.4871642 34.3860402,14.0644928 34.8833789,14.0067277 L35,14 L36,14 L36,11 C36,10.4871642 36.3860402,10.0644928 36.8833789,10.0067277 L37,10 Z" transform="matrix(1 0 0 -1 0 26)"/>
  </g>
</svg>
