<svg xmlns="http://www.w3.org/2000/svg" width="40" height="40" viewBox="0 0 40 40">
  <path fill="#4F85FF" d="M35.4004755,1.55586267 C35.8298122,1.90326505 35.8962331,2.53293651 35.5488307,2.96227325 C35.2014284,3.39160998 34.5717569,3.4580309 34.1424202,3.11062853 C33.2589711,2.39577631 32.1611379,2 31,2 C30.4477153,2 30,1.55228475 30,1 C30,0.44771525 30.4477153,0 31,0 C32.6232965,0 34.1641754,0.555497344 35.4004755,1.55586267 Z M38,9.63450874 C38,10.1867935 37.5522847,10.6345087 37,10.6345087 C36.4477153,10.6345087 36,10.1867935 36,9.63450874 L36,7 C36,6.64304181 35.9627541,6.29155364 35.8896012,5.94918299 C35.7742016,5.40908913 36.1184843,4.87770668 36.6585781,4.76230707 C37.198672,4.64690746 37.7300544,4.99119017 37.8454541,5.53128402 C37.9479118,6.01080712 38,6.50236186 38,7 L38,9.63450874 Z M38,17.6345087 C38,18.1867935 37.5522847,18.6345087 37,18.6345087 C36.4477153,18.6345087 36,18.1867935 36,17.6345087 L36,13.6345087 C36,13.082224 36.4477153,12.6345087 37,12.6345087 C37.5522847,12.6345087 38,13.082224 38,13.6345087 L38,17.6345087 Z M37.9614515,25.7382622 C37.9037818,26.2875277 37.4117636,26.6860449 36.8624981,26.6283753 C36.3132325,26.5707056 35.9147153,26.0786873 35.972385,25.5294218 C35.9907453,25.3545518 36,25.1779357 36,25 L36,21.6345087 C36,21.082224 36.4477153,20.6345087 37,20.6345087 C37.5522847,20.6345087 38,21.082224 38,21.6345087 L38,25 C38,25.2477233 37.9870926,25.4940479 37.9614515,25.7382622 Z M31.7569426,31.9594649 C31.2078333,32.0186046 30.7147502,31.6214057 30.6556106,31.0722965 C30.5964709,30.5231873 30.9936698,30.0301041 31.542779,29.9709645 C32.6872784,29.8477007 33.7412902,29.3341811 34.5453076,28.5257333 C34.9347575,28.1341375 35.5679201,28.1323978 35.9595159,28.5218477 C36.3511117,28.9112975 36.3528513,29.5444601 35.9634015,29.9360559 C34.8389437,31.0667096 33.3611706,31.7866879 31.7569426,31.9594649 Z M23.7309825,32 C23.1786978,32 22.7309825,31.5522847 22.7309825,31 C22.7309825,30.4477153 23.1786978,30 23.7309825,30 L27.7309825,30 C28.2832673,30 28.7309825,30.4477153 28.7309825,31 C28.7309825,31.5522847 28.2832673,32 27.7309825,32 L23.7309825,32 Z M15.7309825,32 C15.1786978,32 14.7309825,31.5522847 14.7309825,31 C14.7309825,30.4477153 15.1786978,30 15.7309825,30 L19.7309825,30 C20.2832673,30 20.7309825,30.4477153 20.7309825,31 C20.7309825,31.5522847 20.2832673,32 19.7309825,32 L15.7309825,32 Z M7.73098251,32 C7.17869776,32 6.73098251,31.5522847 6.73098251,31 C6.73098251,30.4477153 7.17869776,30 7.73098251,30 L11.7309825,30 C12.2832673,30 12.7309825,30.4477153 12.7309825,31 C12.7309825,31.5522847 12.2832673,32 11.7309825,32 L7.73098251,32 Z M0.397934548,27.3314431 C0.214031009,26.8106764 0.487112539,26.2394283 1.00787922,26.0555248 C1.5286459,25.8716213 2.09989398,26.1447028 2.28379751,26.6654695 C2.66406483,27.742287 3.40750528,28.6596693 4.3793254,29.2591623 C4.84937003,29.5491218 4.99535788,30.1652268 4.70539841,30.6352714 C4.41543893,31.1053161 3.79933388,31.2513039 3.32928926,30.9613444 C1.97006566,30.1228714 0.930844669,28.8405051 0.397934548,27.3314431 Z M0,19.0964738 C0,18.544189 0.44771525,18.0964738 1,18.0964738 C1.55228475,18.0964738 2,18.544189 2,19.0964738 L2,23.0964738 C2,23.6487585 1.55228475,24.0964738 1,24.0964738 C0.44771525,24.0964738 0,23.6487585 0,23.0964738 L0,19.0964738 Z M0,11.0964738 C0,10.544189 0.44771525,10.0964738 1,10.0964738 C1.55228475,10.0964738 2,10.544189 2,11.0964738 L2,15.0964738 C2,15.6487585 1.55228475,16.0964738 1,16.0964738 C0.44771525,16.0964738 0,15.6487585 0,15.0964738 L0,11.0964738 Z M1.48150778,2.69303 C1.82156215,2.25785019 2.45001363,2.18073578 2.88519344,2.52079015 C3.32037326,2.86084452 3.39748767,3.48929599 3.0574333,3.92447581 C2.37573016,4.79687584 2,5.86847393 2,7 L2,7.09647377 C2,7.64875852 1.55228475,8.09647377 1,8.09647377 C0.44771525,8.09647377 0,7.64875852 0,7.09647377 L0,7 C0,5.41818164 0.527386513,3.91405333 1.48150778,2.69303 Z M9.53803498,0 C10.0903197,0 10.538035,0.44771525 10.538035,1 C10.538035,1.55228475 10.0903197,2 9.53803498,2 L7,2 C6.61398854,2 6.23440115,2.04355645 5.86589203,2.12894534 C5.32786227,2.25361461 4.79063857,1.91851974 4.66596929,1.38048998 C4.54130001,0.842460229 4.87639489,0.305236519 5.41442465,0.180567244 C5.9307131,0.0609357431 6.46175825,0 7,0 L9.53803498,0 Z M17.538035,0 C18.0903197,0 18.538035,0.44771525 18.538035,1 C18.538035,1.55228475 18.0903197,2 17.538035,2 L13.538035,2 C12.9857502,2 12.538035,1.55228475 12.538035,1 C12.538035,0.44771525 12.9857502,0 13.538035,0 L17.538035,0 Z M25.538035,0 C26.0903197,0 26.538035,0.44771525 26.538035,1 C26.538035,1.55228475 26.0903197,2 25.538035,2 L21.538035,2 C20.9857502,2 20.538035,1.55228475 20.538035,1 C20.538035,0.44771525 20.9857502,0 21.538035,0 L25.538035,0 Z M31,0 C31.5522847,0 32,0.44771525 32,1 C32,1.55228475 31.5522847,2 31,2 L29.538035,2 C28.9857502,2 28.538035,1.55228475 28.538035,1 C28.538035,0.44771525 28.9857502,0 29.538035,0 L31,0 Z" transform="translate(1 4)"/>
</svg>
