<?xml version="1.0" encoding="UTF-8"?>
<svg width="16px" height="16px" viewBox="0 0 16 16" version="1.1" xmlns="http://www.w3.org/2000/svg" xmlns:xlink="http://www.w3.org/1999/xlink">
    <title>箭头</title>
    <g id="箭头" stroke="none" stroke-width="1" fill="none" fill-rule="evenodd">
        <g id="编组">
            <polygon id="#" points="0 0 16 0 16 16 0 16"></polygon>
            <path d="M14.3915348,1.01190647 C14.748784,0.932517747 15.0674823,1.25121598 14.9880935,1.60846523 L14.9880935,1.60846523 L12.9880935,10.6084652 C12.8814023,11.0885759 12.2184199,11.142341 12.0357617,10.6856953 L12.0357617,10.6856953 L10.316,6.38964941 L1.85355339,14.8535534 C1.65829124,15.0488155 1.34170876,15.0488155 1.14644661,14.8535534 C0.972880258,14.679987 0.953595107,14.4105626 1.08859116,14.2156945 L1.14644661,14.1464466 L9.61,5.68164941 L5.31430466,3.96423835 C4.91854507,3.80593451 4.90616067,3.28685393 5.22242818,3.08179467 L5.30122214,3.04035479 L5.39153477,3.01190647 Z M13.84,2.159 L7.189,3.637 L10.6856953,5.03576165 C10.6877839,5.03659706 10.6898652,5.03744594 10.6919394,5.03830818 C10.7083406,5.04495969 10.7248081,5.05285733 10.7408918,5.0617068 C10.750018,5.06687921 10.7586203,5.07196083 10.7670496,5.0772861 C10.7813599,5.08620541 10.795542,5.09622782 10.8092863,5.10707428 C10.8185528,5.11444262 10.82724,5.12178893 10.8356639,5.12941936 C10.8414914,5.13468099 10.8475792,5.14047241 10.8535534,5.14644661 L10.8696314,5.1632912 C10.8914963,5.18729309 10.9110475,5.21344946 10.9279517,5.24142725 L10.895,5.19564941 L10.9114088,5.2156945 C10.9142953,5.21986109 10.9171112,5.22406176 10.9198565,5.22829485 L10.9279517,5.24142725 L10.9447839,5.27130395 C10.9496054,5.2806758 10.9541112,5.29016811 10.9583012,5.29976512 L10.9642383,5.31430466 L12.362,8.81 L13.84,2.159 Z" id="形状结合" fill="#444E63"></path>
        </g>
    </g>
</svg>