<?xml version="1.0" encoding="UTF-8"?>
<svg width="26px" height="12px" viewBox="0 0 26 12" version="1.1" xmlns="http://www.w3.org/2000/svg" xmlns:xlink="http://www.w3.org/1999/xlink">
    <title>编组 3备份</title>
    <g id="页面-1" stroke="none" stroke-width="1" fill="none" fill-rule="evenodd">
        <g id="截屏工具" transform="translate(-290.000000, -3346.000000)">
            <g id="编组-3备份" transform="translate(290.000000, 3346.000000)">
                <rect id="矩形" fill="#FE9C00" x="0" y="0" width="26" height="12" rx="6"></rect>
                <path d="M12.235,9.864 L12.712,9.108 C12.091,8.748 11.587,8.316 11.209,7.821 C11.686,7.569 12.118,7.218 12.496,6.768 L11.947,6.219 C11.587,6.651 11.209,6.984 10.813,7.218 C10.597,6.822 10.435,6.399 10.345,5.94 L11.956,5.94 L11.956,1.917 L7.897,1.917 L7.897,8.793 C7.897,8.91 7.816,8.991 7.672,9.045 L7.879,9.792 C8.878,9.531 9.706,9.261 10.363,8.991 L10.165,8.199 C9.697,8.415 9.22,8.595 8.734,8.739 L8.734,5.94 L9.58,5.94 C9.868,7.596 10.759,8.901 12.235,9.864 Z M5.503,9.936 L5.503,2.727 L6.736,2.727 C6.502,3.447 6.187,4.266 5.782,5.166 C6.394,5.922 6.7,6.597 6.7,7.209 C6.7,7.362 6.655,7.47 6.574,7.533 C6.484,7.587 6.322,7.623 6.07,7.641 C5.944,7.641 5.791,7.623 5.611,7.596 L5.89,8.46 C6.556,8.451 7.015,8.334 7.285,8.109 C7.465,7.929 7.555,7.623 7.555,7.209 C7.519,6.588 7.213,5.868 6.646,5.04 C7.006,4.185 7.321,3.375 7.591,2.601 L7.591,1.926 L4.666,1.926 L4.666,9.936 L5.503,9.936 Z M11.119,3.564 L8.734,3.564 L8.734,2.727 L11.119,2.727 L11.119,3.564 Z M11.119,5.157 L8.734,5.157 L8.734,4.338 L11.119,4.338 L11.119,5.157 Z M13.999,9.954 C15.763,9.27 16.87,8.406 17.338,7.38 C17.41,7.236 17.473,7.083 17.527,6.921 L17.842,6.921 L17.842,8.739 C17.842,9.441 18.148,9.792 18.769,9.792 L20.56,9.792 C20.884,9.792 21.118,9.711 21.271,9.549 C21.433,9.369 21.541,8.838 21.613,7.938 L20.803,7.677 C20.785,8.298 20.74,8.667 20.668,8.793 C20.614,8.901 20.524,8.964 20.398,8.964 L19.03,8.964 C18.805,8.964 18.697,8.829 18.697,8.559 L18.697,6.921 L20.731,6.921 L20.731,4.032 L18.67,4.032 C18.985,3.744 19.3,3.393 19.624,2.988 L19.624,2.34 L16.618,2.34 C16.753,2.151 16.888,1.962 17.014,1.764 L16.15,1.575 C15.394,2.691 14.494,3.555 13.432,4.185 L13.972,4.842 C14.143,4.734 14.314,4.617 14.476,4.5 L14.476,6.921 L16.618,6.921 C16.582,6.993 16.537,7.074 16.501,7.164 C16.015,8.001 15.007,8.712 13.459,9.288 L13.999,9.954 Z M17.599,4.032 L15.061,4.032 C15.385,3.753 15.691,3.447 15.997,3.114 L18.517,3.114 C18.211,3.456 17.905,3.762 17.599,4.032 Z M19.912,6.12 L17.761,6.12 C17.842,5.724 17.896,5.292 17.914,4.824 L19.912,4.824 L19.912,6.12 Z M16.879,6.12 L15.304,6.12 L15.304,4.824 L17.059,4.824 C17.032,5.292 16.969,5.724 16.879,6.12 Z" id="限免" fill="#FFFFFF" fill-rule="nonzero"></path>
            </g>
        </g>
    </g>
</svg>