<?xml version="1.0" encoding="UTF-8"?>
<svg width="16px" height="16px" viewBox="0 0 16 16" version="1.1" xmlns="http://www.w3.org/2000/svg" xmlns:xlink="http://www.w3.org/1999/xlink">
    <title>icon16/关闭</title>
    <g id="icon16/关闭" stroke="none" stroke-width="1" fill="none" fill-rule="evenodd">
        <g id="编组">
            <rect id="#" x="0" y="0" width="16" height="16"></rect>
            <path d="M13.1448672,2.01453329 C13.683617,1.59569075 14.4043092,2.31638304 13.9854667,2.85513278 L13.9242641,2.92426407 L8.849,8 L13.9242641,13.0757359 C14.4673221,13.6187939 13.7070409,14.4225198 13.1448672,13.9854667 L13.0757359,13.9242641 L8,8.849 L2.92426407,13.9242641 C2.71598445,14.1325437 2.39267517,14.1556859 2.1588334,13.9936906 L2.07573593,13.9242641 C1.86745631,13.7159844 1.84431413,13.3926752 2.00630939,13.1588334 L2.07573593,13.0757359 L7.151,8 L2.07573593,2.92426407 C1.86745631,2.71598445 1.84431413,2.39267517 2.00630939,2.1588334 L2.07573593,2.07573593 C2.28401555,1.86745631 2.60732483,1.84431413 2.8411666,2.00630939 L2.92426407,2.07573593 L8,7.151 L13.0757359,2.07573593 L13.1448672,2.01453329 Z" id="路径" fill="#EE544B"></path>
        </g>
    </g>
</svg>