<svg xmlns="http://www.w3.org/2000/svg" xmlns:xlink="http://www.w3.org/1999/xlink" viewBox="0 0 16 16">
  <defs>
    <rect id="复制到剪贴板-a" width="16" height="16"/>
  </defs>
  <g fill="none" fill-rule="evenodd">
    <mask id="复制到剪贴板-b" fill="#fff">
      <use xlink:href="#复制到剪贴板-a"/>
    </mask>
    <path fill="#000" fill-opacity=".8" fill-rule="nonzero" d="M13,11 C13.5522847,11 14,10.5522847 14,10 L14,2 C14,1.44771525 13.5522847,1 13,1 L6,1 C5.44771525,1 5,1.44771525 5,2 L5,10 C5,10.5522847 5.44771525,11 6,11 L13,11 Z M13,12 L6,12 C4.8954305,12 4,11.1045695 4,10 L4,2 C4,0.8954305 4.8954305,0 6,0 L13,0 C14.1045695,-6.66133815e-16 15,0.8954305 15,2 L15,10 C15,11.1045695 14.1045695,12 13,12 Z M10,15 L3,15 C1.8954305,15 1,14.1045695 1,13 L1,5 C1,3.8954305 1.8954305,3 3,3 L4,3 C4.66666667,3 4.66666667,4 4,4 L3,4 C2.44771525,4 2,4.44771525 2,5 L2,13 C2,13.5522847 2.44771525,14 3,14 L10,14 C10.5522847,14 11,13.5522847 11,13 L11,12 C11,11.3333333 12,11.3333333 12,12 L12,13 C12,14.1045695 11.1045695,15 10,15 Z" mask="url(#复制到剪贴板-b)"/>
  </g>
</svg>
