<svg xmlns="http://www.w3.org/2000/svg" viewBox="0 0 16 16">
  <g fill="none" fill-rule="evenodd">
    <rect width="16" height="16"/>
    <path fill="#000" fill-rule="nonzero" d="M13.8451075,2.9049329 L8.74772218,8.01513634 L13.8120515,13.0922007 C13.947391,13.2257414 14.0008974,13.4217891 13.9522267,13.6058037 C13.903556,13.7898183 13.7601852,13.933531 13.5766259,13.9823003 C13.3930666,14.0310696 13.1975176,13.9774033 13.0643293,13.8417062 L8,8.76473878 L2.93576732,13.8417062 C2.72931623,14.04873 2.3945496,14.0487734 2.18804513,13.8418031 C1.98154066,13.6348329 1.98149738,13.2992244 2.18794847,13.0922007 L7.25227781,8.01513634 L2.1548925,2.9049329 C1.94838804,2.6979359 1.9483664,2.36230577 2.15484418,2.15528201 C2.36132196,1.94825826 2.69611022,1.94823657 2.90261469,2.15523356 L8,7.26543699 L13.0973853,2.15523356 C13.3038898,1.94823656 13.638678,1.94825825 13.8451558,2.15528201 C14.0516336,2.36230577 14.051612,2.6979359 13.8451075,2.9049329 Z" opacity=".35"/>
  </g>
</svg>
