<?xml version="1.0" encoding="UTF-8"?>
<svg width="16px" height="16px" viewBox="0 0 16 16" version="1.1" xmlns="http://www.w3.org/2000/svg" xmlns:xlink="http://www.w3.org/1999/xlink">
    <title>icon16/保存</title>
    <g id="icon16/保存" stroke="none" stroke-width="1" fill="none" fill-rule="evenodd">
        <g id="编组">
            <polygon id="#" points="0 0 16 0 16 16 0 16"></polygon>
            <path d="M11.3757359,1 C11.5879091,1 11.7913923,1.08428547 11.9414214,1.23431458 L11.9414214,1.23431458 L14.7656854,4.05857864 C14.9157145,4.20860775 15,4.41209088 15,4.62426407 L15,4.62426407 L15,15.2 C15,15.6418278 14.6418278,16 14.2,16 L14.2,16 L1.8,16 C1.3581722,16 1,15.6418278 1,15.2 L1,15.2 L1,1.8 C1,1.3581722 1.3581722,1 1.8,1 L1.8,1 Z M11.293,2 L2,2 L2,15 L4,15 L4,10.8 C4,10.392159 4.30518815,10.0555984 4.6996497,10.0062331 L4.8,10 L11.2,10 C11.607841,10 11.9444016,10.3051881 11.9937669,10.6996497 L12,10.8 L12,15 L14,15 L14,4.707 L11.293,2 Z M11,11 L5,11 L5,15 L11,15 L11,11 Z M10.5,5 C10.7761424,5 11,5.22385763 11,5.5 C11,5.77614237 10.7761424,6 10.5,6 L5.5,6 C5.22385763,6 5,5.77614237 5,5.5 C5,5.22385763 5.22385763,5 5.5,5 L10.5,5 Z" id="形状结合" fill="#444E63"></path>
        </g>
    </g>
</svg>