<?xml version="1.0" encoding="UTF-8"?>
<svg width="16px" height="16px" viewBox="0 0 16 16" version="1.1" xmlns="http://www.w3.org/2000/svg" xmlns:xlink="http://www.w3.org/1999/xlink">
    <title>icon16/图片转文字</title>
    <g id="icon16/图片转文字" stroke="none" stroke-width="1" fill="none" fill-rule="evenodd">
        <g id="编组" transform="translate(-0.000000, 0.000000)">
            <polygon id="#" points="2.27373675e-13 0 16 0 16 16 2.27373675e-13 16"></polygon>
            <path d="M2.5,6.207 L0.999,7.70826407 L0.999,12 L2.293,12 L2.14644661,11.8535534 L2.09152626,11.7908454 C1.75300989,11.3451728 2.34148022,10.7549242 2.78780449,11.0892325 L2.85355339,11.1464466 L3.85355339,12.1464466 C3.93754871,12.2304419 3.98328156,12.3303369 3.99673851,12.4316786 L4.00087302,12.5077304 L3.99346531,12.5829698 L3.9750766,12.6560419 L3.94626815,12.7255916 L3.90760118,12.7902641 L3.85355339,12.8535534 L2.85355339,13.8535534 C2.65829124,14.0488155 2.34170876,14.0488155 2.14644661,13.8535534 C1.97288026,13.679987 1.95359511,13.4105626 2.08859116,13.2156945 L2.14644661,13.1464466 L2.292,13 L0.8,13 C0.392158954,13 0.055598419,12.6948119 0.00623313573,12.3003503 L0,12.2 L0,0.8 C0,0.392158954 0.305188147,0.055598419 0.6996497,0.00623313573 L0.8,0 L13.2,0 C13.607841,0 13.9444016,0.305188147 13.9937669,0.6996497 L14,0.8 L14,4 L15.2,4 C15.607841,4 15.9444016,4.30518815 15.9937669,4.6996497 L16,4.8 L16,15.2 C16,15.607841 15.6948119,15.9444016 15.3003503,15.9937669 L15.2,16 L4.8,16 C4.39215895,16 4.05559842,15.6948119 4.00623314,15.3003503 L4,15.2 L4,7.70726407 L2.5,6.207 Z M15,5 L5,5 L5,15 L15,15 L15,5 Z M12.5,7 C12.7454599,7 12.9496084,7.17687516 12.9919443,7.41012437 L13,7.5 L13,12.5 C13,12.9157556 12.5308449,13.1378031 12.2121985,12.9094692 L12.1464466,12.8535534 L10,10.707 L7.85355339,12.8535534 C7.55956979,13.147537 7.07081573,12.9728055 7.00695512,12.586032 L7,12.5 L7,7.5 C7,7.22385763 7.22385763,7 7.5,7 C7.74545989,7 7.94960837,7.17687516 7.99194433,7.41012437 L8,7.5 L8,11.292 L9.64644661,9.64644661 C9.82001296,9.47288026 10.0894374,9.45359511 10.2843055,9.58859116 L10.3535534,9.64644661 L12,11.293 L12,7.5 C12,7.25454011 12.1768752,7.05039163 12.4101244,7.00805567 L12.5,7 Z M12.999,1 L0.999,1 L0.999,6.29426407 L1.93431458,5.35857864 C2.21833224,5.07456098 2.6627735,5.04874119 2.9759591,5.28111928 L3.06568542,5.35857864 L4,6.29326407 L4,4.8 C4,4.39215895 4.30518815,4.05559842 4.6996497,4.00623314 L4.8,4 L13,4 L12.999,1 Z" id="形状结合" fill="#333840"></path>
        </g>
    </g>
</svg>