<svg width="16" height="16" viewBox="0 0 16 16" xmlns="http://www.w3.org/2000/svg"><g fill="none" fill-rule="evenodd"><path d="M2,13.7072641 L2,15 L11.372,15 L6.5,9.207 L2,13.7072641 Z M2.78780449,4.08923254 L2.85355339,4.14644661 L4.85355339,6.14644661 C4.93754871,6.23044192 4.98328156,6.33033687 4.99673851,6.43167864 L5.00087302,6.50773042 L4.99346531,6.58296981 L4.9750766,6.65604186 L4.94626815,6.72559163 L4.90760118,6.79026415 L4.85355339,6.85355339 L2.85355339,8.85355339 C2.65829124,9.04881554 2.34170876,9.04881554 2.14644661,8.85355339 C1.97288026,8.67998704 1.95359511,8.41056264 2.08859116,8.2156945 L2.14644661,8.14644661 L3.293,6.999 L0.5,7 C0.254540111,7 0.0503916296,6.82312484 0.00805566941,6.58987563 L-9.09494702e-13,6.5 C-9.09494702e-13,6.25454011 0.176875161,6.05039163 0.410124368,6.00805567 L0.5,6 L3.292,5.999 L2.14644661,4.85355339 L2.09152626,4.79084539 C1.75300989,4.34517276 2.34148022,3.75492423 2.78780449,4.08923254 Z M2,12.2932641 L5.93431458,8.35857864 C6.21833224,8.07456098 6.6627735,8.04874119 6.9759591,8.28111928 L7.06568542,8.35857864 L12.5,14.7928932 C12.5599982,14.8528915 12.6015608,14.9243442 12.6246877,15.0002121 L14,15 L14,1 L2,1 L2,2.5 C2,2.74545989 1.82312484,2.94960837 1.58987563,2.99194433 L1.5,3 C1.25454011,3 1.05039163,2.82312484 1.00805567,2.58987563 L1,2.5 L1,0.8 C1,0.392158954 1.30518815,0.055598419 1.6996497,0.00623313573 L1.8,0 L14.2,0 C14.607841,0 14.9444016,0.305188147 14.9937669,0.6996497 L15,0.8 L15,15.2 C15,15.607841 14.6948119,15.9444016 14.3003503,15.9937669 L14.2,16 L1.8,16 C1.39215895,16 1.05559842,15.6948119 1.00623314,15.3003503 L1,15.2 L1,10.5 C1,10.2238576 1.22385763,10 1.5,10 C1.74545989,10 1.94960837,10.1768752 1.99194433,10.4101244 L2,10.5 L2,12.2932641 Z" fill="#262E3E"/><path d="M11.002006,6.00000603 C10.4493394,6.00000603 10.002006,5.55200603 10.002006,5.00000603 C10.002006,4.44733937 10.4493394,4.00000603 11.002006,4.00000603 C11.554006,4.00000603 12.002006,4.44800603 12.002006,5.00000603 C12.002006,5.5526727 11.554006,6.00000603 11.002006,6.00000603 Z M9,5.004006 C9.00240483,6.10880665 9.90000528,7.00240718 11.0040058,7.000012 C12.1080064,6.99920718 13.0016069,6.10320665 13,5 L13,4.995206 C12.9976069,3.89040535 12.1000064,2.99760483 10.9952058,3 C9.89040528,3.00240483 8.99760483,3.90000536 9,5.004006 Z" fill="#262E3E"/></g></svg>