<svg xmlns="http://www.w3.org/2000/svg" viewBox="0 0 16 16">
  <path fill="#666" d="M5,6 C5.55272727,6 6,6.44727275 6,7 C6,7.55272727 5.55272727,8 5,8 C4.44909091,8 4,7.55272729 4,7 C4,6.44727273 4.44727271,6 5,6 Z M11,6 C11.5509091,6 12,6.44727273 12,7 C11.9981818,7.55272727 11.5509091,8 11,8 C10.4490909,8 10,7.55272729 10,7 C10,6.44727273 10.4472727,6 11,6 Z M8,6 C8.55090909,6 9,6.44727275 9,7 C9,7.55272727 8.55090911,8 8,8 C7.44909091,8 7,7.55272729 7,7 C7,6.44727273 7.44727273,6 8,6 Z M15.3649016,4.56049214 C15.7851731,5.4885265 15.9992147,6.47436773 15.9976608,7.49145591 C15.9976608,8.50854409 15.7851731,9.49282297 15.3633393,10.4208573 C14.9571289,11.3145201 14.377498,12.1144419 13.6400701,12.8018748 C12.9057668,13.486183 12.0511627,14.0236305 11.0996932,14.3985939 C10.1169766,14.7844937 9.07332855,14.9813495 7.99843352,14.9813495 C7.14382947,14.9813495 6.30484891,14.8563617 5.50180233,14.6095108 L3.18484109,15.9265697 C3.09891198,15.9750024 3.00204644,16 2.90674325,16 C2.82081414,16 2.73332269,15.9796895 2.65364297,15.9390685 C2.48490944,15.8547017 2.37085808,15.6906552 2.34898522,15.5031735 L1.98808295,12.4315985 C0.705395719,11.0629821 0.00077703125,9.3162777 0.00077703125,7.48989356 C0.00077703125,6.47436773 0.214818625,5.48852652 0.635090094,4.56049214 C1.04130042,3.66682941 1.62093131,2.86690753 2.3583593,2.17947466 C3.09266259,1.49516648 3.94726664,0.957718969 4.89873622,0.582755594 C5.88145275,0.196855781 6.92510083,0 7.99999586,0 C9.07489089,0 10.118539,0.196855781 11.1012555,0.582755594 C12.0527251,0.957718969 12.9073291,1.49516648 13.6416324,2.17947466 C14.3806227,2.86690753 14.9602536,3.66839177 15.3649016,4.56049214 Z M14.3400017,9.95371545 C14.6946546,9.17254173 14.8743245,8.34449761 14.8758869,7.48989356 C14.8758869,6.63528952 14.6962169,5.80724539 14.3415641,5.02607167 C13.9978476,4.26833317 13.5041458,3.58871203 12.8760822,3.00283175 C12.2448938,2.41382677 11.5090282,1.95293428 10.6887958,1.62952836 C9.83731644,1.29518602 8.93271728,1.12489014 7.99999586,1.12489014 C7.06727444,1.12489014 6.16267528,1.29518602 5.31275828,1.62952836 C4.49252589,1.95293428 3.75666025,2.41538912 3.12547189,3.00283175 C2.49584587,3.58871203 2.00370644,4.26989552 1.65999,5.02607167 C1.30533712,5.80724539 1.12566717,6.63528952 1.12566717,7.48989356 C1.12566717,9.08192559 1.76466728,10.6067767 2.92392906,11.781662 C3.01142052,11.8707158 3.06766503,11.9863295 3.08172616,12.1113173 L3.36607339,14.5282687 L5.16121058,13.5080559 C5.3002595,13.4283761 5.46743067,13.4127527 5.62054072,13.4643101 C6.37984158,13.7236598 7.18132581,13.854897 7.99843352,13.854897 C8.93115492,13.854897 9.83575409,13.6861635 10.6872334,13.3502588 C11.5074658,13.0268528 12.2433315,12.564398 12.8745198,11.9769554 C13.5041458,11.3910751 13.9962853,10.7098916 14.3400017,9.95371545 Z"/>
</svg>
