<?xml version="1.0" encoding="UTF-8"?>
<svg width="16px" height="16px" viewBox="0 0 16 16" version="1.1" xmlns="http://www.w3.org/2000/svg" xmlns:xlink="http://www.w3.org/1999/xlink">
    <title>编辑</title>
    <g id="编辑" stroke="none" stroke-width="1" fill="none" fill-rule="evenodd">
        <g transform="translate(1.000000, 1.000000)" fill="#262E3E" id="形状结合">
            <path d="M7.5,0 C7.77614237,0 8,0.22385763 8,0.5 C8,0.74545989 7.82312484,0.94960837 7.58987563,0.99194433 L7.5,1 L1,1 L1,13 L13,13 L13,10.5 C13,10.2545401 13.1768752,10.0503916 13.4101244,10.0080557 L13.5,10 C13.7454599,10 13.9496084,10.1768752 13.9919443,10.4101244 L14,10.5 L14,13.2 C14,13.607841 13.6948119,13.9444016 13.3003503,13.9937669 L13.2,14 L0.8,14 C0.39215895,14 0.05559842,13.6948119 0.00623314,13.3003503 L0,13.2 L0,0.8 C0,0.39215895 0.30518815,0.05559842 0.6996497,0.00623314 L0.8,0 L7.5,0 Z M11.423718,0.38310087 C11.7262891,0.06113419 12.232577,0.04541097 12.5545436,0.34798206 L12.5545436,0.34798206 L14.147907,1.94080025 C14.4534898,2.24638305 14.4611438,2.73941798 14.1651938,3.0543391 L14.1651938,3.0543391 L6.64236683,11.0593986 C6.50835176,11.2020044 6.3267143,11.2905424 6.1318232,11.3082598 L6.1318232,11.3082598 L4.04526787,11.4979466 C3.73430026,11.5262164 3.47378361,11.2656997 3.5020534,10.9547321 L3.5020534,10.9547321 L3.69269411,8.85768427 C3.70886623,8.67979098 3.78410976,8.51242757 3.90643644,8.38225944 L3.90643644,8.38225944 L11.423718,0.38310087 Z M12.011,1.218 L4.682,9.017 L4.551,10.448 L5.965,10.319 L13.303,2.51 L12.011,1.218 Z"></path>
        </g>
    </g>
</svg>