<?xml version="1.0" encoding="UTF-8"?>
<svg width="16px" height="16px" viewBox="0 0 16 16" version="1.1" xmlns="http://www.w3.org/2000/svg" xmlns:xlink="http://www.w3.org/1999/xlink">
    <title>icon16/长截图_01</title>
    <g id="icon16/长截图_01" stroke="none" stroke-width="1" fill="none" fill-rule="evenodd">
        <g id="编组">
            <polygon id="#" points="0 0 16 0 16 16 0 16"></polygon>
            <path d="M7.14644661,7.14644661 C7.34170876,6.95118446 7.65829124,6.95118446 7.85355339,7.14644661 L7.85355339,7.14644661 L11,10.293 L14.1464466,7.14644661 C14.3417088,6.95118446 14.6582912,6.95118446 14.8535534,7.14644661 C15.0271197,7.32001296 15.0464049,7.58943736 14.9114088,7.7843055 L14.8535534,7.85355339 L11.707,11 L12.9838916,12.2769833 C13.281676,12.1009929 13.6290439,12 14,12 C15.1045695,12 16,12.8954305 16,14 C16,15.1045695 15.1045695,16 14,16 C12.8954305,16 12,15.1045695 12,14 C12,13.6290439 12.1009929,13.281676 12.2769833,12.9838916 L11,11.707 L9.72301675,12.9838916 C9.89900711,13.281676 10,13.6290439 10,14 C10,15.1045695 9.1045695,16 8,16 C6.8954305,16 6,15.1045695 6,14 C6,12.8954305 6.8954305,12 8,12 C8.3709561,12 8.71832404,12.1009929 9.0161084,12.2769833 L10.293,11 L7.14644661,7.85355339 L7.08859116,7.7843055 C6.95359511,7.58943736 6.97288026,7.32001296 7.14644661,7.14644661 Z M8,13 C7.44771525,13 7,13.4477153 7,14 C7,14.5522847 7.44771525,15 8,15 C8.55228475,15 9,14.5522847 9,14 C9,13.4477153 8.55228475,13 8,13 Z M14,13 C13.4477153,13 13,13.4477153 13,14 C13,14.5522847 13.4477153,15 14,15 C14.5522847,15 15,14.5522847 15,14 C15,13.4477153 14.5522847,13 14,13 Z M13.2,0 C13.607841,0 13.9444016,0.305188147 13.9937669,0.6996497 L14,0.8 L14,5.5 C14,5.77614237 13.7761424,6 13.5,6 C13.2545401,6 13.0503916,5.82312484 13.0080557,5.58987563 L13,5.5 L13,1 L3,1 L3,14 L4.5,14 C4.74545989,14 4.94960837,14.1768752 4.99194433,14.4101244 L5,14.5 C5,14.7454599 4.82312484,14.9496084 4.58987563,14.9919443 L4.5,15 L2.8,15 C2.39215895,15 2.05559842,14.6948119 2.00623314,14.3003503 L2,14.2 L2,0.8 C2,0.392158954 2.30518815,0.055598419 2.6996497,0.00623313573 L2.8,0 L13.2,0 Z" id="形状结合" fill="#333840"></path>
        </g>
    </g>
</svg>