<?xml version="1.0" standalone="no"?><!DOCTYPE svg PUBLIC "-//W3C//DTD SVG 1.1//EN" "http://www.w3.org/Graphics/SVG/1.1/DTD/svg11.dtd"><svg class="icon" width="200px" height="200.00px" viewBox="0 0 1024 1024" version="1.1" xmlns="http://www.w3.org/2000/svg"><path d="M880.64 1024H143.36A146.5344 146.5344 0 0 1 0 880.64V143.36A146.5344 146.5344 0 0 1 143.36 0h737.28A146.5344 146.5344 0 0 1 1024 143.36v737.28a146.5344 146.5344 0 0 1-143.36 143.36zM143.36 76.8a67.7888 67.7888 0 0 0-66.56 66.56v737.28a67.7888 67.7888 0 0 0 66.56 66.56h737.28a67.7888 67.7888 0 0 0 66.56-66.56V143.36a67.7888 67.7888 0 0 0-66.56-66.56H143.36z"  /><path d="M512 153.6h358.4v358.4h-358.4z"  /><path d="M153.6 512h358.4v358.4H153.6z"  /></svg>