<?xml version="1.0" encoding="UTF-8"?>
<svg width="16px" height="16px" viewBox="0 0 16 16" version="1.1" xmlns="http://www.w3.org/2000/svg" xmlns:xlink="http://www.w3.org/1999/xlink">
    <title>icon16/输出转换</title>
    <g id="icon16/输出转换" stroke="none" stroke-width="1" fill="none" fill-rule="evenodd">
        <g id="编组备份">
            <polygon id="#" points="0 0 16 0 16 16 0 16"></polygon>
            <path d="M11.3757359,1 C11.5879091,1 11.7913923,1.08428547 11.9414214,1.23431458 L11.9414214,1.23431458 L14.7656854,4.05857864 C14.9157145,4.20860775 15,4.41209088 15,4.62426407 L15,4.62426407 L15,15.2 C15,15.6418278 14.6418278,16 14.2,16 L14.2,16 L1.8,16 C1.3581722,16 1,15.6418278 1,15.2 L1,15.2 L1,1.8 C1,1.3581722 1.3581722,1 1.8,1 L1.8,1 Z M11.293,2 L2,2 L2,15 L14,15 L14,4.707 L11.293,2 Z M11.5010024,9 C11.7771448,9 12.0010024,9.22385763 12.0010024,9.5 C12.0010024,9.74545989 11.8241272,9.94960837 11.590878,9.99194433 L11.5010024,10 L5.70800238,10 L6.85455577,11.1464466 C7.02812212,11.320013 7.04740727,11.5894374 6.91241122,11.7843055 L6.85455577,11.8535534 C6.68098942,12.0271197 6.41156501,12.0464049 6.21669687,11.9114088 L6.14744899,11.8535534 L4.14744899,9.85355339 C3.85346538,9.55956979 4.0281969,9.07081573 4.41497035,9.00695512 L4.50100238,9 L11.5010024,9 Z M9.7843055,5.08859116 L9.85355339,5.14644661 L11.8535534,7.14644661 C12.147537,7.44043021 11.9728055,7.92918427 11.586032,7.99304488 L11.5,8 L4.5,8 C4.22385763,8 4,7.77614237 4,7.5 C4,7.25454011 4.17687516,7.05039163 4.41012437,7.00805567 L4.5,7 L10.293,7 L9.14644661,5.85355339 C8.97288026,5.67998704 8.95359511,5.41056264 9.08859116,5.2156945 L9.14644661,5.14644661 C9.32001296,4.97288026 9.58943736,4.95359511 9.7843055,5.08859116 Z" id="形状结合" fill="#444E63"></path>
        </g>
    </g>
</svg>