<?xml version="1.0" encoding="UTF-8"?>
<svg width="16px" height="16px" viewBox="0 0 16 16" version="1.1" xmlns="http://www.w3.org/2000/svg" xmlns:xlink="http://www.w3.org/1999/xlink">
    <title>icon16/笔</title>
    <g id="icon16/笔" stroke="none" stroke-width="1" fill="none" fill-rule="evenodd">
        <g id="编组">
            <polygon id="#" points="0 0 16 0 16 16 0 16"></polygon>
            <path d="M10.0857864,1.20710678 C10.866835,0.426058198 12.133165,0.426058198 12.9142136,1.20710678 L12.9142136,1.20710678 L14.7928932,3.08578644 C15.5739418,3.86683502 15.5739418,5.13316498 14.7928932,5.91421356 L14.7928932,5.91421356 L5.94142136,14.7656854 C5.79139225,14.9157145 5.58790912,15 5.37573593,15 L5.37573593,15 L1.8,15 C1.3581722,15 1,14.6418278 1,14.2 L1,14.2 L1,10.6242641 C1,10.4120909 1.08428547,10.2086077 1.23431458,10.0585786 L1.23431458,10.0585786 Z M9.499,3.20632034 L2,10.706 L2,14 L5.292,14 L12.792,6.49932034 L9.499,3.20632034 Z M12.2071068,1.91421356 C11.8165825,1.52368927 11.1834175,1.52368927 10.7928932,1.91421356 L10.7928932,1.91421356 L10.206,2.49932034 L13.499,5.79232034 L14.0857864,5.20710678 C14.4162301,4.87666315 14.4670676,4.37249453 14.2382989,3.98859705 L14.168975,3.88710056 L14.0857864,3.79289322 Z" id="形状结合" fill="#444E63"></path>
        </g>
    </g>
</svg>