<svg width="16" height="16" viewBox="0 0 16 16" xmlns="http://www.w3.org/2000/svg"><g fill="#262E3E" fill-rule="evenodd"><path d="M7.00000006,10.9999999 L7.00000006,13.9999999 L4.00000006,13.9999999 L4.00000006,10.9999999 L7.00000006,10.9999999 Z M4.00000009,7.99999993 L4.00000009,10.9999999 L1.00000009,10.9999999 L1.00000009,7.99999993 L4.00000009,7.99999993 Z M7.00000006,4.99999996 L7.00000006,7.99999996 L4.00000006,7.99999996 L4.00000006,4.99999996 L7.00000006,4.99999996 Z M4.00000009,1.99999998 L4.00000009,4.99999998 L1.00000009,4.99999998 L1.00000009,1.99999998 L4.00000009,1.99999998 Z" opacity=".12"/><path d="M8.50000002,0 C8.77614239,0 9.00000002,0.223857623 9.00000002,0.5 L9.00000002,1 L15.2,1 C15.6032667,0.999861569 15.9435916,1.29989617 15.994,1.69999998 L16,1.79999998 L16,14.1999999 C16.0001384,14.6032666 15.7001038,14.9435915 15.3,14.9939999 L15.2,15 L9.00000002,15 L9.00000002,15.5 C9.00000002,15.7761422 8.77614239,16 8.50000002,16 C8.22385765,16 8.00000002,15.7761422 8.00000002,15.5 L8.00000002,0.5 C8.00000002,0.223857623 8.22385765,0 8.50000002,0 Z M6.50000005,0.999999943 L6.59000004,1.00799999 C6.82754797,1.0514686 7.00008054,1.25850768 7.00000005,1.49999994 L6.99200003,1.58999999 C6.94853143,1.82754792 6.74149235,2.00008049 6.50000005,1.99999994 L1.00000005,1.99999994 L1.00000005,13.9999999 L6.50000005,13.9999999 L6.59000004,14.0079999 C6.84484616,14.0541412 7.02227623,14.2872479 6.99887531,14.5451781 C6.97547438,14.8031082 6.75898911,15.0004766 6.50000005,14.9999999 L0.800000089,14.9999999 L0.700000089,14.9939999 C0.299896279,14.9435915 -0.000138325961,14.6032666 4.78431406e-08,14.1999999 L4.78431406e-08,1.79999998 L0.00600009567,1.69999998 C0.0564084134,1.29989617 0.39673338,0.999999943 0.800000089,0.999999943 L6.50000005,0.999999943 Z M9.00000001,14 L15,14 L15,1.99999998 L9.00000001,1.99999998 L9.00000001,14 Z"/></g></svg>