<svg width="16" height="16" viewBox="0 0 16 16" xmlns="http://www.w3.org/2000/svg"><g fill="none" fill-rule="evenodd"><rect fill="#D8D8D8" opacity="0" width="16" height="16"/><path d="M2.5,12 C2.77614237,12 3,12.2238576 3,12.5 L3,15 L5.5,15 C5.77614237,15 6,15.2238576 6,15.5 C6,15.7761424 5.77614237,16 5.5,16 L2.5,16 C2.22385763,16 2,15.7761424 2,15.5 L2,12.5 C2,12.2238576 2.22385763,12 2.5,12 Z M8.14644661,4.14644661 C8.32001296,3.97288026 8.58943736,3.95359511 8.7843055,4.08859116 L8.85355339,4.14644661 L15.8535534,11.1464466 C16.0271197,11.320013 16.0464049,11.5894374 15.9114088,11.7843055 L15.8535534,11.8535534 L11.8535534,15.8535534 C11.679987,16.0271197 11.4105626,16.0464049 11.2156945,15.9114088 L11.1464466,15.8535534 L4.14644661,8.85355339 C3.97288026,8.67998704 3.95359511,8.41056264 4.08859116,8.2156945 L4.14644661,8.14644661 L8.14644661,4.14644661 Z M11.5,8.207 L8.207,11.5 L11.5,14.793 L14.793,11.5 L11.5,8.207 Z M8.5,5.207 L5.207,8.5 L7.5,10.793 L10.793,7.5 L8.5,5.207 Z M3.5,6 C3.77614237,6 4,6.22385763 4,6.5 C4,6.77614237 3.77614237,7 3.5,7 L1.5,7 C1.22385763,7 1,6.77614237 1,6.5 C1,6.22385763 1.22385763,6 1.5,6 L3.5,6 Z M15.5,2 C15.7761424,2 16,2.22385763 16,2.5 L16,5.5 C16,5.77614237 15.7761424,6 15.5,6 C15.2238576,6 15,5.77614237 15,5.5 L15,3 L12.5,3 C12.2238576,3 12,2.77614237 12,2.5 C12,2.22385763 12.2238576,2 12.5,2 L15.5,2 Z M3.2843055,2.58859116 L3.35355339,2.64644661 L4.85355339,4.14644661 C5.04881554,4.34170876 5.04881554,4.65829124 4.85355339,4.85355339 C4.67998704,5.02711974 4.41056264,5.04640489 4.2156945,4.91140884 L4.14644661,4.85355339 L2.64644661,3.35355339 C2.45118446,3.15829124 2.45118446,2.84170876 2.64644661,2.64644661 C2.82001296,2.47288026 3.08943736,2.45359511 3.2843055,2.58859116 Z M6.5,1 C6.77614237,1 7,1.22385763 7,1.5 L7,3.5 C7,3.77614237 6.77614237,4 6.5,4 C6.22385763,4 6,3.77614237 6,3.5 L6,1.5 C6,1.22385763 6.22385763,1 6.5,1 Z" fill="#262E3E"/><polygon fill="#262E3E" opacity=".12" points="11.5 8.207 8.207 11.5 11.5 14.793 14.793 11.5"/></g></svg>