<svg width="16" height="16" viewBox="0 0 16 16" xmlns="http://www.w3.org/2000/svg"><path d="M8.31801948,0.146446609 C8.49158584,-0.0271197425 8.76101024,-0.0464048927 8.95587838,0.0885911588 L9.02512627,0.146446609 L14.0251263,5.14644661 C14.1986926,5.32001296 14.2179778,5.58943736 14.0829817,5.7843055 L14.0251263,5.85355339 L6.43933983,13.4393398 C5.50547739,14.3732023 4.01661452,14.413805 3.03449117,13.561148 L2.90380592,13.4393398 L0.732233047,11.267767 C-0.20162939,10.3339045 -0.242232104,8.84504164 0.610424903,7.8629183 L0.732233047,7.73223305 L8.31801948,0.146446609 Z M2.171,7.706 L1.43933983,8.43933983 C0.890165043,8.98851461 0.855841619,9.85757702 1.33636956,10.4467378 L1.43933983,10.5606602 L3.6109127,12.732233 C4.16008749,13.2814078 5.0291499,13.3157313 5.61831064,12.8352033 L5.73223305,12.732233 L6.464,11.999 L2.171,7.706 Z M6.671,3.206 L2.878,6.999 L7.171,11.292 L10.964,7.499 L6.671,3.206 Z M8.67157288,1.207 L7.378,2.499 L11.671,6.792 L12.9645729,5.5 L8.67157288,1.207 Z" transform="translate(.828 1)" fill="#262E3E" fill-rule="evenodd"/></svg>