<?xml version="1.0" encoding="UTF-8"?>
<svg width="16px" height="16px" viewBox="0 0 16 16" version="1.1" xmlns="http://www.w3.org/2000/svg" xmlns:xlink="http://www.w3.org/1999/xlink">
    <title>icon16/图片编辑</title>
    <g id="icon16/图片编辑" stroke="none" stroke-width="1" fill="none" fill-rule="evenodd">
        <g id="编组">
            <polygon id="#" points="0 0 16 0 16 16 0 16"></polygon>
            <path d="M12.9343146,7.35857864 C13.246734,7.04615921 13.753266,7.04615921 14.0656854,7.35857864 L14.0656854,7.35857864 L15.6414214,8.93431458 C15.9538408,9.24673401 15.9538408,9.75326599 15.6414214,10.0656854 L15.6414214,10.0656854 L10.1303558,15.576751 C9.99802131,15.7090855 9.82347957,15.7908364 9.63709895,15.8077801 L9.63709895,15.8077801 L7.54526787,15.9979466 C7.23430026,16.0262164 6.97378361,15.7656997 7.0020534,15.4547321 L7.0020534,15.4547321 L7.19221986,13.362901 C7.20916355,13.1765204 7.29091453,13.0019787 7.423249,12.8696442 L7.423249,12.8696442 Z M13.5,8.207 L8.181,13.525 L8.052,14.947 L9.474,14.818 L14.793,9.5 L13.5,8.207 Z M14.2,1 C14.607841,1 14.9444016,1.30518815 14.9937669,1.6996497 L15,1.8 L15,5.5 C15,5.77614237 14.7761424,6 14.5,6 C14.2545401,6 14.0503916,5.82312484 14.0080557,5.58987563 L14,5.5 L14,2 L1,2 L1,9.29326407 L4.93431458,5.35857864 C5.21833224,5.07456098 5.6627735,5.04874119 5.9759591,5.28111928 L6.06568542,5.35857864 L8.85355339,8.14644661 C9.04881554,8.34170876 9.04881554,8.65829124 8.85355339,8.85355339 C8.67998704,9.02711974 8.41056264,9.04640489 8.2156945,8.91140884 L8.14644661,8.85355339 L5.5,6.207 L1,10.7072641 L1,13 L5.5,13 C5.74545989,13 5.94960837,13.1768752 5.99194433,13.4101244 L6,13.5 C6,13.7454599 5.82312484,13.9496084 5.58987563,13.9919443 L5.5,14 L0.5,14 C0.254540111,14 0.0503916296,13.8231248 0.00805566941,13.5898756 L0,13.5 L0,1.8 C0,1.39215895 0.305188147,1.05559842 0.6996497,1.00623314 L0.8,1 L14.2,1 Z" id="形状结合" fill="#444E63"></path>
        </g>
    </g>
</svg>