<?xml version="1.0" encoding="UTF-8"?>
<svg width="16px" height="16px" viewBox="0 0 16 16" version="1.1" xmlns="http://www.w3.org/2000/svg" xmlns:xlink="http://www.w3.org/1999/xlink">
    <title>icon16/固定</title>
    <g id="icon16/固定" stroke="none" stroke-width="1" fill="none" fill-rule="evenodd">
        <g id="编组">
            <polygon id="#" points="0 0 16 0 16 16 0 16"></polygon>
            <path d="M11.5432171,0.181147104 L11.6468365,0.270600942 L15.7858563,4.41498618 C16.0852649,4.77427654 16.0657172,5.29370002 15.7584764,5.62936195 L15.667574,5.71609167 L12.6724245,8.2099085 L12.2146158,12.3390693 C12.1636466,12.7977921 12.0346472,13.2430101 11.8344718,13.655907 L11.7058803,13.899616 L11.5605355,14.1346647 L11.1077285,14.8138752 C11.0739834,14.864493 11.0353208,14.9116538 10.9923039,14.9546706 C10.6643294,15.2826452 10.1511028,15.312461 9.78944612,15.0441182 L9.68583302,14.9546706 L5.719,10.987 L0.853553391,15.8535534 C0.658291245,16.0488155 0.341708755,16.0488155 0.146446609,15.8535534 C-0.0271197425,15.679987 -0.0464048927,15.4105626 0.0885911588,15.2156945 L0.146446609,15.1464466 L5.012,10.28 L1.01386565,6.28111179 L0.929878445,6.17334527 C0.670450024,5.78420264 0.745222288,5.26981759 1.08647382,4.96879719 L1.18609847,4.89224515 L1.86530897,4.43943815 C2.32614408,4.13221475 2.84435995,3.92353671 3.38744182,3.82524817 L3.66090439,3.78535786 L7.78891043,3.32639446 L10.283882,0.332399708 L10.3403405,0.270575846 C10.668315,-0.0573986788 11.1815416,-0.0872145446 11.5432171,0.181147104 Z M11,1.034 L8.55713474,3.96657522 C8.41935134,4.1319169 8.23271172,4.24749169 8.02577881,4.29793967 L7.89941237,4.32027037 L3.80524796,4.77488549 L3.56553159,4.80926241 C3.23813525,4.86851556 2.92310982,4.98100759 2.6328586,5.14185887 L2.42000917,5.27148845 L1.817,5.67 L10.325,14.183 L10.7100088,13.608733 L10.8214466,13.4329501 L10.9346432,13.2196634 C11.055426,12.9705277 11.1415571,12.7062175 11.1907618,12.4342072 L11.2207061,12.2288725 L11.6785147,8.09971166 C11.7022549,7.88558918 11.7943296,7.68606181 11.9393336,7.52977278 L12.0325643,7.44141711 L14.962,5.005 L11,1.034 Z" id="形状结合" fill="#444E63"></path>
        </g>
    </g>
</svg>