<svg width="16" height="16" viewBox="0 0 16 16" xmlns="http://www.w3.org/2000/svg"><g fill="none" fill-rule="evenodd"><rect width="16" height="16"/><path d="M9.55373723,1.2780013 C9.83775489,0.99398363 10.2821962,0.968163842 10.5953951,1.20055526 L10.6851258,1.27801903 L14.7692665,5.36648754 C15.0295301,5.67680187 15.0140258,6.12666082 14.7488842,6.4181761 L14.6704031,6.49353058 L11.999,8.733 L12,12.0986122 C12,12.6325277 11.8770803,13.1571518 11.643289,13.6326924 L11.5363397,13.8333744 L11.4160251,14.0273501 L11.1190128,14.4728686 C11.0897903,14.5167024 11.0563095,14.5575424 11.019058,14.5947939 C10.7350403,14.8788116 10.290599,14.9046314 9.97741345,14.6722533 L9.88768713,14.5947939 L5.999,10.7066889 L1.85355339,14.8535534 C1.65829124,15.0488155 1.34170876,15.0488155 1.14644661,14.8535534 C0.972880258,14.679987 0.953595107,14.4105626 1.08859116,14.2156945 L1.14644661,14.1464466 L5.292,9.99968894 L1.37798209,6.08371069 L1.37798209,6.08371069 L1.30525128,5.99038761 C1.08059281,5.6533999 1.14534371,5.20795542 1.44085893,4.94727935 L1.52713136,4.88098721 L1.9726499,4.58397485 C2.48035798,4.2455028 3.06702462,4.04734661 3.67325176,4.00749057 L3.90138782,4 L7.266,4 L9.50646942,1.32959691 L9.55373723,1.2780013 Z M10.132,2.139 L7.97301914,4.71408981 C7.84635044,4.86511787 7.66939701,4.96298124 7.47704549,4.99140714 L7.3600659,5 L3.90138782,5 C3.48221254,5 3.07107628,5.10635118 2.70592058,5.30756576 L2.5273501,5.41602515 L2.284,5.577 L10.422,13.715 L10.5839749,13.4726499 C10.7777387,13.1820041 10.9069548,12.8550361 10.9649751,12.5137025 L10.9911906,12.3073542 L11,12.0986122 L11,8.6399341 C11,8.44281881 11.072692,8.25412428 11.2018033,8.10873716 L11.2859102,8.02698086 L13.859,5.867 L10.132,2.139 Z" fill="#262E3E"/></g></svg>