<svg xmlns="http://www.w3.org/2000/svg" xmlns:xlink="http://www.w3.org/1999/xlink" viewBox="0 0 16 17">
  <defs>
    <rect id="下载-a" width="16" height="16" x="0" y="0"/>
  </defs>
  <g fill="none" fill-rule="evenodd">
    <mask id="下载-b" fill="#fff">
      <use xlink:href="#下载-a"/>
    </mask>
    <path fill="#000" fill-opacity=".8" fill-rule="nonzero" d="M3,2 C2.44771525,2 2,2.44771525 2,3 L2,13 C2,13.5522847 2.44771525,14 3,14 L13,14 C13.5522847,14 14,13.5522847 14,13 L14,5.57842712 C14,5.18060239 13.8419647,4.79907152 13.5606602,4.51776695 L11.482233,2.43933983 C11.2009285,2.15803526 10.8193976,2 10.4215729,2 L3,2 Z M3,1 L10.4215729,1 C11.0846141,1 11.7204989,1.2633921 12.1893398,1.73223305 L14.267767,3.81066017 C14.7366079,4.27950112 15,4.9153859 15,5.57842712 L15,13 C15,14.1045695 14.1045695,15 13,15 L3,15 C1.8954305,15 1,14.1045695 1,13 L1,3 C1,1.8954305 1.8954305,1 3,1 Z M3,14.5 L3,7.7 C3,6.76111593 3.76111593,6 4.7,6 L11.3,6 C12.2388841,6 13,6.76111593 13,7.7 L13,14.5 C13,15.1666667 12,15.1666667 12,14.5 L12,7.7 C12,7.31340068 11.6865993,7 11.3,7 L4.7,7 C4.31340068,7 4,7.31340068 4,7.7 L4,14.5 C4,15.1666667 3,15.1666667 3,14.5 Z M5.5,3 L9.5,3 C10.1666667,3 10.1666667,4 9.5,4 L5.5,4 C4.83333333,4 4.83333333,3 5.5,3 Z" mask="url(#下载-b)"/>
  </g>
</svg>
