<svg xmlns="http://www.w3.org/2000/svg" xmlns:xlink="http://www.w3.org/1999/xlink" viewBox="0 0 16 17">
  <defs>
    <rect id="添加投影-a" width="16" height="16" x="0" y="0"/>
  </defs>
  <g fill="none" fill-rule="evenodd">
    <mask id="添加投影-b" fill="#fff">
      <use xlink:href="#添加投影-a"/>
    </mask>
    <path fill="#000" fill-opacity=".8" fill-rule="nonzero" d="M9.79289322,13 L7.20710678,13 L8.20710678,14 L10.7928932,14 L9.79289322,13 Z M11.2071068,13 L12.2071068,14 L13,14 C13.5522847,14 14,13.5522847 14,13 L14,12.2071068 L13,11.2071068 L13,11.5 C13,12.3284271 12.3284271,13 11.5,13 L11.2071068,13 Z M5.79289322,13 L3.20710678,13 L4.20710678,14 L6.79289322,14 L5.79289322,13 Z M1.51822901,12.6341062 C1.20079291,12.3590684 1,11.952983 1,11.5 L1,2.5 C1,1.67157288 1.67157288,1 2.5,1 L11.5,1 C11.952983,1 12.3590684,1.20079291 12.6341062,1.51822901 C12.714478,1.54052163 12.7903676,1.58326083 12.8535534,1.64644661 L14.8535534,3.64644661 C14.9023689,3.69526215 14.9389806,3.7516602 14.9633883,3.81184952 C14.9860089,3.86519661 15,3.93096441 15,4 L15,13 C15,14.1045695 14.1045695,15 13,15 L4,15 C3.86192881,15 3.73692881,14.9440356 3.64644661,14.8535534 L1.64644661,12.8535534 C1.58326083,12.7903676 1.54052163,12.714478 1.51822901,12.6341062 Z M13,9.79289322 L14,10.7928932 L14,8.20710678 L13,7.20710678 L13,9.79289322 Z M13,5.79289322 L14,6.79289322 L14,4.20710678 L13,3.20710678 L13,5.79289322 Z M2.5,2 C2.22385763,2 2,2.22385763 2,2.5 L2,11.5 C2,11.7761424 2.22385763,12 2.5,12 L11.5,12 C11.7761424,12 12,11.7761424 12,11.5 L12,2.5 C12,2.22385763 11.7761424,2 11.5,2 L2.5,2 Z" mask="url(#添加投影-b)"/>
  </g>
</svg>
