<?xml version="1.0" encoding="UTF-8"?>
<svg width="16px" height="16px" viewBox="0 0 16 16" version="1.1" xmlns="http://www.w3.org/2000/svg" xmlns:xlink="http://www.w3.org/1999/xlink">
    <title>icon16/输出为PDF</title>
    <g id="icon16/输出为PDF" stroke="none" stroke-width="1" fill="none" fill-rule="evenodd">
        <g id="编组" transform="translate(-0.000000, 0.000000)">
            <polygon id="#" points="9.09494702e-13 0 16 0 16 16 9.09494702e-13 16"></polygon>
            <path d="M14.2,0 C14.607841,0 14.9444016,0.305188147 14.9937669,0.6996497 L15,0.8 L15,15.2 C15,15.607841 14.6948119,15.9444016 14.3003503,15.9937669 L14.2,16 L1.8,16 C1.39215895,16 1.05559842,15.6948119 1.00623314,15.3003503 L1,15.2 L1,10.5 C1,10.2238576 1.22385763,10 1.5,10 C1.74545989,10 1.94960837,10.1768752 1.99194433,10.4101244 L2,10.5 L2,15 L14,15 L14,1 L2,1 L2,2.5 C2,2.74545989 1.82312484,2.94960837 1.58987563,2.99194433 L1.5,3 C1.25454011,3 1.05039163,2.82312484 1.00805567,2.58987563 L1,2.5 L1,0.8 C1,0.392158954 1.30518815,0.055598419 1.6996497,0.00623313573 L1.8,0 L14.2,0 Z M9,4 C10.6568542,4 12,5.34314575 12,7 C12,8.59768088 10.75108,9.90366088 9.17627279,9.99490731 L9,10 L6.5,10 C5.94771525,10 5.5,10.4477153 5.5,11 C5.5,11.5128358 5.88604019,11.9355072 6.38337887,11.9932723 L6.5,12 L7,12 L7,11 C7,10.7545401 7.17687516,10.5503916 7.41012437,10.5080557 L7.5,10.5 C7.74545989,10.5 7.94960837,10.6768752 7.99194433,10.9101244 L8,11 L8,12.5 C8,12.7454599 7.82312484,12.9496084 7.58987563,12.9919443 L7.5,13 L6.5,13 C5.3954305,13 4.5,12.1045695 4.5,11 C4.5,9.9456382 5.31587779,9.08183488 6.35073766,9.00548574 L6.5,9 L9,9 C10.1045695,9 11,8.1045695 11,7 C11,5.9456382 10.1841222,5.08183488 9.14926234,5.00548574 L9,5 L8,5 L8,8 C8,8.27614237 7.77614237,8.5 7.5,8.5 C7.25454011,8.5 7.05039163,8.32312484 7.00805567,8.08987563 L7,8 L7,4.5 C7,4.25454011 7.17687516,4.05039163 7.41012437,4.00805567 L7.5,4 L9,4 Z M2.78780449,4.08923254 L2.85355339,4.14644661 L4.85355339,6.14644661 C4.93754871,6.23044192 4.98328156,6.33033687 4.99673851,6.43167864 L5.00087302,6.50773042 L4.99346531,6.58296981 L4.9750766,6.65604186 L4.94626815,6.72559163 L4.90760118,6.79026415 L4.85355339,6.85355339 L2.85355339,8.85355339 C2.65829124,9.04881554 2.34170876,9.04881554 2.14644661,8.85355339 C1.97288026,8.67998704 1.95359511,8.41056264 2.08859116,8.2156945 L2.14644661,8.14644661 L3.293,6.999 L0.5,7 C0.254540111,7 0.0503916296,6.82312484 0.00805566941,6.58987563 L0,6.5 C0,6.25454011 0.176875161,6.05039163 0.410124368,6.00805567 L0.5,6 L3.292,5.999 L2.14644661,4.85355339 L2.09152626,4.79084539 C1.75300989,4.34517276 2.34148022,3.75492423 2.78780449,4.08923254 Z" id="形状结合" fill="#444E63"></path>
        </g>
    </g>
</svg>