<?xml version="1.0" encoding="UTF-8"?>
<svg width="16px" height="16px" viewBox="0 0 16 16" version="1.1" xmlns="http://www.w3.org/2000/svg" xmlns:xlink="http://www.w3.org/1999/xlink">
    <title>icon16/录屏</title>
    <g id="icon16/录屏" stroke="none" stroke-width="1" fill="none" fill-rule="evenodd">
        <g id="编组">
            <polygon id="#" points="0 0 16 0 16 16 0 16"></polygon>
            <path d="M12.2,2 C12.607841,2 12.9444016,2.30518815 12.9937669,2.6996497 L13,2.8 L13,5.19 L15.2763932,4.0527864 C15.5832706,3.89934769 15.9401695,4.09353105 15.9932612,4.41665838 L16,4.5 L16,12.5 C16,12.8430994 15.6667071,13.075478 15.3539499,12.9784577 L15.2763932,12.9472136 L13,11.809 L13,14.2 C13,14.607841 12.6948119,14.9444016 12.3003503,14.9937669 L12.2,15 L0.8,15 C0.392158954,15 0.055598419,14.6948119 0.00623313573,14.3003503 L0,14.2 L0,2.8 C0,2.39215895 0.305188147,2.05559842 0.6996497,2.00623314 L0.8,2 L12.2,2 Z M12,3 L1,3 L1,14 L12,14 L12,3 Z M4.64545455,4.9175272 C4.76681175,4.9175272 4.88571057,4.95174023 4.98850787,5.0162405 L4.98850787,5.0162405 L9.66938072,7.95325876 C9.97133757,8.14272188 10.0625318,8.54109648 9.87306864,8.84305333 C9.82138358,8.92542639 9.75175379,8.99505618 9.66938072,9.04674124 L9.66938072,9.04674124 L4.98850787,11.9837595 C4.68655102,12.1732226 4.28817643,12.0820284 4.0987133,11.7800716 C4.03421303,11.6772743 4,11.5583755 4,11.4370183 L4,11.4370183 L4,5.56298174 C4,5.20650704 4.28897984,4.9175272 4.64545455,4.9175272 Z M15,5.308 L13,6.308 L13,10.691 L15,11.691 L15,5.308 Z M5,6.204 L5,10.795 L8.658,8.5 L5,6.204 Z" id="形状结合" fill="#444E63"></path>
        </g>
    </g>
</svg>