<?xml version="1.0" encoding="UTF-8"?>
<svg width="16px" height="16px" viewBox="0 0 16 16" version="1.1" xmlns="http://www.w3.org/2000/svg" xmlns:xlink="http://www.w3.org/1999/xlink">
    <title>icon16/提取文字</title>
    <g id="icon16/提取文字" stroke="none" stroke-width="1" fill="none" fill-rule="evenodd">
        <g id="编组">
            <polygon id="#" points="0 0 16 0 16 16 0 16"></polygon>
        </g>
        <path d="M1.5,11 L1.58987563,11.0080557 C1.82312484,11.0503916 2,11.2545401 2,11.5 L2,11.5 L2,15 L5.5,15 L5.58987563,15.0080557 C5.82312484,15.0503916 6,15.2545401 6,15.5 C6,15.7761424 5.77614237,16 5.5,16 L5.5,16 L1.8,16 L1.6996497,15.9937669 C1.30518815,15.9444016 1,15.607841 1,15.2 L1,15.2 L1,11.5 L1.00805567,11.4101244 C1.05039163,11.1768752 1.25454011,11 1.5,11 L1.5,11 Z M15.5,11 C15.7454599,11 15.9496084,11.1768752 15.9919443,11.4101244 L16,11.5 L16,15.2 C16,15.607841 15.6948119,15.9444016 15.3003503,15.9937669 L15.2,16 L11.5,16 C11.2238576,16 11,15.7761424 11,15.5 C11,15.2545401 11.1768752,15.0503916 11.4101244,15.0080557 L11.5,15 L15,15 L15,11.5 C15,11.2545401 15.1768752,11.0503916 15.4101244,11.0080557 L15.5,11 Z M11.5,5 C11.7761424,5 12,5.22385763 12,5.5 C12,5.77614237 11.7761424,6 11.5,6 L9,6 L9,11.5 C9,11.7761424 8.77614237,12 8.5,12 C8.22385763,12 8,11.7761424 8,11.5 L8,6 L5.5,6 C5.22385763,6 5,5.77614237 5,5.5 C5,5.22385763 5.22385763,5 5.5,5 L11.5,5 Z M5.5,1 C5.77614237,1 6,1.22385763 6,1.5 C6,1.74545989 5.82312484,1.94960837 5.58987563,1.99194433 L5.5,2 L2,2 L2,5.5 C2,5.74545989 1.82312484,5.94960837 1.58987563,5.99194433 L1.5,6 C1.25454011,6 1.05039163,5.82312484 1.00805567,5.58987563 L1,5.5 L1,1.8 C1,1.39215895 1.30518815,1.05559842 1.6996497,1.00623314 L1.8,1 L5.5,1 Z M15.2,1 L15.3003503,1.00623314 C15.6589517,1.05111067 15.9437734,1.33333964 15.9925956,1.69070013 L16,1.8 L16,5.5 L15.9919443,5.58987563 C15.9549004,5.79396869 15.7939687,5.95490037 15.5898756,5.99194433 L15.5,6 L15.4101244,5.99194433 C15.2060313,5.95490037 15.0450996,5.79396869 15.0080557,5.58987563 L15,5.5 L15,2 L11.5,2 L11.4101244,1.99194433 C11.1768752,1.94960837 11,1.74545989 11,1.5 C11,1.25454011 11.1768752,1.05039163 11.4101244,1.00805567 L11.5,1 L15.2,1 Z" id="形状结合" fill="#333840"></path>
    </g>
</svg>