<?xml version="1.0" encoding="UTF-8"?>
<svg width="16px" height="16px" viewBox="0 0 16 16" version="1.1" xmlns="http://www.w3.org/2000/svg" xmlns:xlink="http://www.w3.org/1999/xlink">
    <title>切片</title>
    <g id="页面-1" stroke="none" stroke-width="1" fill="none" fill-rule="evenodd">
        <g id="第一期" transform="translate(-913.000000, -908.000000)">
            <g id="编组-21" transform="translate(703.000000, 617.000000)">
                <g id="编组-5" transform="translate(0.000000, 283.000000)">
                    <g id="编组-2" transform="translate(210.000000, 8.000000)">
                        <rect id="#" fill="#D8D8D8" opacity="0" x="0" y="0" width="16" height="16"></rect>
                        <path d="M8.14360801,0.159478016 C8.40125425,0.0601149068 8.69066751,0.188428735 8.79003061,0.446074973 C8.88939372,0.703721211 8.76107989,0.993134469 8.50343366,1.09249758 C8.0896757,1.25206629 7.69192172,1.58083294 7.11364392,2.19973979 C6.92511695,2.40151242 6.60871661,2.41225015 6.40694399,2.22372318 C6.20517136,2.03519621 6.19443363,1.71879587 6.3829606,1.51702324 C7.05830613,0.794228807 7.5486578,0.388924806 8.14360801,0.159478016 Z M10.4406718,3.42771164 C10.1680041,3.38404308 9.98236364,3.12760188 10.0260322,2.8549342 L10.1066123,2.37916715 C10.1983632,1.79919814 10.156871,1.52601379 9.92978856,1.32635192 C9.72240745,1.14401243 9.70210721,0.828081467 9.8844467,0.620700363 C10.0667862,0.413319258 10.3827171,0.393019016 10.5900983,0.575358503 C11.1058831,1.02886145 11.2194171,1.56619673 11.1207729,2.35007731 L11.0776076,2.63766186 L11.0134492,3.01307205 C10.9697807,3.28573974 10.7133395,3.47138021 10.4406718,3.42771164 Z M13.9959092,4.29597917 C14.0239047,4.57069878 13.8238953,4.81609783 13.5491756,4.8440933 L13.3569937,4.86587772 L12.7924314,4.94080724 C12.1948814,5.0185449 11.806154,5.03775864 11.416989,4.98045168 C11.1437928,4.94022184 10.9549362,4.68613983 10.995166,4.41294361 C11.0353959,4.1397474 11.2894779,3.95089084 11.5626741,3.99112067 C11.767584,4.02129493 11.9964043,4.02006056 12.313028,3.9895866 L12.6612859,3.94944644 L13.2380917,3.87295927 L13.4477951,3.84924558 C13.7225147,3.82125011 13.9679138,4.02125955 13.9959092,4.29597917 Z M15.7567603,7.2488667 C15.6336484,7.49604694 15.3334673,7.5966242 15.0862871,7.4735123 C14.8391068,7.3504004 14.7385296,7.05021931 14.8616415,6.80303907 C15.0033138,6.51859384 15.0409009,6.14353797 14.9472408,5.6055447 C14.918892,5.45536043 14.8798883,5.331161 14.831933,5.23067653 C14.7129967,4.98146021 14.8186096,4.68301357 15.0678259,4.56407731 C15.3170422,4.44514105 15.6154889,4.55075392 15.7344251,4.79997024 C15.8213974,4.98220986 15.8861754,5.18848221 15.9311476,5.4270017 C16.0603976,6.16902639 16.0014045,6.75767781 15.7567603,7.2488667 Z M12.9175164,9.75245892 C12.8979476,10.027907 12.6587891,10.2353382 12.383341,10.2157693 C12.1078928,10.1962005 11.9004617,9.95704196 11.9200305,9.68159384 C11.9264384,9.59139842 11.9396318,9.50137816 11.959674,9.41166139 C12.1105703,8.73618869 12.500257,8.35314389 13.2687856,7.93768993 L13.5062425,7.81422455 C13.752841,7.68995153 14.0534918,7.78911594 14.1777648,8.03571446 C14.3020378,8.28231297 14.2028734,8.58296375 13.9562749,8.70723677 L13.9052225,8.73295734 C13.2611607,9.06164062 13.013662,9.28032601 12.9356183,9.62968116 C12.926387,9.67100443 12.9204023,9.71183862 12.9175164,9.75245892 Z M15.1818158,12.6349641 C15.3537714,12.8510332 15.3180104,13.1655895 15.1019413,13.3375451 C14.8858722,13.5095008 14.571316,13.4737398 14.3993603,13.2576706 C14.3221047,13.1605959 14.2321846,13.0585387 14.1258899,12.9466426 L13.7396798,12.5623054 L13.1986563,12.045273 C13.134114,11.9822797 13.0744123,11.9229926 13.0176512,11.8653915 C12.8238286,11.6687003 12.826154,11.3521264 13.0228452,11.1583038 C13.2195364,10.9644812 13.5361103,10.9668066 13.7299329,11.1634978 L13.8942178,11.3268178 L14.6794742,12.0821819 L14.7251929,12.1282906 C14.9052681,12.3104655 15.0537969,12.4741033 15.1818158,12.6349641 Z M12.6239514,15.6015801 C12.3959501,15.4457917 12.33741,15.1346687 12.4931985,14.9066674 C12.6489869,14.6786661 12.9601099,14.620126 13.1881112,14.7759145 C13.6630402,15.1004233 13.9269069,15.0842371 14.4037265,14.6110299 L14.4841976,14.5254032 C14.6670127,14.3184413 14.9829894,14.2988663 15.1899514,14.4816814 C15.3969134,14.6644965 15.4164883,14.9804732 15.2336733,15.1874352 C15.1954407,15.2307176 15.1550338,15.2737384 15.1102942,15.3186688 C14.2817399,16.1409686 13.4849011,16.1898487 12.6239514,15.6015801 Z M9.54443156,13.3174133 C9.2911703,13.2073527 9.17508325,12.9128221 9.28514388,12.6595609 C9.39520452,12.4062996 9.68973511,12.2902125 9.94299637,12.4002732 C10.5847545,12.6791642 11.1492271,13.0501252 11.7498964,13.5498079 C11.9621868,13.7264074 11.9911201,14.0416649 11.8145207,14.2539554 C11.6379212,14.4662459 11.3226636,14.4951792 11.1103732,14.3185797 C10.5769337,13.874824 10.0885753,13.5538838 9.54443156,13.3174133 Z M6.14400176,13.2538823 C5.90720385,13.3959434 5.60007792,13.3191441 5.45801681,13.0823462 C5.3159557,12.8455482 5.39275506,12.5384223 5.62955297,12.3963612 C6.17554496,12.0688067 6.77468605,11.8968544 7.46442576,11.896869 C7.60239826,11.8971385 7.73842912,11.90141 7.87258425,11.9096231 C8.14821058,11.9264974 8.35797061,12.1636159 8.34109639,12.4392422 C8.32422217,12.7148686 8.08710363,12.9246286 7.8114773,12.9077544 C7.69707041,12.9007502 7.58076561,12.8970982 7.46343921,12.896869 C6.95922254,12.8968581 6.53724788,13.0179639 6.14400176,13.2538823 Z M2.84145175,15.8712435 C2.56610544,15.8921964 2.32590748,15.6859698 2.30495458,15.4106235 C2.28632978,15.1658712 2.44720483,14.9488905 2.67656928,14.8889782 L2.76557458,14.8741263 C3.01399927,14.855222 3.22990418,14.7311779 3.56801547,14.3899138 L3.78678482,14.1581923 C3.86542139,14.0716652 3.95018404,13.9755527 4.04231055,13.8689581 C4.22287851,13.6600327 4.53862527,13.6370444 4.74755067,13.8176124 C4.95647607,13.9981804 4.97946431,14.3139271 4.79889635,14.5228525 C3.97340082,15.4779887 3.55980011,15.8165796 2.84145175,15.8712435 Z M0.750319616,12.2249455 C0.868496337,11.9753681 1.16661995,11.8688468 1.41619734,11.9870236 C1.66577473,12.1052003 1.77229602,12.4033239 1.6541193,12.6529013 C1.34443637,13.3069206 1.30246473,13.8116953 1.52302288,14.1779366 C1.66548308,14.4144946 1.58920171,14.7217496 1.35264368,14.8642098 C1.11608565,15.00667 0.808830662,14.9303886 0.666370463,14.6938306 C0.241968837,13.9891031 0.311620353,13.1514344 0.750319616,12.2249455 Z M3.98864662,8.87946117 C4.19293069,9.06526384 4.20791282,9.38149162 4.02211015,9.58577568 L3.48792225,10.1685965 L3.16575023,10.5284155 L2.87719223,10.863643 L2.71330117,11.0616322 C2.53895433,11.2757765 2.22402001,11.3080387 2.00987569,11.1336919 C1.79573137,10.959345 1.76346914,10.6444107 1.93781598,10.4302664 L2.11183205,10.2200409 L2.25991244,10.0460213 L2.80093094,9.43787951 L3.28233211,8.91292469 C3.46813478,8.70864063 3.78436256,8.6936585 3.98864662,8.87946117 Z M0.542066741,7.24470965 C0.367279193,7.03092489 0.398892681,6.7159248 0.612677443,6.54113725 C0.826462205,6.3663497 1.1414623,6.39796319 1.31624985,6.61174795 C1.61137189,6.97271528 2.07242663,7.26857384 2.79141551,7.6031791 C3.04177408,7.71969175 3.15027765,8.01709963 3.033765,8.2674582 C2.91725236,8.51781678 2.61984447,8.62632034 2.3694859,8.5098077 C1.52379005,8.11623515 0.957527636,7.75286489 0.542066741,7.24470965 Z M1.75770666,2.92070568 C2.02104739,2.8376017 2.30189632,2.98371246 2.3850003,3.24705319 C2.46810428,3.51039391 2.32199353,3.79124284 2.0586528,3.87434682 C1.81386148,3.95159706 1.57960541,4.17732045 1.32189601,4.66135802 C1.23833341,4.82057592 1.17168738,4.97225035 1.12118079,5.11648334 C1.02991672,5.37710851 0.744654128,5.51440281 0.484028954,5.42313874 C0.223403781,5.33187468 0.0861094778,5.04661208 0.177373546,4.78598691 C0.2444816,4.59434469 0.330748926,4.3980157 0.437818212,4.19402762 C0.8103359,3.49432677 1.23418454,3.08591663 1.75770666,2.92070568 Z M5.39017109,2.55845634 C5.59331097,2.37140341 5.90962475,2.38444446 6.09667767,2.58758435 C6.2837306,2.79072423 6.27068955,3.107038 6.06754967,3.29409093 C5.75315344,3.58358965 5.46048137,3.79254302 5.15416371,3.92803273 C4.75217289,4.10584038 4.34373762,4.15892126 3.8987116,4.11755199 C3.62375468,4.09199221 3.42157835,3.84837528 3.44713814,3.57341836 C3.47269792,3.29846144 3.71631484,3.09628511 3.99127176,3.1218449 C4.2759799,3.14831114 4.51513742,3.11722986 4.74965007,3.01350077 C4.94118149,2.92878304 5.14956954,2.78000428 5.39017109,2.55845634 Z" id="stylebaseStrokeDark" fill="#444E63"></path>
                    </g>
                </g>
            </g>
        </g>
    </g>
</svg>