<?xml version="1.0" encoding="UTF-8"?>
<svg width="16px" height="16px" viewBox="0 0 16 16" version="1.1" xmlns="http://www.w3.org/2000/svg" xmlns:xlink="http://www.w3.org/1999/xlink">
    <title>切片</title>
    <g id="页面-1" stroke="none" stroke-width="1" fill="none" fill-rule="evenodd">
        <g id="第一期" transform="translate(-831.000000, -908.000000)">
            <g id="编组-21" transform="translate(703.000000, 617.000000)">
                <g id="编组-5" transform="translate(0.000000, 283.000000)">
                    <g id="路径" transform="translate(128.000000, 8.000000)">
                        <rect id="#" fill="#D8D8D8" opacity="0" x="1.8189894e-12" y="0" width="16" height="16"></rect>
                        <path d="M15.6649958,2.24921742 C15.8033138,2.48822104 15.721692,2.79410068 15.4826884,2.93241873 C15.2436848,3.07073677 14.9378051,2.98911498 14.7994871,2.75011136 C14.5328174,2.28932525 14.0418787,2 13.5,2 C13.2238576,2 13,1.77614237 13,1.5 C13,1.22385763 13.2238576,1 13.5,1 C14.4024381,1 15.2213329,1.48259989 15.6649958,2.24921742 Z M16,6.43853254 C16,6.71467492 15.7761424,6.93853254 15.5,6.93853254 C15.2238576,6.93853254 15,6.71467492 15,6.43853254 L15,4.43853254 C15,4.16239017 15.2238576,3.93853254 15.5,3.93853254 C15.7761424,3.93853254 16,4.16239017 16,4.43853254 L16,6.43853254 Z M16,10.4385325 C16,10.7146749 15.7761424,10.9385325 15.5,10.9385325 C15.2238576,10.9385325 15,10.7146749 15,10.4385325 L15,8.43853254 C15,8.16239017 15.2238576,7.93853254 15.5,7.93853254 C15.7761424,7.93853254 16,8.16239017 16,8.43853254 L16,10.4385325 Z M14.8262703,14.6195134 C14.5922915,14.7661712 14.2837245,14.6953836 14.1370667,14.4614048 C13.9904088,14.227426 14.0611965,13.918859 14.2951753,13.7722011 C14.7305854,13.4992862 15,13.0231017 15,12.5 L15,12.4385325 C15,12.1623902 15.2238576,11.9385325 15.5,11.9385325 C15.7761424,11.9385325 16,12.1623902 16,12.4385325 L16,12.5 C16,13.3710529 15.5504721,14.1655839 14.8262703,14.6195134 Z M10.6229349,15 C10.3467925,15 10.1229349,14.7761424 10.1229349,14.5 C10.1229349,14.2238576 10.3467925,14 10.6229349,14 L12.6229349,14 C12.8990773,14 13.1229349,14.2238576 13.1229349,14.5 C13.1229349,14.7761424 12.8990773,15 12.6229349,15 L10.6229349,15 Z M6.62293492,15 C6.34679254,15 6.12293492,14.7761424 6.12293492,14.5 C6.12293492,14.2238576 6.34679254,14 6.62293492,14 L8.62293492,14 C8.89907729,14 9.12293492,14.2238576 9.12293492,14.5 C9.12293492,14.7761424 8.89907729,15 8.62293492,15 L6.62293492,15 Z M2.62293492,15 C2.34679254,15 2.12293492,14.7761424 2.12293492,14.5 C2.12293492,14.2238576 2.34679254,14 2.62293492,14 L4.62293492,14 C4.89907729,14 5.12293492,14.2238576 5.12293492,14.5 C5.12293492,14.7761424 4.89907729,15 4.62293492,15 L2.62293492,15 Z M0,11.6844024 C0,11.40826 0.223857625,11.1844024 0.5,11.1844024 C0.776142375,11.1844024 1,11.40826 1,11.6844024 L1,12.5 C1,12.8040083 1.09009021,13.0932868 1.25647316,13.3391927 C1.41122058,13.5679018 1.35126279,13.8787547 1.1225537,14.0335021 C0.89384461,14.1882495 0.582991692,14.1282918 0.428244276,13.8995827 C0.150779455,13.4895033 0,13.0053522 0,12.5 L0,11.6844024 Z M0,7.68440238 C0,7.40826 0.223857625,7.18440238 0.5,7.18440238 C0.776142375,7.18440238 1,7.40826 1,7.68440238 L1,9.68440238 C1,9.96054475 0.776142375,10.1844024 0.5,10.1844024 C0.223857625,10.1844024 0,9.96054475 0,9.68440238 L0,7.68440238 Z M0,3.68440238 C0,3.40826 0.223857625,3.18440238 0.5,3.18440238 C0.776142375,3.18440238 1,3.40826 1,3.68440238 L1,5.68440238 C1,5.96054475 0.776142375,6.18440238 0.5,6.18440238 C0.223857625,6.18440238 0,5.96054475 0,5.68440238 L0,3.68440238 Z M3.25413016,1 C3.53027254,1 3.75413016,1.22385763 3.75413016,1.5 C3.75413016,1.77614237 3.53027254,2 3.25413016,2 L2.5,2 C2.17805319,2 1.8726727,2.10110165 1.61830932,2.28630943 C1.39507332,2.44885266 1.08233747,2.39965144 0.919794245,2.17641544 C0.75725102,1.95317944 0.806452235,1.64044359 1.02968823,1.47790037 C1.45365393,1.16920127 1.96473131,1 2.5,1 L3.25413016,1 Z M7.25413016,1 C7.53027254,1 7.75413016,1.22385763 7.75413016,1.5 C7.75413016,1.77614237 7.53027254,2 7.25413016,2 L5.25413016,2 C4.97798779,2 4.75413016,1.77614237 4.75413016,1.5 C4.75413016,1.22385763 4.97798779,1 5.25413016,1 L7.25413016,1 Z M11.2541302,1 C11.5302725,1 11.7541302,1.22385763 11.7541302,1.5 C11.7541302,1.77614237 11.5302725,2 11.2541302,2 L9.25413016,2 C8.97798779,2 8.75413016,1.77614237 8.75413016,1.5 C8.75413016,1.22385763 8.97798779,1 9.25413016,1 L11.2541302,1 Z M13.5,1 C13.7761424,1 14,1.22385763 14,1.5 C14,1.77614237 13.7761424,2 13.5,2 L13.2541302,2 C12.9779878,2 12.7541302,1.77614237 12.7541302,1.5 C12.7541302,1.22385763 12.9779878,1 13.2541302,1 L13.5,1 Z" id="stylebaseStrokeDark" fill="#444E63"></path>
                    </g>
                </g>
            </g>
        </g>
    </g>
</svg>