<svg width="16" height="16" viewBox="0 0 16 16" fill="none" xmlns="http://www.w3.org/2000/svg">
<g clip-path="url(#clip0_440_5050)">
<path fill-rule="evenodd" clip-rule="evenodd" d="M9.56171 0.147411C9.8341 0.19858 10.0133 0.460041 9.96191 0.731401C9.91055 1.00276 9.6481 1.18126 9.37572 1.13009C8.91658 1.04384 8.44638 1 7.96981 1C7.69262 1 7.46792 0.776142 7.46792 0.5C7.46792 0.223858 7.69262 0 7.96981 0C8.50884 0 9.0413 0.0496511 9.56171 0.147411ZM12.9873 1.64366C13.209 1.80949 13.2537 2.12292 13.0872 2.34372C12.9208 2.56453 12.6062 2.60909 12.3845 2.44326C12.0114 2.16404 11.6083 1.92064 11.1815 1.71732C10.9315 1.59819 10.8257 1.29966 10.9453 1.05054C11.0648 0.801415 11.3645 0.69604 11.6146 0.815175C12.1011 1.04697 12.5611 1.32472 12.9873 1.64366ZM15.3553 4.55059C15.4704 4.80179 15.3593 5.0984 15.1072 5.21308C14.855 5.32777 14.5573 5.2171 14.4422 4.9659C14.2496 4.54575 14.0095 4.14566 13.7261 3.77201C13.559 3.55168 13.6029 3.23813 13.824 3.07166C14.0452 2.9052 14.3599 2.94887 14.527 3.1692C14.8543 3.60074 15.1322 4.06366 15.3553 4.55059ZM15.9624 8.23008C15.934 8.50476 15.6874 8.70448 15.4117 8.67616C15.136 8.64784 14.9355 8.40221 14.9639 8.12752C14.9856 7.91823 14.9962 7.70881 14.9962 7.48579C14.9956 7.23146 14.9793 6.97907 14.9474 6.72941C14.9125 6.45548 15.107 6.20517 15.382 6.17034C15.657 6.13551 15.9082 6.32935 15.9432 6.60329C15.9803 6.89398 15.9993 7.18772 16 7.4846C16 7.74276 15.9876 7.98643 15.9624 8.23008ZM4.48306 14.2581C4.23052 14.1442 4.11842 13.848 4.23269 13.5964C4.34695 13.3448 4.6443 13.2331 4.89684 13.347C5.32296 13.5391 5.76962 13.6908 6.23098 13.7995C6.50073 13.863 6.66771 14.1324 6.60394 14.4011C6.54017 14.6698 6.2698 14.8362 6.00005 14.7727C5.47582 14.6492 4.96793 14.4766 4.48306 14.2581ZM1.52634 11.977C1.35389 11.7608 1.39001 11.4463 1.60701 11.2745C1.82402 11.1027 2.13974 11.1387 2.31219 11.3549C2.60129 11.7173 2.93048 12.0514 3.29404 12.3516C3.50748 12.5277 3.53714 12.8429 3.36029 13.0556C3.18344 13.2682 2.86705 13.2978 2.65361 13.1216C2.23679 12.7775 1.85883 12.3938 1.52634 11.977ZM0.00464889 8.45882C-0.0327493 8.1852 0.159582 7.93319 0.434232 7.89593C0.708883 7.85867 0.961849 8.05028 0.999247 8.3239C1.06214 8.78407 1.17767 9.23365 1.34327 9.66688C1.44192 9.92494 1.31189 10.2138 1.05286 10.3121C0.793818 10.4104 0.503858 10.2808 0.405213 10.0228C0.212494 9.51859 0.0779201 8.99489 0.00464889 8.45882ZM0.463071 4.83075C0.56739 4.57491 0.860139 4.45175 1.11694 4.55568C1.37375 4.65961 1.49737 4.95126 1.39305 5.2071C1.21779 5.63691 1.09224 6.08385 1.01911 6.54205C0.975573 6.81476 0.718368 7.00068 0.444623 6.95732C0.170878 6.91395 -0.0157469 6.65771 0.0277855 6.38499C0.112985 5.85125 0.259188 5.33077 0.463071 4.83075ZM2.76055 1.7917C2.97703 1.61924 3.29286 1.65425 3.46598 1.86991C3.63909 2.08557 3.60395 2.40021 3.38747 2.57268C3.01866 2.86652 2.68348 3.19492 2.38774 3.55217C2.21138 3.76521 1.89506 3.79548 1.68121 3.61978C1.46737 3.44408 1.43698 3.12895 1.61334 2.91591C1.95328 2.50528 2.33791 2.12842 2.76055 1.7917ZM6.13321 0.197117C6.40396 0.137951 6.67159 0.308646 6.73098 0.578375C6.79037 0.848105 6.61903 1.11473 6.34828 1.17389C5.88516 1.2751 5.43612 1.41952 5.0069 1.6045C4.7525 1.71414 4.45705 1.59756 4.347 1.34412C4.23694 1.09067 4.35396 0.796335 4.60837 0.686697C5.09665 0.476266 5.60713 0.312082 6.13321 0.197117Z" fill="#444E63"/>
<path d="M11.239 14.5266L14.6113 11.6174C14.7134 11.5294 14.7405 11.4014 14.6978 11.2929L13.4478 8.11467C13.4031 8.00107 13.28 7.90768 13.1223 7.90768H8.87764C8.71998 7.90768 8.59683 8.00107 8.55215 8.11467L7.30217 11.2929C7.25953 11.4014 7.28662 11.5294 7.38867 11.6174L10.761 14.5266C10.8948 14.6421 11.1051 14.6421 11.239 14.5266ZM11.7012 15.0625C11.3018 15.407 10.6982 15.407 10.2988 15.0625L6.92644 12.1532C6.60163 11.873 6.48865 11.428 6.64364 11.0339L7.89362 7.85567C8.04916 7.46018 8.44137 7.20004 8.87764 7.20004H13.1223C13.5586 7.20004 13.9508 7.46018 14.1064 7.85567L15.3563 11.0339C15.5113 11.428 15.3984 11.873 15.0735 12.1532L11.7012 15.0625Z" fill="#F3B752" stroke="#F3B752" stroke-width="0.1"/>
<path d="M12.4942 10.8067C12.4942 10.7175 12.4343 10.6393 12.3481 10.6161L9.64246 9.88867V10.9479C9.64246 11.0371 9.70234 11.1152 9.78848 11.1383L12.4942 11.8658C12.4942 11.4459 12.4942 11.1899 12.4942 10.8067Z" fill="#F3B752"/>
<path d="M11.314 8.5566C11.3752 8.52117 11.4506 8.52117 11.5117 8.5566L12.4648 9.1087C12.5152 9.13792 12.5152 9.21075 12.4648 9.23997L9.74839 10.8136C9.69015 10.8473 9.65179 10.9064 9.64395 10.9722C9.64301 10.9646 9.6425 10.9568 9.64246 10.949V9.63861C9.64246 9.56825 9.67994 9.50322 9.74083 9.46795L11.314 8.5566Z" fill="#F3B752"/>
<path d="M10.8233 13.1904C10.7617 13.2261 10.6857 13.2261 10.624 13.1904L9.67345 12.6397C9.62235 12.6101 9.62235 12.5361 9.67345 12.5065L12.3868 10.9346C12.4453 10.9008 12.484 10.8416 12.4924 10.7754C12.4935 10.784 12.4941 10.7928 12.4941 10.8017V12.107C12.4941 12.1785 12.4561 12.2445 12.3944 12.2802L10.8233 13.1904Z" fill="#F3B752"/>
</g>
<defs>
<clipPath id="clip0_440_5050">
<rect width="16" height="16" fill="white"/>
</clipPath>
</defs>
</svg>
