<?xml version="1.0" encoding="UTF-8"?>
<svg width="16px" height="16px" viewBox="0 0 16 16" version="1.1" xmlns="http://www.w3.org/2000/svg" xmlns:xlink="http://www.w3.org/1999/xlink">
    <title>icon16/截屏形状_02</title>
    <g id="icon16/截屏形状_02" stroke="none" stroke-width="1" fill="none" fill-rule="evenodd">
        <g id="编组">
            <polygon id="#" points="0 0 16 0 16 16 0 16"></polygon>
            <path d="M9.02565835,9.65811388 C8.89536535,9.26723487 9.26723487,8.89536535 9.65811388,9.02565835 L9.65811388,9.02565835 L15.6581139,11.0256584 C16.0633692,11.1607435 16.1235488,11.7089659 15.7572479,11.9287465 L15.7572479,11.9287465 L13.364,13.364 L11.9287465,15.7572479 C11.7246645,16.0973844 11.2373852,16.0697904 11.0606584,15.7396429 L11.0606584,15.7396429 L11.0256584,15.6581139 Z M9.37966667,13.8833943 L9.698,14.839 L9.49601162,14.8778803 C9.00635994,14.9588713 8.50614488,15 8,15 L7.87401087,14.9991496 C7.59789369,14.9954198 7.37708005,14.7685591 7.38080981,14.4924419 C7.38453957,14.2163247 7.61140034,13.995511 7.88751753,13.9992408 L8,14 C8.4676374,14 8.92904007,13.9606841 9.37966667,13.8833943 Z M4.27031641,13.0772508 C4.81320553,13.3711333 5.4010412,13.5999288 6.01897551,13.7561084 C6.28669917,13.8237741 6.44887817,14.095661 6.38121244,14.3633846 C6.31354671,14.6311083 6.04165988,14.7932873 5.77393622,14.7256216 C5.07577913,14.5491661 4.41032349,14.2901596 3.79426175,13.9566665 C3.55141781,13.8252076 3.46112237,13.5217752 3.59258123,13.2789313 C3.7240401,13.0360874 4.02747247,12.9457919 4.27031641,13.0772508 Z M10.291,10.291 L11.63,14.31 L12.5712535,12.7427521 C12.5994035,12.6958356 12.6349641,12.6540195 12.6763951,12.6188439 L12.6763951,12.6188439 L12.7427521,12.5712535 L14.31,11.63 L10.291,10.291 Z M1.63299559,10.495147 C1.91852319,11.028865 2.29490829,11.5245272 2.74908803,11.9659256 C2.94711671,12.1583815 2.95163439,12.4749317 2.75917854,12.6729604 C2.56672269,12.8709891 2.25017244,12.8755067 2.05214376,12.6830509 C1.52503395,12.1707748 1.08602128,11.5926382 0.751245659,10.9668641 C0.620984569,10.7233756 0.712773537,10.4203917 0.956262058,10.2901306 C1.19975058,10.1598695 1.5027345,10.2516585 1.63299559,10.495147 Z M15.494246,8.56366291 C15.7656177,8.61477049 15.9441771,8.87619164 15.8930696,9.14756339 C15.8401066,9.42878706 15.7677681,9.7056711 15.676759,9.97697505 L14.7279277,9.66117191 C14.8047981,9.43235273 14.8657791,9.1991259 14.9103455,8.96248647 C14.9614531,8.69111472 15.2228742,8.51255533 15.494246,8.56366291 Z M0.724637304,6.33790849 C0.994871198,6.39472621 1.16787919,6.65985393 1.11106147,6.93008783 C1.03736678,7.28059116 1,7.63812372 1,8 C1,8.23395387 1.01561782,8.46612653 1.04659117,8.69581601 C1.08349463,8.96948141 0.891561158,9.2212472 0.617895767,9.25815066 C0.344230377,9.29505411 0.0924645823,9.10312064 0.055561127,8.82945525 C0.0186210624,8.55551837 0,8.27869983 0,8 C0,7.5688092 0.0445727931,7.14232816 0.132457967,6.72433265 C0.18927569,6.45409876 0.45440341,6.28109077 0.724637304,6.33790849 Z M15.2128673,4.96696279 C15.56725,5.61164874 15.8072843,6.30231877 15.92207,7.01888731 C15.9657479,7.29155351 15.7801161,7.54800103 15.5074499,7.59167889 C15.2347837,7.63535674 14.9783362,7.44972501 14.9346584,7.17705881 C14.8382476,6.575199 14.6361843,5.9937858 14.3365398,5.44867847 C14.2035176,5.20668729 14.2918545,4.90267896 14.5338457,4.76965685 C14.7758369,4.63663474 15.0798452,4.72497162 15.2128673,4.96696279 Z M3.05217913,3.09320232 C3.23384974,3.30116963 3.21253207,3.61703357 3.00456476,3.79870418 C2.52664954,4.21618881 2.12194597,4.69081158 1.80428727,5.20682799 C1.65952536,5.44198454 1.35154059,5.51526386 1.11638405,5.37050195 C0.881227509,5.22574003 0.807948184,4.91775527 0.952710097,4.68259873 C1.32374103,4.07988252 1.79399103,3.52838909 2.34667727,3.04558796 C2.55464457,2.86391734 2.87050852,2.88523502 3.05217913,3.09320232 Z M12.1210301,1.99811177 C12.7639771,2.33657943 13.3501665,2.75303783 13.8615533,3.23440509 C14.062628,3.42367626 14.0721966,3.74011411 13.8829255,3.94118882 C13.6936543,4.14226352 13.3772164,4.15183217 13.1761417,3.962561 C12.7310732,3.54361901 12.2188461,3.17970714 11.6552034,2.88298772 C11.4108516,2.75435322 11.3170442,2.45198812 11.4456787,2.20763637 C11.5743132,1.96328463 11.8766783,1.86947727 12.1210301,1.99811177 Z M6.77104094,1.57194025 C6.82603705,1.84255075 6.65124706,2.10650705 6.38063657,2.16150316 C5.75580397,2.28848774 5.15723547,2.48862655 4.59931767,2.75525093 C4.35016441,2.87431925 4.05166184,2.76886456 3.93259352,2.5197113 C3.8135252,2.27055804 3.91897989,1.97205548 4.16813315,1.85298716 C4.80006521,1.55099196 5.47657018,1.32479414 6.18147804,1.18153587 C6.45208853,1.12653976 6.71604483,1.30132976 6.77104094,1.57194025 Z M8,1 C8.71726825,1 9.42245169,1.08259949 10.1022279,1.24402741 C10.3708986,1.30782922 10.5369777,1.57735143 10.4731759,1.84602212 C10.4093741,2.11469281 10.1398519,2.28077186 9.87118116,2.21697006 C9.26709784,2.0735171 8.63945428,2 8,2 C7.72385763,2 7.5,1.77614237 7.5,1.5 C7.5,1.22385763 7.72385763,1 8,1 Z" id="形状结合" fill="#333840"></path>
        </g>
    </g>
</svg>