<svg width="16" height="16" viewBox="0 0 16 16" fill="none" xmlns="http://www.w3.org/2000/svg">
<g clip-path="url(#clip0_440_5063)">
<path fill-rule="evenodd" clip-rule="evenodd" d="M14.142 1.40839C14.3858 1.5381 14.4782 1.84087 14.3485 2.08466C14.2188 2.32844 13.9161 2.42092 13.6723 2.29121C13.3145 2.10088 12.9151 2 12.5 2C12.2239 2 12 1.77614 12 1.5C12 1.22386 12.2239 1 12.5 1C13.0799 1 13.6405 1.14158 14.142 1.40839ZM16 4.70648C16.0007 4.98262 15.7775 5.20707 15.5013 5.2078C15.2252 5.20853 15.0007 4.98526 15 4.70912L14.9994 4.44426C14.9917 4.09093 14.9107 3.74977 14.7635 3.43684C14.6459 3.18699 14.7531 2.88911 15.0029 2.77151C15.2528 2.65391 15.5506 2.76112 15.6682 3.01097C15.8748 3.44983 15.9884 3.92857 15.9993 4.43205L16 4.70648ZM16 7.5C16 7.77614 15.7761 8 15.5 8C15.2239 8 15 7.77614 15 7.5V6.6078C15 6.33166 15.2239 6.1078 15.5 6.1078C15.7761 6.1078 16 6.33166 16 6.6078V7.5ZM3.7844 15C3.50826 15 3.2844 14.7761 3.2844 14.5C3.2844 14.2239 3.50826 14 3.7844 14H5.2344C5.51054 14 5.7344 14.2239 5.7344 14.5C5.7344 14.7761 5.51054 15 5.2344 15H3.7844ZM0.49341 13.2927C0.351799 13.0556 0.429182 12.7486 0.666249 12.607C0.903316 12.4654 1.2103 12.5428 1.35191 12.7798C1.56142 13.1306 1.8546 13.426 2.20373 13.6382C2.4397 13.7816 2.51472 14.0892 2.3713 14.3252C2.22787 14.5611 1.92031 14.6362 1.68433 14.4927C1.19604 14.1959 0.786449 13.7832 0.49341 13.2927ZM0 9.6766C0 9.40046 0.223858 9.1766 0.5 9.1766C0.776142 9.1766 1 9.40046 1 9.6766V11.1266C1 11.4027 0.776142 11.6266 0.5 11.6266C0.223858 11.6266 0 11.4027 0 11.1266V9.6766ZM0 6.3266C0 6.05046 0.223858 5.8266 0.5 5.8266C0.776142 5.8266 1 6.05046 1 6.3266V7.7766C1 8.05275 0.776142 8.2766 0.5 8.2766C0.223858 8.2766 0 8.05275 0 7.7766V6.3266ZM0.4495 2.78298C0.585138 2.54245 0.890086 2.45741 1.13062 2.59305C1.37116 2.72869 1.45619 3.03363 1.32055 3.27417C1.12131 3.6275 1.01067 4.02454 1.00074 4.43864C0.99411 4.7147 0.764946 4.93312 0.488883 4.9265C0.212821 4.91987 -0.00560188 4.69071 0.00102332 4.41465C0.0149204 3.83557 0.170216 3.27825 0.4495 2.78298ZM3.7802 1C4.05634 0.999451 4.28064 1.22286 4.2812 1.499C4.28175 1.77515 4.05833 1.99945 3.78219 2L3.44561 2.00058C3.11364 2.00764 2.79234 2.07934 2.49488 2.21013C2.2421 2.32128 1.94707 2.20646 1.83592 1.95367C1.72477 1.70089 1.83959 1.40586 2.09238 1.29471C2.50958 1.11127 2.96038 1.01067 3.43399 1.00069L3.7802 1ZM7.1312 1C7.40734 1 7.6312 1.22386 7.6312 1.5C7.6312 1.77614 7.40734 2 7.1312 2H5.6812C5.40505 2 5.1812 1.77614 5.1812 1.5C5.1812 1.22386 5.40505 1 5.6812 1H7.1312ZM10.4812 1C10.7573 1 10.9812 1.22386 10.9812 1.5C10.9812 1.77614 10.7573 2 10.4812 2H9.0312C8.75505 2 8.5312 1.77614 8.5312 1.5C8.5312 1.22386 8.75505 1 9.0312 1H10.4812Z" fill="#444E63"/>
<path d="M11.239 14.5266L14.6113 11.6174C14.7134 11.5294 14.7405 11.4014 14.6978 11.2929L13.4478 8.11467C13.4031 8.00107 13.28 7.90768 13.1223 7.90768H8.87764C8.71998 7.90768 8.59683 8.00107 8.55215 8.11467L7.30217 11.2929C7.25953 11.4014 7.28662 11.5294 7.38867 11.6174L10.761 14.5266C10.8948 14.6421 11.1051 14.6421 11.239 14.5266ZM11.7012 15.0625C11.3018 15.407 10.6982 15.407 10.2988 15.0625L6.92644 12.1532C6.60163 11.873 6.48865 11.428 6.64364 11.0339L7.89362 7.85567C8.04916 7.46018 8.44137 7.20004 8.87764 7.20004H13.1223C13.5586 7.20004 13.9508 7.46018 14.1064 7.85567L15.3563 11.0339C15.5113 11.428 15.3984 11.873 15.0735 12.1532L11.7012 15.0625Z" fill="#F3B752" stroke="#F3B752" stroke-width="0.1"/>
<path d="M12.4942 10.8067C12.4942 10.7175 12.4343 10.6393 12.3481 10.6161L9.64246 9.88867V10.9479C9.64246 11.0371 9.70233 11.1152 9.78848 11.1383L12.4942 11.8658C12.4942 11.4459 12.4942 11.1899 12.4942 10.8067Z" fill="#F3B752"/>
<path d="M11.314 8.5566C11.3752 8.52117 11.4506 8.52117 11.5117 8.5566L12.4648 9.1087C12.5152 9.13792 12.5152 9.21075 12.4648 9.23997L9.74839 10.8136C9.69015 10.8473 9.65179 10.9064 9.64395 10.9722C9.643 10.9646 9.6425 10.9568 9.64246 10.949V9.63861C9.64246 9.56825 9.67994 9.50322 9.74082 9.46795L11.314 8.5566Z" fill="#F3B752"/>
<path d="M10.8233 13.1904C10.7617 13.2261 10.6857 13.2261 10.624 13.1904L9.67345 12.6397C9.62235 12.6101 9.62235 12.5361 9.67345 12.5065L12.3868 10.9346C12.4453 10.9008 12.484 10.8416 12.4924 10.7754C12.4935 10.784 12.4941 10.7928 12.4941 10.8017V12.107C12.4941 12.1785 12.4561 12.2445 12.3944 12.2802L10.8233 13.1904Z" fill="#F3B752"/>
</g>
<defs>
<clipPath id="clip0_440_5063">
<rect width="16" height="16" fill="white"/>
</clipPath>
</defs>
</svg>
