<svg width="16" height="16" viewBox="0 0 16 16" fill="none" xmlns="http://www.w3.org/2000/svg">
<g clip-path="url(#clip0_440_5056)">
<path fill-rule="evenodd" clip-rule="evenodd" d="M8.14361 0.159479C8.40125 0.0601163 8.69067 0.18843 8.79003 0.446076C8.88939 0.703723 8.76108 0.993136 8.50343 1.0925C8.08967 1.25207 7.69192 1.58083 7.11364 2.19974C6.92512 2.40151 6.60871 2.41225 6.40694 2.22372C6.20517 2.0352 6.19443 1.7188 6.38296 1.51702C7.0583 0.79423 7.54866 0.388926 8.14361 0.159479ZM10.4407 3.42771C10.168 3.38404 9.98236 3.1276 10.026 2.85494L10.1066 2.37917C10.1984 1.7992 10.1569 1.52602 9.92979 1.32635C9.72241 1.14401 9.70211 0.828083 9.88445 0.620702C10.0668 0.413321 10.3827 0.39302 10.5901 0.57536C11.1059 1.02886 11.2194 1.5662 11.1208 2.35008L11.0776 2.63766L11.0134 3.01307C10.9698 3.28574 10.7133 3.47138 10.4407 3.42771ZM13.9959 4.29598C14.0239 4.5707 13.8239 4.8161 13.5492 4.84409L13.357 4.86588L12.7924 4.94081C12.1949 5.01855 11.8062 5.03776 11.417 4.98045C11.1438 4.94022 10.9549 4.68614 10.9952 4.41295C11.0354 4.13975 11.2895 3.95089 11.5627 3.99112C11.7676 4.0213 11.9964 4.02006 12.313 3.98959L12.6613 3.94945L13.2381 3.87296L13.4478 3.84925C13.7225 3.82125 13.9679 4.02126 13.9959 4.29598ZM15.7568 7.24887C15.6336 7.49605 15.3335 7.59663 15.0863 7.47351C14.8391 7.3504 14.7385 7.05022 14.8616 6.80304C15.0033 6.5186 15.0409 6.14354 14.9472 5.60555C14.9189 5.45536 14.8799 5.33116 14.8319 5.23068C14.713 4.98146 14.8186 4.68302 15.0678 4.56408C15.317 4.44514 15.6155 4.55076 15.7344 4.79997C15.8214 4.98221 15.8862 5.18848 15.9311 5.427C16.0604 6.16903 16.0014 6.75768 15.7568 7.24887ZM2.84145 15.8712C2.5661 15.8922 2.32591 15.686 2.30495 15.4106C2.28633 15.1659 2.4472 14.9489 2.67657 14.889L2.76557 14.8741C3.014 14.8552 3.2299 14.7312 3.56801 14.3899L3.78678 14.1582C3.86542 14.0717 3.95018 13.9756 4.04231 13.869C4.22288 13.66 4.53862 13.637 4.74755 13.8176C4.95647 13.9982 4.97946 14.3139 4.79889 14.5229C3.9734 15.478 3.5598 15.8166 2.84145 15.8712ZM5.5 12.2929C5.69526 12.0976 6.01184 12.0976 6.20711 12.2929C6.38067 12.4665 6.39996 12.7359 6.26496 12.9308L6.20711 13L5.85355 13.3536C5.65829 13.5488 5.34171 13.5488 5.14645 13.3536C4.97288 13.18 4.95359 12.9106 5.08859 12.7157L5.14645 12.6464C5.14645 12.6464 5.30474 12.4882 5.5 12.2929ZM0.750318 12.2249C0.868495 11.9754 1.16662 11.8688 1.4162 11.987C1.66577 12.1052 1.77229 12.4033 1.65412 12.6529C1.34443 13.3069 1.30246 13.8117 1.52302 14.1779C1.66548 14.4145 1.5892 14.7218 1.35264 14.8642C1.11608 15.0067 0.808829 14.9304 0.666369 14.6938C0.241967 13.9891 0.311619 13.1514 0.750318 12.2249ZM3.98865 8.87946C4.19293 9.06526 4.20791 9.38149 4.02211 9.58578L3.48792 10.1686L3.16575 10.5284L2.87719 10.8636L2.7133 11.0616C2.53895 11.2758 2.22402 11.308 2.00987 11.1337C1.79573 10.9593 1.76347 10.6444 1.93781 10.4303L2.11183 10.22L2.25991 10.046L2.80093 9.43788L3.28233 8.91293C3.46813 8.70864 3.78436 8.69366 3.98865 8.87946ZM0.542065 7.24471C0.367278 7.03093 0.398891 6.71593 0.612676 6.54114C0.826461 6.36635 1.14146 6.39796 1.31625 6.61175C1.61137 6.97272 2.07243 7.26858 2.79141 7.60318C3.04177 7.71969 3.15028 8.0171 3.03376 8.26746C2.91725 8.51782 2.61984 8.62632 2.36948 8.50981C1.52379 8.11624 0.957526 7.75287 0.542065 7.24471ZM1.75771 2.92071C2.02105 2.8376 2.30189 2.98371 2.385 3.24705C2.4681 3.5104 2.32199 3.79124 2.05865 3.87435C1.81386 3.9516 1.5796 4.17732 1.32189 4.66136C1.23833 4.82058 1.17169 4.97225 1.12118 5.11648C1.02992 5.37711 0.744653 5.5144 0.484027 5.42314C0.223402 5.33188 0.086108 5.04661 0.177372 4.78599C0.24448 4.59435 0.330747 4.39802 0.437817 4.19403C0.810334 3.49433 1.23418 3.08592 1.75771 2.92071ZM5.39017 2.55846C5.59331 2.3714 5.90962 2.38445 6.09668 2.58759C6.28373 2.79073 6.27069 3.10704 6.06755 3.29409C5.75315 3.58359 5.46048 3.79254 5.15416 3.92803C4.75217 4.10584 4.34374 4.15892 3.89871 4.11755C3.62375 4.09199 3.42158 3.84838 3.44714 3.57342C3.4727 3.29846 3.71631 3.09629 3.99127 3.12185C4.27598 3.14831 4.51514 3.11723 4.74965 3.0135C4.94118 2.92878 5.14957 2.78001 5.39017 2.55846Z" fill="#444E63"/>
<path d="M11.239 14.5266L14.6113 11.6174C14.7134 11.5294 14.7405 11.4014 14.6978 11.2929L13.4478 8.11467C13.4032 8.00107 13.28 7.90768 13.1223 7.90768H8.87764C8.71998 7.90768 8.59683 8.00107 8.55216 8.11467L7.30218 11.2929C7.25953 11.4014 7.28662 11.5294 7.38867 11.6174L10.761 14.5266C10.8948 14.6421 11.1051 14.6421 11.239 14.5266ZM11.7012 15.0625C11.3018 15.407 10.6982 15.407 10.2988 15.0625L6.92644 12.1532C6.60163 11.873 6.48865 11.428 6.64364 11.0339L7.89362 7.85567C8.04916 7.46018 8.44137 7.20004 8.87764 7.20004H13.1223C13.5586 7.20004 13.9508 7.46018 14.1064 7.85567L15.3563 11.0339C15.5113 11.428 15.3984 11.873 15.0735 12.1532L11.7012 15.0625Z" fill="#F3B752" stroke="#F3B752" stroke-width="0.1"/>
<path d="M12.4942 10.8067C12.4942 10.7175 12.4343 10.6393 12.3481 10.6161L9.64246 9.88867V10.9479C9.64246 11.0371 9.70234 11.1152 9.78848 11.1383L12.4942 11.8658C12.4942 11.4459 12.4942 11.1899 12.4942 10.8067Z" fill="#F3B752"/>
<path d="M11.314 8.5566C11.3752 8.52117 11.4506 8.52117 11.5117 8.5566L12.4648 9.1087C12.5152 9.13792 12.5152 9.21075 12.4648 9.23997L9.74839 10.8136C9.69015 10.8473 9.65179 10.9064 9.64395 10.9722C9.64301 10.9646 9.6425 10.9568 9.64246 10.949V9.63861C9.64246 9.56825 9.67994 9.50322 9.74083 9.46795L11.314 8.5566Z" fill="#F3B752"/>
<path d="M10.8233 13.1904C10.7617 13.2261 10.6857 13.2261 10.624 13.1904L9.67345 12.6397C9.62235 12.6101 9.62235 12.5361 9.67345 12.5065L12.3868 10.9346C12.4453 10.9008 12.484 10.8416 12.4924 10.7754C12.4935 10.784 12.4941 10.7928 12.4941 10.8017V12.107C12.4941 12.1785 12.4561 12.2445 12.3944 12.2802L10.8233 13.1904Z" fill="#F3B752"/>
</g>
<defs>
<clipPath id="clip0_440_5056">
<rect width="16" height="16" fill="white"/>
</clipPath>
</defs>
</svg>
