<?xml version="1.0" encoding="UTF-8"?>
<svg width="16px" height="16px" viewBox="0 0 16 16" version="1.1" xmlns="http://www.w3.org/2000/svg" xmlns:xlink="http://www.w3.org/1999/xlink">
    <title>切片</title>
    <g id="页面-1" stroke="none" stroke-width="1" fill="none" fill-rule="evenodd">
        <g id="第一期" transform="translate(-715.000000, -908.000000)">
            <g id="编组-21" transform="translate(703.000000, 617.000000)">
                <g id="编组-5" transform="translate(0.000000, 283.000000)">
                    <g id="路径" transform="translate(12.000000, 8.000000)">
                        <rect id="#" fill="#D8D8D8" opacity="0" x="0" y="0" width="16" height="16"></rect>
                        <path d="M15.5,13 C15.7454599,13 15.9496084,13.1768752 15.9919443,13.4101244 L16,13.5 L16,14.2 C16,14.607841 15.6948119,14.9444016 15.3003503,14.9937669 L15.2,15 L14.5,15 C14.2238576,15 14,14.7761424 14,14.5 C14,14.2545401 14.1768752,14.0503916 14.4101244,14.0080557 L14.5,14 L15,14 L15,13.5 C15,13.2545401 15.1768752,13.0503916 15.4101244,13.0080557 L15.5,13 Z M0.5,13 C0.745459889,13 0.94960837,13.1768752 0.991944331,13.4101244 L1,13.5 L1,14 L1.5,14 C1.74545989,14 1.94960837,14.1768752 1.99194433,14.4101244 L2,14.5 C2,14.7454599 1.82312484,14.9496084 1.58987563,14.9919443 L1.5,15 L0.8,15 C0.392158954,15 0.055598419,14.6948119 0.00623313573,14.3003503 L0,14.2 L0,13.5 C0,13.2238576 0.223857625,13 0.5,13 Z M4.5,14 C4.77614237,14 5,14.2238576 5,14.5 C5,14.7454599 4.82312484,14.9496084 4.58987563,14.9919443 L4.5,15 L3.5,15 C3.22385763,15 3,14.7761424 3,14.5 C3,14.2545401 3.17687516,14.0503916 3.41012437,14.0080557 L3.5,14 L4.5,14 Z M8.5,14 C8.77614237,14 9,14.2238576 9,14.5 C9,14.7454599 8.82312484,14.9496084 8.58987563,14.9919443 L8.5,15 L6.5,15 C6.22385763,15 6,14.7761424 6,14.5 C6,14.2545401 6.17687516,14.0503916 6.41012437,14.0080557 L6.5,14 L8.5,14 Z M12.5,14 C12.7761424,14 13,14.2238576 13,14.5 C13,14.7454599 12.8231248,14.9496084 12.5898756,14.9919443 L12.5,15 L10.5,15 C10.2238576,15 10,14.7761424 10,14.5 C10,14.2545401 10.1768752,14.0503916 10.4101244,14.0080557 L10.5,14 L12.5,14 Z M15.5,10 C15.7454599,10 15.9496084,10.1768752 15.9919443,10.4101244 L16,10.5 L16,11.5 C16,11.7761424 15.7761424,12 15.5,12 C15.2545401,12 15.0503916,11.8231248 15.0080557,11.5898756 L15,11.5 L15,10.5 C15,10.2238576 15.2238576,10 15.5,10 Z M0.5,10 C0.745459889,10 0.94960837,10.1768752 0.991944331,10.4101244 L1,10.5 L1,11.5 C1,11.7761424 0.776142375,12 0.5,12 C0.254540111,12 0.0503916296,11.8231248 0.00805566941,11.5898756 L0,11.5 L0,10.5 C0,10.2238576 0.223857625,10 0.5,10 Z M15.5,7 C15.7454599,7 15.9496084,7.17687516 15.9919443,7.41012437 L16,7.5 L16,8.5 C16,8.77614237 15.7761424,9 15.5,9 C15.2545401,9 15.0503916,8.82312484 15.0080557,8.58987563 L15,8.5 L15,7.5 C15,7.22385763 15.2238576,7 15.5,7 Z M0.5,7 C0.745459889,7 0.94960837,7.17687516 0.991944331,7.41012437 L1,7.5 L1,8.5 C1,8.77614237 0.776142375,9 0.5,9 C0.254540111,9 0.0503916296,8.82312484 0.00805566941,8.58987563 L0,8.5 L0,7.5 C0,7.22385763 0.223857625,7 0.5,7 Z M15.5,4 C15.7454599,4 15.9496084,4.17687516 15.9919443,4.41012437 L16,4.5 L16,5.5 C16,5.77614237 15.7761424,6 15.5,6 C15.2545401,6 15.0503916,5.82312484 15.0080557,5.58987563 L15,5.5 L15,4.5 C15,4.22385763 15.2238576,4 15.5,4 Z M0.5,4 C0.745459889,4 0.94960837,4.17687516 0.991944331,4.41012437 L1,4.5 L1,5.5 C1,5.77614237 0.776142375,6 0.5,6 C0.254540111,6 0.0503916296,5.82312484 0.00805566941,5.58987563 L0,5.5 L0,4.5 C0,4.22385763 0.223857625,4 0.5,4 Z M1.5,1 C1.77614237,1 2,1.22385763 2,1.5 C2,1.74545989 1.82312484,1.94960837 1.58987563,1.99194433 L1.5,2 L1,2 L1,2.5 C1,2.74545989 0.823124839,2.94960837 0.589875632,2.99194433 L0.5,3 C0.254540111,3 0.0503916296,2.82312484 0.00805566941,2.58987563 L0,2.5 L0,1.8 C0,1.39215895 0.305188147,1.05559842 0.6996497,1.00623314 L0.8,1 L1.5,1 Z M15.2,1 C15.607841,1 15.9444016,1.30518815 15.9937669,1.6996497 L16,1.8 L16,2.5 C16,2.77614237 15.7761424,3 15.5,3 C15.2545401,3 15.0503916,2.82312484 15.0080557,2.58987563 L15,2.5 L15,2 L14.5,2 C14.2545401,2 14.0503916,1.82312484 14.0080557,1.58987563 L14,1.5 C14,1.25454011 14.1768752,1.05039163 14.4101244,1.00805567 L14.5,1 L15.2,1 Z M4.5,1 C4.77614237,1 5,1.22385763 5,1.5 C5,1.74545989 4.82312484,1.94960837 4.58987563,1.99194433 L4.5,2 L3.5,2 C3.22385763,2 3,1.77614237 3,1.5 C3,1.25454011 3.17687516,1.05039163 3.41012437,1.00805567 L3.5,1 L4.5,1 Z M8.5,1 C8.77614237,1 9,1.22385763 9,1.5 C9,1.74545989 8.82312484,1.94960837 8.58987563,1.99194433 L8.5,2 L6.5,2 C6.22385763,2 6,1.77614237 6,1.5 C6,1.25454011 6.17687516,1.05039163 6.41012437,1.00805567 L6.5,1 L8.5,1 Z M12.5,1 C12.7761424,1 13,1.22385763 13,1.5 C13,1.74545989 12.8231248,1.94960837 12.5898756,1.99194433 L12.5,2 L10.5,2 C10.2238576,2 10,1.77614237 10,1.5 C10,1.25454011 10.1768752,1.05039163 10.4101244,1.00805567 L10.5,1 L12.5,1 Z" id="stylebaseStrokeDark" fill="#444E63"></path>
                    </g>
                </g>
            </g>
        </g>
    </g>
</svg>