<svg xmlns="http://www.w3.org/2000/svg" viewBox="0 0 16 16">
  <g fill="none" fill-rule="evenodd">
    <rect width="16" height="16"/>
    <path fill="#000" fill-opacity=".7" d="M7,3 L7,2.5 C7,1.67157288 7.67157288,1 8.5,1 L9.5,1 C9.77614237,1 10,0.776142375 10,0.5 C10,0.223857625 10.2238576,0 10.5,0 C10.7761424,0 11,0.223857625 11,0.5 C11,1.32842712 10.3284271,2 9.5,2 L8.5,2 C8.22385763,2 8,2.22385763 8,2.5 L8,3 L13.5,3 C14.8807119,3 16,4.11928813 16,5.5 L16,7.5 C16,7.77614237 15.7761424,8 15.5,8 C15.2238576,8 15,7.77614237 15,7.5 L15,5.5 C15,4.67157288 14.3284271,4 13.5,4 L2.5,4 C1.67157288,4 1,4.67157288 1,5.5 L1,12.5 C1,13.3284271 1.67157288,14 2.5,14 L7,14 C7.27614237,14 7.5,14.2238576 7.5,14.5 C7.5,14.7761424 7.27614237,15 7,15 L2.5,15 C1.11928813,15 0,13.8807119 0,12.5 L0,5.5 C0,4.11928813 1.11928813,3 2.5,3 L7,3 Z M3.5,11 L6.5,11 C6.77614237,11 7,11.2238576 7,11.5 C7,11.7761424 6.77614237,12 6.5,12 L3.5,12 C3.22385763,12 3,11.7761424 3,11.5 C3,11.2238576 3.22385763,11 3.5,11 Z M3.5,8.5 L6.5,8.5 C6.77614237,8.5 7,8.72385763 7,9 C7,9.27614237 6.77614237,9.5 6.5,9.5 L3.5,9.5 C3.22385763,9.5 3,9.27614237 3,9 C3,8.72385763 3.22385763,8.5 3.5,8.5 Z M3.5,6 L4.5,6 C4.77614237,6 5,6.22385763 5,6.5 C5,6.77614237 4.77614237,7 4.5,7 L3.5,7 C3.22385763,7 3,6.77614237 3,6.5 C3,6.22385763 3.22385763,6 3.5,6 Z M6.5,6 L7.5,6 C7.77614237,6 8,6.22385763 8,6.5 C8,6.77614237 7.77614237,7 7.5,7 L6.5,7 C6.22385763,7 6,6.77614237 6,6.5 C6,6.22385763 6.22385763,6 6.5,6 Z M9.5,6 L10.5,6 C10.7761424,6 11,6.22385763 11,6.5 C11,6.77614237 10.7761424,7 10.5,7 L9.5,7 C9.22385763,7 9,6.77614237 9,6.5 C9,6.22385763 9.22385763,6 9.5,6 Z"/>
    <path stroke="#5087E5" d="M12.5,7.86899507 L14.9641016,9.2916448 C15.2735027,9.4702776 15.4641016,9.80040462 15.4641016,10.1576702 L15.4641016,13.0029697 C15.4641016,13.3602353 15.2735027,13.6903623 14.9641016,13.8689951 L12.5,15.2916448 C12.1905989,15.4702776 11.8094011,15.4702776 11.5,15.2916448 L9.03589838,13.8689951 C8.72649731,13.6903623 8.53589838,13.3602353 8.53589838,13.0029697 L8.53589838,10.1576702 C8.53589838,9.80040462 8.72649731,9.4702776 9.03589838,9.2916448 L11.5,7.86899507 C11.8094011,7.69036228 12.1905989,7.69036228 12.5,7.86899507 Z"/>
    <path stroke="#5087E5" d="M12,12.5803199 C12.5522847,12.5803199 13,12.1326047 13,11.5803199 C13,11.0280352 12.5522847,10.5803199 12,10.5803199 C11.4477153,10.5803199 11,11.0280352 11,11.5803199 C11,12.1326047 11.4477153,12.5803199 12,12.5803199 Z"/>
  </g>
</svg>
