<?xml version="1.0" encoding="UTF-8"?>
<svg width="16px" height="16px" viewBox="0 0 16 16" version="1.1" xmlns="http://www.w3.org/2000/svg" xmlns:xlink="http://www.w3.org/1999/xlink">
    <title>icon16/形状</title>
    <g id="icon16/形状" stroke="none" stroke-width="1" fill="none" fill-rule="evenodd">
        <g id="编组">
            <polygon id="#" points="0 0 16 0 16 16 0 16"></polygon>
            <path d="M10.2,1 C10.607841,1 10.9444016,1.30518815 10.9937669,1.6996497 L11,1.8 L11.0006121,5.0224767 L10.9714347,5.01992199 C13.7883123,5.25904872 16,7.62124069 16,10.5 C16,13.5375661 13.5375661,16 10.5,16 C7.9825098,16 5.86006936,14.3085909 5.20708232,12.0001762 L0.8,12 C0.392158954,12 0.055598419,11.6948119 0.00623313573,11.3003503 L0,11.2 L0,1.8 C0,1.39215895 0.305188147,1.05559842 0.6996497,1.00623314 L0.8,1 L10.2,1 Z M10.5,6 C8.01471863,6 6,8.01471863 6,10.5 C6,12.9852814 8.01471863,15 10.5,15 C12.9852814,15 15,12.9852814 15,10.5 C15,8.01471863 12.9852814,6 10.5,6 Z M10,2 L1,2 L1,11 L5.0224767,11.0006121 L5.02743714,11.0528204 C5.00929153,10.8710087 5,10.6865894 5,10.5 C5,7.62192668 7.21063379,5.26017454 10.0265517,5.0200933 L10.0003933,5.02238608 L10.0003933,5.02238608 L10,2 Z" id="形状结合" fill="#444E63"></path>
        </g>
    </g>
</svg>