<?xml version="1.0" encoding="UTF-8"?>
<svg width="21px" height="10px" viewBox="0 0 21 10" version="1.1" xmlns="http://www.w3.org/2000/svg" xmlns:xlink="http://www.w3.org/1999/xlink">
    <title>编组 3</title>
    <g id="页面-1" stroke="none" stroke-width="1" fill="none" fill-rule="evenodd">
        <g id="截屏工具" transform="translate(-547.000000, -3575.000000)">
            <g id="编组-3" transform="translate(547.000000, 3575.000000)">
                <rect id="矩形" fill="#FE9C00" x="0" y="0" width="21" height="10" rx="5"></rect>
                <path d="M10.32,8.768 L10.744,8.096 C10.192,7.776 9.744,7.392 9.408,6.952 C9.832,6.728 10.216,6.416 10.552,6.016 L10.064,5.528 C9.744,5.912 9.408,6.208 9.056,6.416 C8.864,6.064 8.72,5.688 8.64,5.28 L10.072,5.28 L10.072,1.704 L6.464,1.704 L6.464,7.816 C6.464,7.92 6.392,7.992 6.264,8.04 L6.448,8.704 C7.336,8.472 8.072,8.232 8.656,7.992 L8.48,7.288 C8.064,7.48 7.64,7.64 7.208,7.768 L7.208,5.28 L7.96,5.28 C8.216,6.752 9.008,7.912 10.32,8.768 Z M4.336,8.832 L4.336,2.424 L5.432,2.424 C5.224,3.064 4.944,3.792 4.584,4.592 C5.128,5.264 5.4,5.864 5.4,6.408 C5.4,6.544 5.36,6.64 5.288,6.696 C5.208,6.744 5.064,6.776 4.84,6.792 C4.728,6.792 4.592,6.776 4.432,6.752 L4.68,7.52 C5.272,7.512 5.68,7.408 5.92,7.208 C6.08,7.048 6.16,6.776 6.16,6.408 C6.128,5.856 5.856,5.216 5.352,4.48 C5.672,3.72 5.952,3 6.192,2.312 L6.192,1.712 L3.592,1.712 L3.592,8.832 L4.336,8.832 Z M9.328,3.168 L7.208,3.168 L7.208,2.424 L9.328,2.424 L9.328,3.168 Z M9.328,4.584 L7.208,4.584 L7.208,3.856 L9.328,3.856 L9.328,4.584 Z M11.888,8.848 C13.456,8.24 14.44,7.472 14.856,6.56 C14.92,6.432 14.976,6.296 15.024,6.152 L15.304,6.152 L15.304,7.768 C15.304,8.392 15.576,8.704 16.128,8.704 L17.72,8.704 C18.008,8.704 18.216,8.632 18.352,8.488 C18.496,8.328 18.592,7.856 18.656,7.056 L17.936,6.824 C17.92,7.376 17.88,7.704 17.816,7.816 C17.768,7.912 17.688,7.968 17.576,7.968 L16.36,7.968 C16.16,7.968 16.064,7.848 16.064,7.608 L16.064,6.152 L17.872,6.152 L17.872,3.584 L16.04,3.584 C16.32,3.328 16.6,3.016 16.888,2.656 L16.888,2.08 L14.216,2.08 C14.336,1.912 14.456,1.744 14.568,1.568 L13.8,1.4 C13.128,2.392 12.328,3.16 11.384,3.72 L11.864,4.304 C12.016,4.208 12.168,4.104 12.312,4 L12.312,6.152 L14.216,6.152 C14.184,6.216 14.144,6.288 14.112,6.368 C13.68,7.112 12.784,7.744 11.408,8.256 L11.888,8.848 Z M15.088,3.584 L12.832,3.584 C13.12,3.336 13.392,3.064 13.664,2.768 L15.904,2.768 C15.632,3.072 15.36,3.344 15.088,3.584 Z M17.144,5.44 L15.232,5.44 C15.304,5.088 15.352,4.704 15.368,4.288 L17.144,4.288 L17.144,5.44 Z M14.448,5.44 L13.048,5.44 L13.048,4.288 L14.608,4.288 C14.584,4.704 14.528,5.088 14.448,5.44 Z" id="限免" fill="#FFFFFF" fill-rule="nonzero"></path>
            </g>
        </g>
    </g>
</svg>