<?xml version="1.0" encoding="UTF-8"?>
<svg width="16px" height="16px" viewBox="0 0 16 16" version="1.1" xmlns="http://www.w3.org/2000/svg" xmlns:xlink="http://www.w3.org/1999/xlink">
    <title>icon16/转表格</title>
    <g id="icon16/转表格" stroke="none" stroke-width="1" fill="none" fill-rule="evenodd">
        <g id="编组">
            <polygon id="#" points="0 0 16 0 16 16 0 16"></polygon>
            <path d="M13.5105374,9.00011036 L13.5422964,9.00178124 L13.5422964,9.00178124 L13.548,9.002 L13.5534276,9.00282096 L13.563,9.004 L13.5739178,9.00546187 L13.5739178,9.00546187 L13.569,9.005 L13.6052277,9.01109223 L13.6052277,9.01109223 C13.6204743,9.01439613 13.6358347,9.01844802 13.6510116,9.02324135 L13.6910366,9.03779224 L13.6910366,9.03779224 C13.7045389,9.04335147 13.7182757,9.04974961 13.7317582,9.05680497 C13.7440467,9.06329334 13.7556825,9.07001934 13.7670103,9.07718801 C13.7727019,9.08073319 13.7785364,9.08459457 13.7843055,9.08859116 L13.8021439,9.10158273 C13.8157542,9.11192025 13.8288187,9.1229392 13.8412864,9.13458875 L15.8535534,11.1464466 C16.0488155,11.3417088 16.0488155,11.6582912 15.8535534,11.8535534 C15.679987,12.0271197 15.4105626,12.0464049 15.2156945,11.9114088 L15.1464466,11.8535534 L13.999,10.706 L14,15.5 C14,15.7761424 13.7761424,16 13.5,16 C13.2545401,16 13.0503916,15.8231248 13.0080557,15.5898756 L13,15.5 L12.999,10.708 L11.8535534,11.8535534 C11.679987,12.0271197 11.4105626,12.0464049 11.2156945,11.9114088 L11.1464466,11.8535534 C10.9728803,11.679987 10.9535951,11.4105626 11.0885912,11.2156945 L11.1464466,11.1464466 L13.1587136,9.13458875 L13.1778564,9.11759373 L13.1778564,9.11759373 L13.1883378,9.10896102 L13.1883378,9.10896102 L13.1464466,9.14644661 L13.193,9.105 L13.2331935,9.07700705 L13.2331935,9.07700705 C13.2443175,9.07001934 13.2559533,9.06329334 13.2678728,9.05703434 C13.2817243,9.04974961 13.2954611,9.04335147 13.3094049,9.03761056 C13.3219749,9.03240845 13.3352631,9.0275581 13.3488008,9.02326842 C13.3641653,9.01844802 13.3795257,9.01439613 13.3950129,9.01108568 L13.4259331,9.00544807 L13.4259331,9.00544807 C13.4467627,9.0023875 13.4675988,9.000611 13.4884592,9.00013238 L13.5105374,9.00011036 Z M10.5,13 C10.7454599,13 10.9496084,13.1768752 10.9919443,13.4101244 L11,13.5 C11,13.7454599 10.8231248,13.9496084 10.5898756,13.9919443 L10.5,14 L0.8,14 C0.392158954,14 0.055598419,13.6948119 0.00623313573,13.3003503 L0,13.2 L0,1.8 C0,1.39215895 0.305188147,1.05559842 0.6996497,1.00623314 L0.8,1 L15.2,1 C15.607841,1 15.9444016,1.30518815 15.9937669,1.6996497 L16,1.8 L16,6.5 C16,6.77614237 15.7761424,7 15.5,7 C15.2545401,7 15.0503916,6.82312484 15.0080557,6.58987563 L15,6.5 L15,6 L11,6 L11,9.2 C11,9.60784105 10.6948119,9.94440158 10.3003503,9.99376686 L10.2,10 L6,10 L6,13 L10.5,13 Z M1,9 L5,9 L5,6 L1,6 L1,9 Z M10,6 L6,6 L6,9 L10,9 L10,6 Z M15,2 L1,2 L1,5 L15,5 L15,2 Z M1,13 L5,13 L5,10 L1,10 L1,13 Z" id="stylebaseStrokeDark" fill="#444E63"></path>
        </g>
    </g>
</svg>