<?xml version="1.0" encoding="UTF-8"?>
<svg width="16px" height="16px" viewBox="0 0 16 16" version="1.1" xmlns="http://www.w3.org/2000/svg" xmlns:xlink="http://www.w3.org/1999/xlink">
    <title>icon16/文字</title>
    <g id="icon16/文字" stroke="none" stroke-width="1" fill="none" fill-rule="evenodd">
        <g id="编组">
            <polygon id="#" points="0 0 16 0 16 16 0 16"></polygon>
            <path d="M8.29711254,0.814993368 C8.46651431,0.882754077 8.60660477,1.00590436 8.69565203,1.16271233 L8.74278135,1.26066218 L13.9642383,14.3143047 C14.066795,14.5706964 13.9420871,14.8616816 13.6856953,14.9642383 C13.4577916,15.0553999 13.2025547,14.9669942 13.0766201,14.766151 L13.0357617,14.6856953 L11.561,10.999 L4.439,10.999 L2.96423835,14.6856953 C2.87307683,14.9135991 2.63303352,15.0374564 2.40074389,14.9901378 L2.31430466,14.9642383 C2.08640088,14.8730768 1.96254356,14.6330335 2.00986218,14.4007439 L2.03576165,14.3143047 L7.25721865,1.26066218 C7.42130937,0.850435366 7.88688573,0.650902643 8.29711254,0.814993368 Z M8,2.096 L4.839,9.999 L11.161,9.999 L8,2.096 Z" id="stylebaseStrokeDark" fill="#444E63"></path>
        </g>
    </g>
</svg>