<?xml version="1.0" encoding="UTF-8"?>
<svg width="16px" height="16px" viewBox="0 0 16 16" version="1.1" xmlns="http://www.w3.org/2000/svg" xmlns:xlink="http://www.w3.org/1999/xlink">
    <title>icon16/翻译</title>
    <g id="icon16/翻译" stroke="none" stroke-width="1" fill="none" fill-rule="evenodd">
        <g id="编组">
            <polygon id="#" points="0 0 16 0 16 16 0 16"></polygon>
            <path d="M11.5,7.8 C11.7454599,7.8 11.9496084,7.97687516 11.9919443,8.21012437 L12,8.3 L12,9 L14.2,9 C14.607841,9 14.9444016,9.30518815 14.9937669,9.6996497 L15,9.8 L15,13.2 C15,13.607841 14.6948119,13.9444016 14.3003503,13.9937669 L14.2,14 L12,14 L12,15.5 C12,15.7761424 11.7761424,16 11.5,16 C11.2545401,16 11.0503916,15.8231248 11.0080557,15.5898756 L11,15.5 L11,14 L8.8,14 C8.39215895,14 8.05559842,13.6948119 8.00623314,13.3003503 L8,13.2 L8,9.8 C8,9.39215895 8.30518815,9.05559842 8.6996497,9.00623314 L8.8,9 L11,9 L11,8.3 C11,8.02385763 11.2238576,7.8 11.5,7.8 Z M0.5,9 C0.745459889,9 0.94960837,9.17687516 0.991944331,9.41012437 L1,9.5 L1,10 C1,11.4980869 2.47945273,12.896547 3.84842715,12.9945262 L4,13 L5.293,13 L4.14644661,11.8535534 C3.97288026,11.679987 3.95359511,11.4105626 4.08859116,11.2156945 L4.14644661,11.1464466 C4.32001296,10.9728803 4.58943736,10.9535951 4.7843055,11.0885912 L4.85355339,11.1464466 L6.85963694,13.1512955 L6.90760118,13.2097359 L6.95480043,13.291932 L6.9750766,13.3439581 L6.99346531,13.4170302 L7.00087302,13.4922696 L6.99673851,13.5683214 C6.9866458,13.6443277 6.95839789,13.7195202 6.90946921,13.7878015 L6.85355339,13.8535534 L4.86355339,15.8435534 C4.41264472,16.2944621 3.74608407,15.6671109 4.10152626,15.1991546 L4.15644661,15.1364466 L5.292,14 L4,14 C2.11774909,14 0.124675335,12.2399674 0.00561140774,10.1927254 L0,10 L0,9.5 C0,9.22385763 0.223857625,9 0.5,9 Z M11,9.999 L9,9.99998569 L9,12.9999857 L11,12.999 L11,9.999 Z M14,9.99998569 L12,9.999 L12,12.999 L14,12.9999857 L14,9.99998569 Z M4.25,2.92175173e-11 C5.91616087,2.92175173e-11 6.92069581,0.862080837 6.99550299,2.32196176 L7,2.5 L7,7.5 C7,7.77614237 6.77614237,8 6.5,8 C6.25454011,8 6.05039163,7.82312484 6.00805567,7.58987563 L6,7.5 L6.0009608,7.36375756 C5.51537216,7.72669452 4.88528564,7.96024195 4.18484499,7.99537974 L4,8 L3.5,8 C2.11594207,8 1,7.00337711 1,5.5 C1,4.21234384 1.9621249,3.22508755 3.42582977,3.00553182 C3.6283092,2.97515991 3.80379159,2.96378532 4.09667133,2.96095685 L4.61111111,2.96111111 C5.43365849,2.96111111 5.81384174,2.87522438 6.00074974,2.61333834 L6,2.5 C6,1.50507337 5.44901087,1 4.25,1 C3.38917765,1 2.59704772,1.36005906 1.85355339,2.10355339 C1.65829124,2.29881554 1.34170876,2.29881554 1.14644661,2.10355339 C0.951184464,1.90829124 0.951184464,1.59170876 1.14644661,1.39644661 C2.06961895,0.473274272 3.11082235,2.92175173e-11 4.25,2.92175173e-11 Z M6.00163462,3.80390054 C5.64173463,3.9218966 5.18865629,3.96111111 4.61111111,3.96111111 L4.12915907,3.96078315 C3.87058223,3.96297405 3.72464194,3.97189742 3.57417023,3.99446818 C2.57620032,4.14416366 2,4.73541475 2,5.5 C2,6.36994108 2.57100484,6.93106573 3.3513253,6.99407022 L3.5,7 L4,7 C5.09835364,7 5.91483536,6.34723082 5.99373765,5.61602212 L6,5.48998569 L6.00163462,3.80390054 Z M11.7843055,0.0885911588 L11.8535534,0.146446609 C12.0271197,0.320012961 12.0464049,0.589437362 11.9114088,0.784305503 L11.8535534,0.853553391 L10.707,1.999 L12,2 C14.2071684,2 15.8950166,3.62096438 15.9952837,5.79463201 L16,6 L16,6.5 C16,6.77614237 15.7761424,7 15.5,7 C15.2545401,7 15.0503916,6.82312484 15.0080557,6.58987563 L15,6.5 L15,6 C15,4.33770872 13.8133829,3.09172409 12.1829481,3.00484546 L12,3 L10.706,2.999 L11.8535534,4.14644661 C12.3044621,4.59735528 11.6771109,5.26391593 11.2091546,4.90847374 L11.1464466,4.85355339 L9.14644661,2.85355339 C9.06245129,2.76955808 9.01671844,2.66966313 9.00326149,2.56832136 L8.99912698,2.49226958 L9.00653469,2.41703019 L9.0249234,2.34395814 L9.05373185,2.27440837 C9.07628602,2.22951706 9.10541253,2.18787725 9.14036306,2.15129552 L11.1464466,0.146446609 C11.320013,-0.0271197425 11.5894374,-0.0464048927 11.7843055,0.0885911588 Z" id="形状结合" fill="#444E63"></path>
        </g>
    </g>
</svg>