<?xml version="1.0" encoding="UTF-8"?>
<svg width="16px" height="16px" viewBox="0 0 16 16" version="1.1" xmlns="http://www.w3.org/2000/svg" xmlns:xlink="http://www.w3.org/1999/xlink">
    <title>icon16/还原</title>
    <g id="icon16/还原" stroke="none" stroke-width="1" fill="none" fill-rule="evenodd">
        <g id="编组">
            <polygon id="#" points="0 0 16 0 16 16 0 16"></polygon>
            <path d="M4.85355339,6.14644661 C5.02711974,6.32001296 5.04640489,6.58943736 4.91140884,6.7843055 L4.85355339,6.85355339 C4.67998704,7.02711974 4.41056264,7.04640489 4.2156945,6.91140884 L4.14644661,6.85355339 L1.14644661,3.85355339 L1.13458875,3.84128643 C1.1229392,3.82881868 1.11192025,3.81575424 1.10158273,3.80214392 L1.14644661,3.85355339 C1.11961234,3.82671912 1.09646582,3.79759357 1.07700705,3.76680652 C1.07001934,3.75568247 1.06329334,3.74404667 1.05703434,3.73212724 C1.04974961,3.71827569 1.04335147,3.70453886 1.03761056,3.6905951 C1.03240845,3.67802507 1.0275581,3.66473685 1.02326842,3.65119917 C1.01844802,3.63583471 1.01439613,3.62047425 1.01108568,3.60498705 C1.00889169,3.59495426 1.00700676,3.5845638 1.00544807,3.57406693 C1.0023875,3.55323734 1.000611,3.53240118 1.00013238,3.51154077 C1.00004222,3.50757457 1,3.50379222 1,3.5 L1.00011036,3.48946265 C1.00055436,3.46826702 1.0023382,3.44709424 1.00546187,3.42608223 L1,3.5 C1,3.46282005 1.00405811,3.42658791 1.01175555,3.39172237 C1.01492107,3.37754815 1.0187567,3.36318793 1.02324135,3.34898836 C1.0275581,3.33526315 1.03240845,3.32197493 1.03779224,3.30896344 C1.04335147,3.29546114 1.04974961,3.28172431 1.05680497,3.26824181 C1.06329334,3.25595333 1.07001934,3.24431753 1.07718801,3.23298968 C1.08073319,3.22729809 1.08459457,3.22146362 1.08859116,3.2156945 L1.10158273,3.19785608 C1.11192025,3.18424576 1.1229392,3.17118132 1.13458875,3.15871357 L1.14644661,3.14644661 L4.14644661,0.146446609 C4.34170876,-0.0488155365 4.65829124,-0.0488155365 4.85355339,0.146446609 C5.02711974,0.320012961 5.04640489,0.589437362 4.91140884,0.784305503 L4.85355339,0.853553391 L2.706,3 L10,3 C13.3137085,3 16,5.6862915 16,9 C16,12.2383969 13.4344251,14.8775718 10.2249383,14.9958615 L10,15 L5.5,15 C5.22385763,15 5,14.7761424 5,14.5 C5,14.2545401 5.17687516,14.0503916 5.41012437,14.0080557 L5.5,14 L10,14 C12.7614237,14 15,11.7614237 15,9 C15,6.3112453 12.8776933,4.11818189 10.2168896,4.00461951 L10,4 L2.706,4 L4.85355339,6.14644661 Z" id="形状结合" fill="#444E63"></path>
        </g>
    </g>
</svg>